<?xml version="1.0" standalone="no"?>
<!DOCTYPE svg PUBLIC "-//W3C//DTD SVG 1.1//EN" "http://www.w3.org/Graphics/SVG/1.1/DTD/svg11.dtd" >
<svg>
<metadata>
Created by FontForge 20090914 at Thu Oct 20 14:07:11 2016
 By www-data
Copyright (c) 2008 by Zakhar Yaschin for Nival Online. All rights reserved.
</metadata>
<defs>
<font id="Allods-West" horiz-adv-x="816" >
  <font-face 
    font-family="AllodsWest"
    font-weight="400"
    font-stretch="normal"
    units-per-em="1000"
    panose-1="2 0 0 0 0 0 0 0 0 0"
    ascent="750"
    descent="-250"
    x-height="513"
    cap-height="720"
    bbox="-79.998 -347 1306 1025"
    underline-thickness="50"
    underline-position="-50"
    unicode-range="U+0020-U+2122"
  />
<missing-glyph horiz-adv-x="300" 
 />
    <glyph glyph-name=".notdef" horiz-adv-x="300" 
 />
    <glyph glyph-name="space" unicode=" " horiz-adv-x="356" 
 />
    <glyph glyph-name="space" unicode="&#xa0;" horiz-adv-x="356" 
 />
    <glyph glyph-name="exclam" unicode="!" horiz-adv-x="153" 
d="M20 679c0 11.333 5.83398 21.166 17.501 29.499s24.5 12.5 38.5 12.5s27 -4.16699 39 -12.5s18 -18.166 18 -29.499l-30 -464c-1.33301 -15.333 -10.333 -23 -27 -23c-9.33301 0 -15.833 2 -19.5 6s-5.83398 9.66699 -6.50098 17zM20.001 47
c0 15.333 5.5 28.666 16.5 39.999s24.167 17 39.5 17s28.666 -5.66699 39.999 -17s17 -24.666 17 -39.999s-5.66699 -28.5 -17 -39.5s-24.666 -16.5 -39.999 -16.5s-28.5 5.5 -39.5 16.5s-16.5 24.167 -16.5 39.5z" />
    <glyph glyph-name="quotedbl" unicode="&#x22;" horiz-adv-x="283" 
d="M30 689c0 10 4.16797 17.833 12.501 23.5s19.5 8.5 33.5 8.5s25.333 -2.83301 34 -8.5s13 -13.5 13 -23.5l-20 -190c0 -7.33301 -2.83301 -13 -8.5 -17s-11.834 -6 -18.501 -6s-12.667 2 -18 6s-8 9.66699 -8 17zM160.001 689c0 10 4.16797 17.833 12.501 23.5
s19.5 8.5 33.5 8.5s25.333 -2.83301 34 -8.5s13 -13.5 13 -23.5l-20 -190c0 -7.33301 -2.83301 -13 -8.5 -17s-11.834 -6 -18.501 -6s-12.667 2 -18 6s-8 9.66699 -8 17z" />
    <glyph glyph-name="numbersign" unicode="#" horiz-adv-x="833" 
d="M537 138l-83.999 -189.995c-3.33301 -6 -7.33301 -11.333 -12 -16s-11.667 -7 -21 -7c-11.333 0 -21.666 3.5 -30.999 10.5s-14 16.167 -14 27.5l75 175h-192l-84 -190c-2.66699 -6 -6.5 -11.333 -11.5 -16s-12.167 -7 -21.5 -7c-11.333 0 -21.666 3.5 -30.999 10.5
s-14 16.167 -14 27.5l75 175h-112c-3.33301 0 -7.33301 0.666992 -12 2s-9 3.5 -13 6.5s-7.33301 7.16699 -10 12.5s-4 11.666 -4 18.999c0 13.333 4.66699 23.166 14 29.499s17.666 9.5 24.999 9.5h146l62 140h-181c-7.33301 0 -15.5 2.83301 -24.5 8.5
s-13.5 16.167 -13.5 31.5c0 13.333 4.5 23.166 13.5 29.499s17.167 9.5 24.5 9.5h214l62 150c2 7.33301 5.83301 13.166 11.5 17.499s13.167 6.5 22.5 6.5c11.333 0 21.666 -3.66699 30.999 -11s14 -16.666 14 -27.999l-55 -135h192l62 150
c2 7.33301 5.83301 13.166 11.5 17.499s13.167 6.5 22.5 6.5c11.333 0 21.666 -3.66699 30.999 -11s14 -16.666 14 -27.999l-55 -135h111c7.33301 0 15.5 -2.83301 24.5 -8.5s13.5 -15.834 13.5 -30.501c0 -14 -4.5 -24.167 -13.5 -30.5s-17.167 -9.5 -24.5 -9.5h-144
l-61 -140h177c7.33301 0 15.666 -2.83301 24.999 -8.5s14 -15.834 14 -30.501c0 -14 -4.66699 -24.167 -14 -30.5s-17.666 -9.5 -24.999 -9.5h-210zM291.001 217.005h193l61 140h-192z" />
    <glyph glyph-name="dollar" unicode="$" horiz-adv-x="570" 
d="M336 611c54.667 -2.66699 99.166 -9.50488 133.499 -20.5049s51.5 -25.167 51.5 -42.5c0 -6 -2.83301 -13.667 -8.5 -23s-12.834 -18.166 -21.501 -26.499s-18 -15.666 -28 -21.999s-19 -9.5 -27 -9.5c-6.66699 0 -12.667 3.66699 -18 11l-18.5 25.5
c-7 9.66699 -15.333 19.334 -25 29.001s-22.5 17.167 -38.5 22.5v-299c24.667 -12.667 49.834 -26.334 75.501 -41.001s48.667 -31.167 69 -49.5s37 -38.666 50 -60.999s19.5 -47.5 19.5 -75.5c0 -19.333 -3.33301 -39.833 -10 -61.5s-18 -42.5 -34 -62.5
s-37.833 -37.5 -65.5 -52.5s-62.5 -25.167 -104.5 -30.5v-62c0 -14 -5 -24.5 -15 -31.5s-19.333 -10.5 -28 -10.5c-8 0 -17.167 3.5 -27.5 10.5s-15.5 17.5 -15.5 31.5v59c-35.333 2.66699 -67.166 9.33398 -95.499 20.001s-52.5 23.834 -72.5 39.501s-35.333 32.5 -46 50.5
s-16 35.333 -16 52c0 8.66699 2.66699 13 8 13c3.33301 0 8 -3.33301 14 -10l30 -27c12 -10.667 26.5 -21.167 43.5 -31.5s36.5 -19.666 58.5 -27.999s47.333 -13.5 76 -15.5v299c-26 13.333 -52.167 27.833 -78.5 43.5s-50 33 -71 52s-38.167 40.167 -51.5 63.5
s-20 49.666 -20 78.999c0 18.667 4.16699 38.5 12.5 59.5s21.333 40.5 39 58.5s40.5 33.667 68.5 47s61.667 22 101 26v86c0 14 5 24.5 15 31.5s19.333 10.5 28 10.5c8 0 17.167 -3.5 27.5 -10.5s15.5 -17.5 15.5 -31.5v-85zM140.999 434.995
c0 -16.667 2.83301 -31.5 8.5 -44.5s13.334 -25 23.001 -36s21.167 -21 34.5 -30s27.666 -17.5 42.999 -25.5v257c-32 -7.33301 -58.167 -21.333 -78.5 -42s-30.5 -47 -30.5 -79zM431.999 19.9951c0 23.333 -9.33203 44.332 -27.999 62.999s-41.334 36 -68.001 52v-247
c30 8 53.5 22.833 70.5 44.5s25.5 50.834 25.5 87.501z" />
    <glyph glyph-name="percent" unicode="%" horiz-adv-x="882" 
d="M261 13c-8 -11.333 -19.665 -17.001 -34.998 -17.001c-12.667 0 -22.167 4.16699 -28.5 12.5s-9.5 18.833 -9.5 31.5l421 644c3.33301 5.33301 8.16602 9.33301 14.499 12s12.166 4 17.499 4c14 0 24.167 -4.16699 30.5 -12.5s9.5 -18.166 9.5 -29.499zM22.002 527.999
c0 26 4.5 50.167 13.5 72.5s21.833 41.5 38.5 57.5s36.667 28.667 60 38s49.666 14 78.999 14c28.667 0 54.834 -4.66699 78.501 -14s43.834 -22 60.501 -38s29.5 -35.167 38.5 -57.5s13.5 -46.5 13.5 -72.5s-4.5 -50.167 -13.5 -72.5s-21.833 -41.5 -38.5 -57.5
s-36.834 -28.667 -60.501 -38s-49.834 -14 -78.501 -14c-29.333 0 -55.666 4.66699 -78.999 14s-43.333 22 -60 38s-29.5 35.167 -38.5 57.5s-13.5 46.5 -13.5 72.5zM108.002 527.999c0 -40 9.83301 -72 29.5 -96s44.834 -36 75.501 -36c30 0 55.167 12 75.5 36
s30.5 56 30.5 96c0 18.667 -2.66699 36.167 -8 52.5s-12.833 30.5 -22.5 42.5s-21 21.333 -34 28s-26.833 10 -41.5 10c-30.667 0 -55.834 -12 -75.501 -36s-29.5 -56.333 -29.5 -97zM482.002 173.999c0 26 4.5 50.167 13.5 72.5s21.833 41.5 38.5 57.5s36.667 28.667 60 38
s49.666 14 78.999 14c28.667 0 54.834 -4.66699 78.501 -14s43.834 -22 60.501 -38s29.5 -35.167 38.5 -57.5s13.5 -46.5 13.5 -72.5s-4.5 -50.167 -13.5 -72.5s-21.833 -41.5 -38.5 -57.5s-36.834 -28.667 -60.501 -38s-49.834 -14 -78.501 -14
c-29.333 0 -55.666 4.66699 -78.999 14s-43.333 22 -60 38s-29.5 35.167 -38.5 57.5s-13.5 46.5 -13.5 72.5zM568.002 173.999c0 -40 9.83301 -72 29.5 -96s44.834 -36 75.501 -36c30 0 55.167 12 75.5 36s30.5 56 30.5 96c0 18.667 -2.66699 36.167 -8 52.5
s-12.833 30.5 -22.5 42.5s-21 21.333 -34 28s-26.833 10 -41.5 10c-30.667 0 -55.834 -12 -75.501 -36s-29.5 -56.333 -29.5 -97z" />
    <glyph glyph-name="ampersand" unicode="&#x26;" horiz-adv-x="682" 
d="M314 379l69.9961 -89.9951l75 -91c11.333 24 20.333 49.667 27 77s10 55 10 83c0 6.66699 -3.5 12.334 -10.5 17.001s-14.833 9.16699 -23.5 13.5s-16.5 8.66602 -23.5 12.999s-10.5 9.83301 -10.5 16.5c0 4 4.66699 7.33301 14 10s20.666 4.83398 33.999 6.50098
s27.333 3 42 4s27.667 1.5 39 1.5c13.333 0 26.333 -0.5 39 -1.5s24 -2.33301 34 -4s18 -3.83398 24 -6.50098s9 -6 9 -10c0 -6.66699 -4.66699 -12.167 -14 -16.5s-19.666 -8.66602 -30.999 -12.999s-21.666 -8.83301 -30.999 -13.5s-14 -10.334 -14 -17.001
c0 -30 -5 -64.667 -15 -104s-26 -77.666 -48 -114.999c29.333 -33.333 57.166 -63 83.499 -89s49.166 -45.667 68.499 -59c5.33301 -4 12.333 -6.83301 21 -8.5s17.167 -3.5 25.5 -5.5s15.5 -4.16699 21.5 -6.5s9 -5.83301 9 -10.5c0 -5.33301 -2.66699 -10 -8 -14
s-11.833 -7.5 -19.5 -10.5s-16 -5.33301 -25 -7s-17.167 -2.5 -24.5 -2.5c-26.667 0 -48.667 4.66699 -66 14s-31.666 18.666 -42.999 27.999c-36 28.667 -69.667 61 -101 97c-23.333 -22.667 -50.5 -40.834 -81.5 -54.501s-66.167 -20.5 -105.5 -20.5c-38 0 -71 5 -99 15
s-51 23.167 -69 39.5s-31.5 35 -40.5 56s-13.5 42.167 -13.5 63.5c0 25.333 4.66699 48.666 14 69.999s21.5 40.833 36.5 58.5s32.167 33.167 51.5 46.5s38.666 25 57.999 35l-38 43.5c-12 13.667 -22.667 27.5 -32 41.5s-16.666 28.833 -21.999 44.5s-8 33.5 -8 53.5
c0 19.333 3.83301 38.166 11.5 56.499s18.834 34.666 33.501 48.999s32.834 25.833 54.501 34.5s46.834 13 75.501 13s53.834 -4.16699 75.501 -12.5s40 -19.5 55 -33.5s26.333 -30.333 34 -49s11.5 -38 11.5 -58c0 -18 -4.5 -35.833 -13.5 -53.5
s-20.5 -34.334 -34.5 -50.001s-29.167 -30 -45.5 -43s-31.833 -23.5 -46.5 -31.5zM288.996 62.0049c21.333 0 42 5.16992 62 15.5029s38.333 24.166 55 41.499l-78.5 100.5l-86.5 109.5l-32.5 -37c-9.66699 -11.333 -18 -22.833 -25 -34.5s-12.333 -24.334 -16 -38.001
s-5.5 -28.834 -5.5 -45.501c0 -34 11.667 -61.167 35 -81.5s54 -30.5 92 -30.5zM205.996 557.008c0 -21.333 6.99902 -44.666 20.999 -69.999s30.667 -48.333 50 -69c9.33301 7.33301 18.333 16.5 27 27.5s16.5 22.667 23.5 35s12.667 25.166 17 38.499s6.5 26 6.5 38
c0 30 -6.33301 54.667 -19 74s-30.667 29 -54 29s-41.166 -9.66699 -53.499 -29s-18.5 -44 -18.5 -74z" />
    <glyph glyph-name="quotesingle" unicode="'" horiz-adv-x="133" 
d="M20 689c0 10 4.16797 17.833 12.501 23.5s19.5 8.5 33.5 8.5s25.333 -2.83301 34 -8.5s13 -13.5 13 -23.5l-20 -190c-1.33301 -7.33301 -4.5 -13 -9.5 -17s-10.833 -6 -17.5 -6s-12.334 2 -17.001 6s-7.66699 9.66699 -9 17z" />
    <glyph glyph-name="parenleft" unicode="(" horiz-adv-x="270" 
d="M200 -303l-59.5 106.502c-21 39 -40.5 81.333 -58.5 127s-32.833 94.167 -44.5 145.5s-17.5 105 -17.5 161s5.83301 109.667 17.5 161s26.5 99.666 44.5 144.999s37.5 87.5 58.5 126.5l59.5 106.5h50c-17.333 -32.667 -33.333 -70.834 -48 -114.501
s-27.334 -89.667 -38.001 -138s-19 -97.166 -25 -146.499s-9 -96 -9 -140s3 -90.833 9 -140.5s14.333 -98.667 25 -147s23.334 -94.333 38.001 -138s30.667 -81.834 48 -114.501h-50z" />
    <glyph glyph-name="parenright" unicode=")" horiz-adv-x="270" 
d="M20 -303c17.333 32.667 33.333 70.832 48 114.499s27.334 89.667 38.001 138s19 97.333 25 147s9 96.5 9 140.5s-3 90.667 -9 140s-14.333 98.166 -25 146.499s-23.334 94.333 -38.001 138s-30.667 81.834 -48 114.501h50l59.5 -106.5c21 -39 40.5 -81.167 58.5 -126.5
s32.833 -93.666 44.5 -144.999s17.5 -105 17.5 -161s-5.83301 -109.667 -17.5 -161s-26.5 -99.833 -44.5 -145.5s-37.5 -88 -58.5 -127l-59.5 -106.5h-50z" />
    <glyph glyph-name="asterisk" unicode="*" horiz-adv-x="459" 
d="M421 427c5.33301 -2.66699 9.66309 -8.16113 12.9961 -16.4941s5 -17.166 5 -26.499c0 -11.333 -3.16699 -21.333 -9.5 -30s-16.166 -13 -29.499 -13c-14 0 -29.167 4 -45.5 12s-32.166 17.833 -47.499 29.5s-29.666 24.167 -42.999 37.5s-24.333 25.333 -33 36v-10
c0 -15.333 2.83301 -30.5 8.5 -45.5s11.667 -29.5 18 -43.5l18 -39.5c5.66699 -12.333 8.5 -23.166 8.5 -32.499c0 -4.66699 -1.66699 -9.66699 -5 -15s-7.83301 -10.166 -13.5 -14.499s-11.667 -7.83301 -18 -10.5s-12.5 -4 -18.5 -4c-11.333 0 -21.166 6 -29.499 18
s-12.5 32.333 -12.5 61c0 7.33301 0.666992 17.166 2 29.499s3.16602 25.5 5.49902 39.5s5 27.667 8 41s6.5 24.666 10.5 33.999c-1.33301 -1.33301 -2.66602 -2.33301 -3.99902 -3l-4 -2c-12.667 -7.33301 -24.334 -18.166 -35.001 -32.499l-31 -43
c-10 -14.333 -20 -26.833 -30 -37.5s-20 -16 -30 -16c-5.33301 0 -11.333 1 -18 3s-12.834 4.83301 -18.501 8.5s-10.5 8.16699 -14.5 13.5s-6 11.666 -6 18.999c0 9.33301 4 19.166 12 29.499s21.333 20.5 40 30.5c6.66699 4 15.667 8.5 27 13.5s23.666 10 36.999 15
s26.5 9.33301 39.5 13s24.167 6.16699 33.5 7.5c-1.33301 0.666992 -2.66602 1.5 -3.99902 2.5s-2.66602 1.83301 -3.99902 2.5c-13.333 7.33301 -27.833 12.333 -43.5 15s-31.167 4.66699 -46.5 6s-29.833 2.66602 -43.5 3.99902s-24.5 4.66602 -32.5 9.99902
c-5.33301 3.33301 -9.5 9.16602 -12.5 17.499s-4.5 17.166 -4.5 26.499c0 10.667 2.83301 20.334 8.5 29.001s15.167 13 28.5 13c16 0 35.333 -6.66699 58 -20c6.66699 -4 15.167 -9.66699 25.5 -17s21 -15.333 32 -24s21.333 -17.667 31 -27s17.5 -18 23.5 -26
c0.666992 1.33301 1 4.66602 1 9.99902c0 14.667 -2.83301 29.334 -8.5 44.001s-11.834 29 -18.501 43l-18.5 40c-5.66699 12.667 -8.5 24 -8.5 34c0 4.66699 1.83301 9.5 5.5 14.5s8.16699 9.66699 13.5 14s11.166 8 17.499 11s12.5 4.5 18.5 4.5
c12 0 22.167 -6.33301 30.5 -19s12.5 -33 12.5 -61c0 -7.33301 -0.666992 -17.333 -2 -30s-3.16602 -25.834 -5.49902 -39.501s-5.33301 -27.167 -9 -40.5s-7.5 -24.333 -11.5 -33c5.33301 1.33301 8.66602 3 9.99902 5c12.667 7.33301 24.334 18.166 35.001 32.499l31 43
c10 14.333 19.833 26.833 29.5 37.5s19.5 16 29.5 16c5.33301 0 11.333 -1 18 -3s13 -4.83301 19 -8.5s11 -8.16699 15 -13.5s6 -11.333 6 -18c0 -9.33301 -4 -19.166 -12 -29.499s-21.333 -20.833 -40 -31.5c-6.66699 -4 -15.667 -8.66699 -27 -14
s-23.666 -10.5 -36.999 -15.5s-26.5 -9.33301 -39.5 -13s-24.5 -5.83398 -34.5 -6.50098c1.33301 -1.33301 2.66602 -2.33301 3.99902 -3s2.66602 -1.66699 3.99902 -3c12.667 -7.33301 26.834 -12.333 42.501 -15s31.334 -4.66699 47.001 -6s30.334 -2.83301 44.001 -4.5
s24.5 -4.83398 32.5 -9.50098z" />
    <glyph glyph-name="plus" unicode="+" horiz-adv-x="593" 
d="M329 251v-211c0 -9.33301 -3.33301 -17 -10 -23s-14.334 -9 -23.001 -9c-8 0 -15.5 3 -22.5 9s-10.5 13.667 -10.5 23v211h-211c-9.33301 0 -17 3.33301 -23 10s-9 14.334 -9 23.001c0 8 3 15.5 9 22.5s13.667 10.5 23 10.5h211v212c0 9.33301 3.33301 17 10 23
s14.334 9 23.001 9c8 0 15.5 -3 22.5 -9s10.5 -13.667 10.5 -23v-212h212c9.33301 0 17 -3.33301 23 -10s9 -14.334 9 -23.001c0 -8 -3 -15.5 -9 -22.5s-13.667 -10.5 -23 -10.5h-212z" />
    <glyph glyph-name="comma" unicode="," horiz-adv-x="153" 
d="M29 67c1.33301 17.333 6.83301 29.668 16.5 37.001s21.5 11 35.5 11s26.167 -3.5 36.5 -10.5s15.5 -19.167 15.5 -36.5c0 -10 -1.66699 -22.833 -5 -38.5s-7.83301 -32.334 -13.5 -50.001s-12 -35 -19 -52s-14.5 -32.167 -22.5 -45.5
c-3.33301 -6.66699 -7.5 -12.167 -12.5 -16.5s-10.833 -6.5 -17.5 -6.5s-12.167 2 -16.5 6s-6.5 9.66699 -6.5 17z" />
    <glyph glyph-name="hyphen" unicode="-" horiz-adv-x="291" 
d="M43 230c-7.33301 0 -13 3.16699 -17 9.5s-6 13.166 -6 20.499s2 14.333 6 21s9.66699 10 17 10h206c7.33301 0 12.833 -3.33301 16.5 -10s5.5 -13.667 5.5 -21s-1.83301 -14.166 -5.5 -20.499s-9.16699 -9.5 -16.5 -9.5h-206z" />
    <glyph glyph-name="period" unicode="." horiz-adv-x="153" 
d="M20 47c0 15.333 5.5 28.666 16.5 39.999s24.167 17 39.5 17s28.666 -5.66699 39.999 -17s17 -24.666 17 -39.999s-5.66699 -28.5 -17 -39.5s-24.666 -16.5 -39.999 -16.5s-28.5 5.5 -39.5 16.5s-16.5 24.167 -16.5 39.5z" />
    <glyph glyph-name="slash" unicode="/" horiz-adv-x="513" 
d="M83 -157c-8 -11.333 -19.665 -17.001 -34.998 -17.001c-12.667 0 -22.167 4.16699 -28.5 12.5s-9.5 18.833 -9.5 31.5l421 904c3.33301 5.33301 8.16602 9.33301 14.499 12s12.166 4 17.499 4c14 0 24.167 -4.16699 30.5 -12.5s9.5 -18.166 9.5 -29.499z" />
    <glyph glyph-name="zero" unicode="0" horiz-adv-x="517" 
d="M20 350c0 59.333 5.66602 111.501 16.999 156.501s27.333 82.667 48 113s45.834 53.166 75.501 68.499s62.5 23 98.5 23c72.667 0 130.5 -30.5 173.5 -91.5s64.5 -150.833 64.5 -269.5s-21.5 -208.334 -64.5 -269.001s-100.833 -91 -173.5 -91s-130.667 30.333 -174 91
s-65 150.334 -65 269.001zM127.999 350.001c0 -99.333 12.333 -173.832 37 -223.499s56 -74.5 94 -74.5c18.667 0 36 6.33301 52 19s30 31.5 42 56.5s21.333 56 28 93s10 80.167 10 129.5s-3.33301 92.666 -10 129.999s-16 68.666 -28 93.999s-26 44.333 -42 57
s-33.333 19 -52 19c-38 0 -69.333 -25.167 -94 -75.5s-37 -125.166 -37 -224.499z" />
    <glyph glyph-name="one" unicode="1" horiz-adv-x="411" 
d="M299 139c0 -7.33301 3.49902 -15.834 10.499 -25.501s14.667 -19.167 23 -28.5s16 -18.333 23 -27s10.5 -15.334 10.5 -20.001c0 -5.33301 -4 -10.666 -12 -15.999s-17.833 -10.5 -29.5 -15.5s-24.167 -9 -37.5 -12s-25.333 -4.5 -36 -4.5c-14 0 -26.167 2.5 -36.5 7.5
s-15.5 15.167 -15.5 30.5v533c0 5.33301 -3.66699 7.33301 -11 6s-16.666 -4.66602 -27.999 -9.99902s-23.666 -12 -36.999 -20l-38.5 -23l-32.5 -19c-9.33301 -5.33301 -15.333 -8 -18 -8c-10 0 -15 5 -15 15c0 2.66699 5 9.66699 15 21s22.667 24.833 38 40.5
s32.166 32 50.499 49l53 47.5c17 14.667 32 26.667 45 36s21.833 14 26.5 14c14 0 26.167 -2.5 36.5 -7.5s15.5 -15.167 15.5 -30.5v-533z" />
    <glyph glyph-name="two" unicode="2" horiz-adv-x="519" 
d="M202 102l227 -0.00390625c6.66699 0 12.667 2.16699 18 6.5s10.5 9.16602 15.5 14.499l14 14.5c4.33301 4.33301 8.83301 6.5 13.5 6.5c5.33301 0 8.83301 -2 10.5 -6s2.5 -7.66699 2.5 -11c0 -4 -1.66699 -14.333 -5 -31s-7.33301 -34.334 -12 -53.001
s-9.5 -35.5 -14.5 -50.5s-9.5 -22.5 -13.5 -22.5s-7.5 1.5 -10.5 4.5s-6.16699 6.5 -9.5 10.5s-6.5 7.5 -9.5 10.5s-6.5 4.5 -10.5 4.5h-357c-4.66699 0 -9.33398 4 -14.001 12s-9 17.167 -13 27.5s-7.33301 20.5 -10 30.5s-4 17.333 -4 22c0 4 1.66699 7.5 5 10.5
s7.66602 6.5 12.999 10.5l46.5 33.5c20.333 14.333 42.5 30.833 66.5 49.5s48.833 39.5 74.5 62.5s48.834 47.333 69.501 73s37.667 52.834 51 81.501s20 58 20 88c0 22.667 -3.5 42.834 -10.5 60.501s-16 32.5 -27 44.5s-23.167 21 -36.5 27s-26 9 -38 9
c-14 0 -26 -1.33301 -36 -4s-18.667 -6.66699 -26 -12s-13.833 -11.666 -19.5 -18.999s-11.5 -15.666 -17.5 -24.999c-4.66699 -8 -9 -17.333 -13 -28l-12 -30.5c-4 -9.66699 -8.66699 -18 -14 -25s-11.666 -10.5 -18.999 -10.5c-6 0 -12.333 3 -19 9s-13 13.333 -19 22
s-10.833 18 -14.5 28s-5.5 19.333 -5.5 28s5 20.667 15 36s24.333 30.333 43 45s41.167 27.334 67.5 38.001s56.166 16 89.499 16c38.667 0 72.5 -5.33301 101.5 -16s53 -25.167 72 -43.5s33.333 -40.166 43 -65.499s14.5 -53 14.5 -83c0 -32 -6.83301 -62.5 -20.5 -91.5
s-31.167 -56.5 -52.5 -82.5s-45.333 -50.333 -72 -73s-53 -43.5 -79 -62.5l-72.5 -51c-22.333 -15 -40.166 -27.833 -53.499 -38.5l1 -4z" />
    <glyph glyph-name="three" unicode="3" horiz-adv-x="496" 
d="M52 112c6 0 13.498 -2.83301 22.498 -8.5s19.667 -11.834 32 -18.501s26.5 -12.834 42.5 -18.501s34 -8.5 54 -8.5c28 0 51.833 4.16699 71.5 12.5s35.5 19.333 47.5 33s20.833 29.334 26.5 47.001s8.5 36.167 8.5 55.5c0 22 -4 41.333 -12 58s-18.333 30.667 -31 42
s-27 20 -43 26s-32 9 -48 9h-25c-7.33301 0 -13 2.83301 -17 8.5s-6 12.167 -6 19.5s2 14 6 20s9.66699 9 17 9h19c12.667 0 26 3 40 9s26.667 14.5 38 25.5s20.666 24.667 27.999 41s11 35.166 11 56.499c0 16.667 -2.66699 31.834 -8 45.501
s-12.666 25.334 -21.999 35.001s-20 17.167 -32 22.5s-24.333 8 -37 8c-17.333 0 -31 -0.833008 -41 -2.5s-19.333 -4.16699 -28 -7.5s-15.667 -10.166 -21 -20.499s-10.166 -21 -14.499 -32s-9 -20.667 -14 -29s-11.167 -12.5 -18.5 -12.5c-6 0 -11.833 3 -17.5 9
s-10.834 13.333 -15.501 22s-8.33398 18 -11.001 28s-4 19.333 -4 28s5.16699 18 15.5 28s24 19.167 41 27.5s36.667 15.333 59 21s45.5 8.5 69.5 8.5c30.667 0 58.834 -3.5 84.501 -10.5s47.834 -17.333 66.501 -31s33.334 -30.334 44.001 -50.001s16 -42.167 16 -67.5
c0 -18.667 -3.5 -36.5 -10.5 -53.5s-16.333 -32.667 -28 -47s-25.167 -26.833 -40.5 -37.5s-31.333 -19 -48 -25c19.333 -6.66699 38.5 -15.167 57.5 -25.5s35.833 -22.833 50.5 -37.5s26.5 -31.5 35.5 -50.5s13.5 -40.5 13.5 -64.5c0 -26 -4.5 -52.167 -13.5 -78.5
s-23.667 -49.833 -44 -70.5s-47.333 -37.5 -81 -50.5s-75.167 -19.5 -124.5 -19.5c-26 0 -50.667 3.33301 -74 10s-43.833 14.834 -61.5 24.501s-31.667 20 -42 31s-15.5 20.833 -15.5 29.5c0 11.333 2.83301 18.666 8.5 21.999s13.5 5 23.5 5z" />
    <glyph glyph-name="four" unicode="4" horiz-adv-x="576" 
d="M56 206c-10.667 0 -19.333 2.50098 -26 7.50098s-10 11.833 -10 20.5c0 5.33301 1 10.833 3 16.5s6.33301 12.167 13 19.5l321 420c6.66699 7.33301 13.167 12.5 19.5 15.5s12.166 4.5 17.499 4.5c24.667 0 37 -12.667 37 -38v-406h29l54 10
c4 0 7.33301 -1.83301 10 -5.5s4.83398 -7.83398 6.50098 -12.501s3 -9.66699 4 -15s1.5 -9.33301 1.5 -12c0 -6.66699 -1.83301 -12.5 -5.5 -17.5s-9.16699 -7.5 -16.5 -7.5h-83v-67c0 -7.33301 3.5 -14.666 10.5 -21.999s14.667 -14.5 23 -21.5s16 -13.833 23 -20.5
s10.5 -12.334 10.5 -17.001c0 -5.33301 -4.5 -11.833 -13.5 -19.5s-20 -15 -33 -22s-26.667 -13.167 -41 -18.5s-26.833 -8 -37.5 -8c-14 0 -24.5 2.5 -31.5 7.5s-10.5 15.167 -10.5 30.5v178h-275zM331.001 522.001l10 67l-5 1l-213 -324h208v256z" />
    <glyph glyph-name="five" unicode="5" horiz-adv-x="494" 
d="M74 152c5.33301 0 9.83496 -3.83105 13.502 -11.498s7 -16.334 10 -26.001l9 -28c3 -9 6.5 -15.167 10.5 -18.5c10.667 -9.33301 21 -15.833 31 -19.5s22.667 -5.5 38 -5.5c49.333 0 88.5 13.833 117.5 41.5s43.5 71.5 43.5 131.5c0 29.333 -3.66699 54.166 -11 74.499
s-17.666 37 -30.999 50s-29 22.333 -47 28s-38 8.5 -60 8.5c-17.333 0 -31.833 -1.33301 -43.5 -4s-21.667 -5.66699 -30 -9s-15.333 -6.33301 -21 -9s-11.167 -4 -16.5 -4c-20.667 0 -31 12 -31 36l34 293c1.33301 10 5.16602 17.5 11.499 22.5s14.166 7.5 23.499 7.5
c4.66699 0 9.33398 -0.833008 14.001 -2.5s8 -4.16699 10 -7.5h246c4 0 7.66699 1.5 11 4.5l11 10c4 3.66699 8.33301 7 13 10s10 4.5 16 4.5c5.33301 0 9.33301 -2.5 12 -7.5s4 -9.83301 4 -14.5c0 -8.66699 -1 -20.334 -3 -35.001s-4.83301 -29 -8.5 -43s-8 -26 -13 -36
s-10.167 -15 -15.5 -15c-4 0 -7.33301 1 -10 3s-5.16699 4.33301 -7.5 7s-5 5 -8 7s-7.16699 3 -12.5 3h-235l-22 -174c15.333 3.33301 32.333 6.5 51 9.5s37.667 4.5 57 4.5c30 0 58.833 -4.16699 86.5 -12.5s52.167 -21.166 73.5 -38.499s38.5 -39.333 51.5 -66
s19.5 -58 19.5 -94c0 -30.667 -6.16699 -60.334 -18.5 -89.001s-29.833 -54 -52.5 -76s-50 -39.5 -82 -52.5s-68 -19.5 -108 -19.5c-34.667 0 -63.834 3.33301 -87.501 10s-42.667 14.834 -57 24.501s-24.666 20 -30.999 31s-9.5 20.833 -9.5 29.5
c0 6.66699 1.83301 14 5.5 22s8.16699 15.333 13.5 22s11.166 12.167 17.499 16.5s12.166 6.5 17.499 6.5z" />
    <glyph glyph-name="six" unicode="6" horiz-adv-x="509" 
d="M20 290c0 51.333 8.00391 102.006 24.0039 152.006s39.333 94.833 70 134.5s68.5 71.834 113.5 96.501s96.167 37 153.5 37c10 0 17.333 -3 22 -9s7 -12 7 -18s-2.33301 -12.167 -7 -18.5s-12 -9.5 -22 -9.5c-28 0 -54.833 -6.33301 -80.5 -19
s-48.834 -30.334 -69.501 -53.001s-37.834 -49.167 -51.501 -79.5s-22.834 -62.833 -27.501 -97.5c17.333 17.333 36.333 31.5 57 42.5s47.667 16.5 81 16.5c27.333 0 53 -5.66699 77 -17s45 -26.833 63 -46.5s32.333 -42.334 43 -68.001s16 -52.834 16 -81.501
c0 -36.667 -6 -70.834 -18 -102.501s-28.667 -59.334 -50 -83.001s-46.333 -42.334 -75 -56.001s-59.334 -20.5 -92.001 -20.5c-38.667 0 -72.5 8 -101.5 24s-53.333 37.667 -73 65s-34.5 59.166 -44.5 95.499s-15 74.833 -15 115.5zM138.004 242.006
c0 -29.333 3 -55.833 9 -79.5s14.333 -43.667 25 -60s23 -28.833 37 -37.5s29 -13 45 -13c32.667 0 60.334 13.833 83.001 41.5s34 69.5 34 125.5c0 61.333 -11.333 105.833 -34 133.5s-50.334 41.5 -83.001 41.5s-60.167 -13.167 -82.5 -39.5s-33.5 -63.833 -33.5 -112.5z
" />
    <glyph glyph-name="seven" unicode="7" horiz-adv-x="486" 
d="M99 598c-4 0 -8.33203 -3.00098 -12.999 -9.00098l-15 -19.5c-5.33301 -7 -11 -13.5 -17 -19.5s-12 -9 -18 -9c-5.33301 0 -9.33301 2.5 -12 7.5s-4 9.83301 -4 14.5c0 8.66699 1.66699 21.667 5 39s7.5 34.833 12.5 52.5s10.667 33 17 46s12.166 19.5 17.499 19.5
c4 0 7.33301 -1 10 -3s5.16699 -4.33301 7.5 -7s5 -5 8 -7s7.16699 -3 12.5 -3h302c7.33301 0 13.166 1.66699 17.499 5s10.166 5 17.499 5c4.66699 0 8.83398 -2.16699 12.501 -6.5s5.83398 -9.16602 6.50098 -14.499l-232 -664c-5.33301 -12.667 -12.333 -21.667 -21 -27
s-23.667 -8 -45 -8c-14.667 0 -26 4 -34 12s-12 15.667 -12 23c0 1.33301 0.666992 3.33301 2 6l254 567h-279z" />
    <glyph glyph-name="eight" unicode="8" horiz-adv-x="510" 
d="M90 547c0 22 3.83105 42.835 11.498 62.502s18.834 37 33.501 52s32.834 26.833 54.501 35.5s46.834 13 75.501 13s53.834 -4.16699 75.501 -12.5s40 -19.833 55 -34.5s26.333 -32 34 -52s11.5 -41.333 11.5 -64c0 -15.333 -3.33301 -30 -10 -44s-15.834 -27 -27.501 -39
s-24.834 -22.333 -39.501 -31s-30 -15.334 -46 -20.001c22.667 -12 45 -25.333 67 -40s41.5 -31 58.5 -49s30.667 -38 41 -60s15.5 -46.667 15.5 -74s-5.66699 -53.166 -17 -77.499s-27.166 -45.5 -47.499 -63.5s-45 -32.333 -74 -43s-61.167 -16 -96.5 -16
s-67.5 5.33301 -96.5 16s-53.833 25 -74.5 43s-36.5 39.167 -47.5 63.5s-16.5 50.166 -16.5 77.499c0 25.333 5.16699 48.666 15.5 69.999s23.666 40 39.999 56s34.833 29.5 55.5 40.5s41 18.833 61 23.5c-15.333 10.667 -29.833 21.5 -43.5 32.5s-25.5 23 -35.5 36
s-18 27.5 -24 43.5s-9 34.333 -9 55zM148.998 190.002c0 -46 9.83301 -82.167 29.5 -108.5s48.5 -39.5 86.5 -39.5s67 13.167 87 39.5s30 62.5 30 108.5c0 18 -5 35.5 -15 52.5s-22.333 33 -37 48s-30.167 28.5 -46.5 40.5s-30.833 21.333 -43.5 28
c-28.667 -18 -51 -40.667 -67 -68s-24 -61 -24 -101zM192.998 557.002c0 -21.333 6.83105 -42.332 20.498 -62.999s34.167 -39.667 61.5 -57c18.667 15.333 33.834 33.166 45.501 53.499s17.5 42.5 17.5 66.5c0 30 -6.33301 54.667 -19 74s-30.667 29 -54 29
s-41.166 -9.66699 -53.499 -29s-18.5 -44 -18.5 -74z" />
    <glyph glyph-name="nine" unicode="9" horiz-adv-x="509" 
d="M489 410c0 -51.333 -7.99805 -102.006 -23.998 -152.006s-39.333 -94.833 -70 -134.5s-68.5 -71.834 -113.5 -96.501s-96.167 -37 -153.5 -37c-10 0 -17.333 3 -22 9s-7 12 -7 18s2.33301 12.167 7 18.5s12 9.5 22 9.5c28 0 54.833 6.33301 80.5 19
s48.667 30.334 69 53.001s37.5 49 51.5 79s23.333 62.667 28 98c-17.333 -17.333 -36.333 -31.5 -57 -42.5s-47.667 -16.5 -81 -16.5c-27.333 0 -53 5.66699 -77 17s-45 26.833 -63 46.5s-32.333 42.334 -43 68.001s-16 52.834 -16 81.501c0 36.667 6 70.834 18 102.501
s28.667 59.334 50 83.001s46.166 42.334 74.499 56.001s59.166 20.5 92.499 20.5c38.667 0 72.5 -8 101.5 -24s53.333 -37.667 73 -65s34.5 -59.166 44.5 -95.499s15 -74.833 15 -115.5zM371.002 457.994c0 29.333 -3 55.833 -9 79.5s-14.333 43.667 -25 60
s-23 28.833 -37 37.5s-29 13 -45 13c-32.667 0 -60.334 -13.833 -83.001 -41.5s-34 -69.5 -34 -125.5c0 -61.333 11.333 -105.833 34 -133.5s50.334 -41.5 83.001 -41.5s60.167 13.167 82.5 39.5s33.5 63.833 33.5 112.5z" />
    <glyph glyph-name="colon" unicode=":" horiz-adv-x="153" 
d="M20 367c0 15.333 5.5 28.666 16.5 39.999s24.167 17 39.5 17s28.666 -5.66699 39.999 -17s17 -24.666 17 -39.999s-5.66699 -28.5 -17 -39.5s-24.666 -16.5 -39.999 -16.5s-28.5 5.5 -39.5 16.5s-16.5 24.167 -16.5 39.5zM20 47c0 15.333 5.5 28.666 16.5 39.999
s24.167 17 39.5 17s28.666 -5.66699 39.999 -17s17 -24.666 17 -39.999s-5.66699 -28.5 -17 -39.5s-24.666 -16.5 -39.999 -16.5s-28.5 5.5 -39.5 16.5s-16.5 24.167 -16.5 39.5z" />
    <glyph glyph-name="semicolon" unicode=";" horiz-adv-x="163" 
d="M30 367c0 15.333 5.5 28.666 16.5 39.999s24.167 17 39.5 17s28.666 -5.66699 39.999 -17s17 -24.666 17 -39.999s-5.66699 -28.5 -17 -39.5s-24.666 -16.5 -39.999 -16.5s-28.5 5.5 -39.5 16.5s-16.5 24.167 -16.5 39.5zM29 67
c1.33301 17.333 6.83301 29.668 16.5 37.001s21.5 11 35.5 11s26.167 -3.5 36.5 -10.5s15.5 -19.167 15.5 -36.5c0 -10 -1.66699 -22.833 -5 -38.5s-7.83301 -32.334 -13.5 -50.001s-12 -35 -19 -52s-14.5 -32.167 -22.5 -45.5c-3.33301 -6.66699 -7.5 -12.167 -12.5 -16.5
s-10.833 -6.5 -17.5 -6.5s-12.167 2 -16.5 6s-6.5 9.66699 -6.5 17z" />
    <glyph glyph-name="less" unicode="&#x3c;" horiz-adv-x="400" 
d="M354 71c4 -2.66699 8.49902 -6.99707 13.499 -12.9971s7.5 -13 7.5 -21c0 -16 -6 -28.167 -18 -36.5s-23.667 -12.5 -35 -12.5s-21.666 3.33301 -30.999 10l-268 188c-3.33301 2.66699 -6.66602 6.83398 -9.99902 12.501s-5 11.167 -5 16.5
c0 7.33301 2.5 14.166 7.5 20.499s9.5 11.166 13.5 14.499l263 187c7.33301 5.33301 14.833 8.83301 22.5 10.5s14.834 2.5 21.501 2.5c13.333 0 22.666 -3.16699 27.999 -9.5s8 -13.833 8 -22.5c0 -4.66699 -1.33301 -9.83398 -4 -15.501s-7.33398 -10.834 -14.001 -15.501
l-229 -159z" />
    <glyph glyph-name="equal" unicode="=" horiz-adv-x="593" 
d="M52 341c-9.33301 0 -17 3.33301 -23 10s-9 14.334 -9 23.001c0 8 3 15.5 9 22.5s13.667 10.5 23 10.5h489c9.33301 0 17 -3.33301 23 -10s9 -14.334 9 -23.001c0 -8 -3 -15.5 -9 -22.5s-13.667 -10.5 -23 -10.5h-489zM52 151c-9.33301 0 -17 3.33301 -23 10
s-9 14.334 -9 23.001c0 8 3 15.5 9 22.5s13.667 10.5 23 10.5h489c9.33301 0 17 -3.33301 23 -10s9 -14.334 9 -23.001c0 -8 -3 -15.5 -9 -22.5s-13.667 -10.5 -23 -10.5h-489z" />
    <glyph glyph-name="greater" unicode="&#x3e;" horiz-adv-x="400" 
d="M29 367c-4 2.66699 -8.49902 6.99707 -13.499 12.9971s-7.5 13 -7.5 21c0 16 6 28.167 18 36.5s23.667 12.5 35 12.5s21.666 -3.33301 30.999 -10l268 -188c3.33301 -2.66699 6.66602 -6.83398 9.99902 -12.501s5 -11.167 5 -16.5c0 -7.33301 -2.5 -14.166 -7.5 -20.499
s-9.5 -11.166 -13.5 -14.499l-263 -187c-7.33301 -5.33301 -14.833 -8.83301 -22.5 -10.5s-14.834 -2.5 -21.501 -2.5c-13.333 0 -22.666 3.16699 -27.999 9.5s-8 13.833 -8 22.5c0 4.66699 1.33301 9.83398 4 15.501s7.33398 10.834 14.001 15.501l229 159z" />
    <glyph glyph-name="question" unicode="?" horiz-adv-x="438" 
d="M242 274c-10.667 -13.333 -18.3369 -28.6709 -23.0039 -46.0039s-7.66699 -32.666 -9 -45.999c-15.333 0 -27.666 2 -36.999 6s-16.833 9.16699 -22.5 15.5s-9.5 13.333 -11.5 21s-3 14.834 -3 21.501c0 11.333 2.66699 22 8 32s10 17.333 14 22
c14 16.667 29.833 32.834 47.5 48.501s34 32.5 49 50.5s27.667 37.667 38 59s15.5 45.666 15.5 72.999c0 36.667 -7.16699 64.334 -21.5 83.001s-38.166 28 -71.499 28c-8.66699 0 -15.667 -0.333008 -21 -1s-10.166 -1.66699 -14.499 -3s-9 -3.33301 -14 -6l-19.5 -10
c-8 -4 -14.167 -11.167 -18.5 -21.5s-8.16602 -20.833 -11.499 -31.5s-7 -20.167 -11 -28.5s-9.66699 -12.5 -17 -12.5c-6 0 -13 3 -21 9s-15.5 13.333 -22.5 22s-12.833 18 -17.5 28s-7 19.333 -7 28s4.5 18.5 13.5 29.5s22 21.333 39 31s37.5 17.834 61.5 24.501
s51 10 81 10c36.667 0 67.834 -4.33301 93.501 -13s46.667 -20.5 63 -35.5s28.166 -32.667 35.499 -53s11 -41.833 11 -64.5c0 -30 -6.5 -57.5 -19.5 -82.5s-28.667 -48.5 -47 -70.5s-37.5 -42.5 -57.5 -61.5s-37.333 -37.5 -52 -55.5zM128.997 46.9951
c0 15.333 5.5 28.666 16.5 39.999s24.167 17 39.5 17s28.666 -5.66699 39.999 -17s17 -24.666 17 -39.999s-5.66699 -28.5 -17 -39.5s-24.666 -16.5 -39.999 -16.5s-28.5 5.5 -39.5 16.5s-16.5 24.167 -16.5 39.5z" />
    <glyph glyph-name="at" unicode="@" horiz-adv-x="921" 
d="M649 91c0 -14.667 4.16602 -27.6631 12.499 -38.9961s18.5 -17 30.5 -17c40.667 0 69.834 17 87.501 51s26.5 90.667 26.5 170c0 54 -7.16699 104.667 -21.5 152s-36 88.666 -65 123.999s-65.167 63.166 -108.5 83.499s-94 30.5 -152 30.5
c-50 0 -96.167 -10.5 -138.5 -31.5s-78.833 -50.833 -109.5 -89.5s-54.667 -85.334 -72 -140.001s-26 -115.667 -26 -183c0 -58.667 8.66699 -111 26 -157s41.5 -84.833 72.5 -116.5s67.5 -55.834 109.5 -72.501s88 -25 138 -25c52.667 0 95.667 3.83301 129 11.5
s60 16.167 80 25.5s35 17.833 45 25.5s18.333 11.5 25 11.5c10.667 0 16 -5.33301 16 -16c0 -7.33301 -2.5 -15.166 -7.5 -23.499s-12.833 -16.166 -23.5 -23.499c-36.667 -26.667 -77.5 -47 -122.5 -61s-92.167 -21 -141.5 -21c-63.333 0 -121.666 8.83301 -174.999 26.5
s-99.666 44.167 -138.999 79.5s-70 79.833 -92 133.5s-33 116.5 -33 188.5c0 79.333 10.667 150.666 32 213.999s51.333 117 90 161s85 77.833 139 101.5s113.333 35.5 178 35.5c69.333 0 131.333 -11.5 186 -34.5s101 -54.5 139 -94.5s67 -86.833 87 -140.5
s30 -111.167 30 -172.5c0 -34 -4.66699 -67 -14 -99s-22.833 -60.5 -40.5 -85.5s-39 -45.167 -64 -60.5s-52.833 -23 -83.5 -23c-19.333 0 -36 3.33301 -50 10s-25.833 15.5 -35.5 26.5s-17.334 23.667 -23.001 38s-9.5 29.166 -11.5 44.499
c-14 -37.333 -34 -66.5 -60 -87.5s-57 -31.5 -93 -31.5c-27.333 0 -51.833 5.16699 -73.5 15.5s-40.167 24.5 -55.5 42.5s-27.166 39 -35.499 63s-12.5 50 -12.5 78c0 39.333 5.33301 74.833 16 106.5s25.667 58.667 45 81s42.166 39.5 68.499 51.5s55.166 18 86.499 18
c18 0 33.5 -0.333008 46.5 -1s24.667 -1.5 35 -2.5s20.333 -2.5 30 -4.5s20.167 -4 31.5 -6c9.33301 -2 18.5 -5.33301 27.5 -10s13.5 -11.667 13.5 -21v-310zM558.999 383.004c-16.667 3.33301 -33.5 5.66699 -50.5 7s-32.167 2 -45.5 2c-38 0 -67.5 -16.667 -88.5 -50
s-31.5 -79.333 -31.5 -138c0 -20 1.66699 -39.167 5 -57.5s8.83301 -34.5 16.5 -48.5s17.667 -25.167 30 -33.5s27.833 -12.5 46.5 -12.5c19.333 0 36.333 5.83301 51 17.5s27 27.5 37 47.5s17.5 43.333 22.5 70s7.5 55 7.5 85v111z" />
    <glyph glyph-name="A" unicode="A" horiz-adv-x="775" 
d="M260 691c0 5.33301 4.83105 10.333 14.498 15s21.667 8.83398 36 12.501s30 6.5 47 8.5s32.5 3 46.5 3c23.333 0 40 -3.5 50 -10.5s16.667 -15.5 20 -25.5l211 -641c2 -7.33301 7.33301 -14.166 16 -20.499l27.5 -19.5c9.66699 -6.66699 18.167 -13.167 25.5 -19.5
s11 -12.833 11 -19.5c0 -6 -3.16699 -11.833 -9.5 -17.5s-14.666 -10.5 -24.999 -14.5s-22 -7.16699 -35 -9.5s-25.833 -3.5 -38.5 -3.5c-11.333 0 -22.166 1.83301 -32.499 5.5s-17.166 10.167 -20.499 19.5l-73 216c-12.667 1.33301 -27.667 2.5 -45 3.5s-34 1.5 -50 1.5
c-15.333 0 -33 -1.33301 -53 -4s-40.5 -6.66699 -61.5 -12s-41.167 -12 -60.5 -20s-36.333 -17 -51 -27l-35 -95c10 -4 20.5 -8.5 31.5 -13.5s20.833 -10 29.5 -15s15.834 -10.167 21.501 -15.5s8.5 -10 8.5 -14c0 -4.66699 -3.83301 -8.83398 -11.5 -12.501
s-18.334 -6.83398 -32.001 -9.50098s-29.667 -4.66699 -48 -6s-38.166 -2 -59.499 -2c-14 0 -27.333 0.666992 -40 2s-23.834 3.33301 -33.501 6s-17.334 5.83398 -23.001 9.50098s-8.5 7.83398 -8.5 12.501c0 9.33301 7.66699 19.166 23 29.499s34 19.833 56 28.5l220 581
c0 8 -2.5 16 -7.5 24s-10.667 16 -17 24s-12 15.667 -17 23s-7.5 14.666 -7.5 21.999zM230.998 168c11.333 10 24.499 19.668 39.499 29.001s30.833 17.666 47.5 24.999s34.167 13.333 52.5 18s36.5 7 54.5 7c16.667 0 31.834 -1 45.501 -3s26.167 -4.33301 37.5 -7
l-119 354z" />
    <glyph glyph-name="B" unicode="B" horiz-adv-x="658" 
d="M85 576c0 10 -3.83398 19.3301 -11.501 27.9971s-16.334 16.834 -26.001 24.501s-18.334 15 -26.001 22s-11.5 14.5 -11.5 22.5s5.5 14.833 16.5 20.5s25.5 10.667 43.5 15s38 7.83301 60 10.5s44 4.83398 66 6.50098s42.833 2.83398 62.5 3.50098s35.834 1 48.501 1
c48.667 0 89.834 -4.5 123.501 -13.5s61 -21.5 82 -37.5s36.167 -35.333 45.5 -58s14 -47.667 14 -75c0 -40.667 -11.667 -76.5 -35 -107.5s-53.666 -54.833 -90.999 -71.5c21.333 -6.66699 42.333 -15.834 63 -27.501s39 -25.667 55 -42s29 -34.833 39 -55.5s15 -43 15 -67
c0 -35.333 -7 -68.166 -21 -98.499s-34.5 -56.5 -61.5 -78.5s-60.667 -39.333 -101 -52s-86.5 -19 -138.5 -19c-33.333 0 -62.5 1 -87.5 3s-53.167 5 -84.5 9c-26 4 -39 13.667 -39 29v608zM306.999 670.997c-17.333 0 -34.832 -0.666016 -52.499 -1.99902
s-36.167 -3 -55.5 -5v-282h115c44.667 0 79.167 13 103.5 39s36.5 62.333 36.5 109c0 19.333 -2.5 37.666 -7.5 54.999s-13.333 32.333 -25 45s-26.834 22.667 -45.501 30s-41.667 11 -69 11zM492 144.998c0 61.333 -15.167 106.334 -45.5 135.001s-71.5 43 -123.5 43h-124
v-334l51.5 -5.5c16.333 -1.66699 35.166 -2.5 56.499 -2.5c26 0 50.333 4.16699 73 12.5s42.334 19.666 59.001 33.999s29.667 31.5 39 51.5s14 42 14 66z" />
    <glyph glyph-name="C" unicode="C" horiz-adv-x="691" 
d="M649 96c2.66699 0 5.33496 -1.00195 8.00195 -3.00195s4 -4.66699 4 -8c0 -15.333 -6.16699 -32.166 -18.5 -50.499s-30 -35.333 -53 -51s-50.5 -28.834 -82.5 -39.501s-67.667 -16 -107 -16c-55.333 0 -105.333 8.5 -150 25.5s-82.5 42 -113.5 75
s-54.833 73.833 -71.5 122.5s-25 104.334 -25 167.001c0 60 9 115.167 27 165.5s43.667 93.666 77 129.999s73.166 64.833 119.499 85.5s98.166 31 155.499 31c30 0 57.833 -1.5 83.5 -4.5s47.834 -7.5 66.501 -13.5s33.334 -13.167 44.001 -21.5s16 -17.833 16 -28.5
c0 -6 -3.33301 -13.833 -10 -23.5s-14.834 -19 -24.501 -28s-20.167 -16.833 -31.5 -23.5s-21.333 -10 -30 -10c-13.333 0 -25 4.33301 -35 13s-19.667 18.334 -29 29.001s-19.333 20.334 -30 29.001s-23.334 13 -38.001 13c-29.333 0 -58.333 -5.83301 -87 -17.5
s-54.334 -29.5 -77.001 -53.5s-41 -54.333 -55 -91s-21 -80 -21 -130c0 -57.333 6.83301 -108.166 20.5 -152.499s32.5 -81.666 56.5 -111.999s52 -53.333 84 -69s66 -23.5 102 -23.5c25.333 0 48.333 2.5 69 7.5s39.334 11.167 56.001 18.5s31 15.166 43 23.499
s22.333 15.833 31 22.5c6 5.33301 10.667 8.66602 14 9.99902s7.33301 2 12 2z" />
    <glyph glyph-name="D" unicode="D" horiz-adv-x="780" 
d="M85 576c0 8 -3.83105 16.168 -11.498 24.501s-16.334 16.666 -26.001 24.999s-18.334 16.5 -26.001 24.5s-11.5 15.667 -11.5 23c0 8.66699 9.66699 16.5 29 23.5s45.333 13 78 18s70.334 8.83301 113.001 11.5s87 4 133 4c64 0 119.5 -9.33301 166.5 -28
s86.167 -45 117.5 -79s54.666 -74.5 69.999 -121.5s23 -98.833 23 -155.5c0 -61.333 -9.66699 -117.666 -29 -168.999s-46.333 -95.5 -81 -132.5s-76.167 -65.833 -124.5 -86.5s-101.166 -31 -158.499 -31c-43.333 0 -81.333 1.16699 -114 3.5
s-65.334 5.16602 -98.001 8.49902c-33.333 4 -50 16.667 -50 38v599zM348.002 660.001c-30 0 -57.165 -1 -81.498 -3s-46.166 -4.33301 -65.499 -7v-642c28 -3.33301 53.667 -6 77 -8s41 -3 53 -3c43.333 0 82.666 8.16699 117.999 24.5s65.666 38.833 90.999 67.5
s44.833 62.667 58.5 102s20.5 82 20.5 128c0 44.667 -6.16699 87.5 -18.5 128.5s-30 77.167 -53 108.5s-51.333 56.5 -85 75.5s-71.834 28.5 -114.501 28.5z" />
    <glyph glyph-name="E" unicode="E" horiz-adv-x="661" 
d="M199 328l0.000976562 -301.996c0 -20 4.66699 -30 14 -30c54 0 105.333 0.666992 154 2s90.667 4.66602 126 9.99902c7.33301 0.666992 14.166 5.16699 20.499 13.5l19.5 26.5c6.66699 9.33301 13.334 17.833 20.001 25.5s14 11.5 22 11.5c6 0 12.167 -4.5 18.5 -13.5
s12.333 -20 18 -33s10.334 -26.333 14.001 -40s5.5 -25.5 5.5 -35.5c0 -11.333 -3.16699 -19.833 -9.5 -25.5s-18.166 -8.5 -35.499 -8.5h-457c-15.333 0 -26.5 2.16699 -33.5 6.5s-10.5 12.166 -10.5 23.499v617c0 10 -3.83301 18.833 -11.5 26.5
s-16.334 15.334 -26.001 23.001s-18.334 15.167 -26.001 22.5s-11.5 15.666 -11.5 24.999c0 6 5 11.833 15 17.5s22 10.667 36 15s28.833 7.83301 44.5 10.5s29.167 4 40.5 4h344c5.33301 0 11.666 3.5 18.999 10.5s16 10.5 26 10.5c6.66699 0 13 -7 19 -21
s11.333 -30.167 16 -48.5s8.33398 -36.5 11.001 -54.5s4 -30.667 4 -38c0 -10 -1.33301 -17.833 -4 -23.5s-8 -8.5 -16 -8.5c-4 0 -8.66699 1.83301 -14 5.5s-12.166 9.5 -20.499 17.5s-18.5 18.333 -30.5 31l-45 47c-34 5.33301 -71.667 8.83301 -113 10.5
s-89 2.5 -143 2.5v-270h196c6 0 11.333 2.33301 16 7s9 10 13 16s8.16699 11.333 12.5 16s9.16602 7 14.499 7c6.66699 0 13.334 -7 20.001 -21s12.5 -30 17.5 -48s9 -35.333 12 -52s4.5 -27.334 4.5 -32.001c0 -9.33301 -5 -14 -15 -14
c-2.66699 0 -5.33398 0.666992 -8.00098 2s-6.83398 4.16602 -12.501 8.49902l-22.5 18l-37 29.5h-211z" />
    <glyph glyph-name="F" unicode="F" horiz-adv-x="604" 
d="M199 328l-0.00195312 -245.002c0 -12 3 -23.167 9 -33.5s12.667 -20.166 20 -29.499s14 -18.333 20 -27s9 -17 9 -25c0 -4 -4.16699 -8.33301 -12.5 -13s-18.833 -9.16699 -31.5 -13.5s-26.167 -7.83301 -40.5 -10.5s-27.5 -4 -39.5 -4c-16.667 0 -29 2.16699 -37 6.5
s-12 12.166 -12 23.499v620c0 7.33301 -3.83301 15.333 -11.5 24s-16.167 17.334 -25.5 26.001s-17.833 17 -25.5 25s-11.5 15.333 -11.5 22c0 5.33301 4.83301 10.833 14.5 16.5s21.334 10.667 35.001 15s27.834 7.83301 42.501 10.5s26.667 4 36 4h352
c5.33301 0 11.833 3.5 19.5 10.5s16.167 10.5 25.5 10.5c6.66699 0 13 -6.83301 19 -20.5s11.167 -29.5 15.5 -47.5s7.83301 -35.833 10.5 -53.5s4 -30.167 4 -37.5c0 -10 -1.33301 -17.833 -4 -23.5s-7.66699 -8.5 -15 -8.5c-6.66699 0 -14.334 4.66699 -23.001 14l-28 31
l-30.5 33c-10.333 10.667 -20.166 17 -29.499 19c-12 2.66699 -27 5 -45 7s-38.167 3.33301 -60.5 4s-46.166 1.16699 -71.499 1.5s-51.333 0.5 -78 0.5v-268h195c4.66699 0 9.16699 2.33301 13.5 7s8.66602 10 12.999 16s8.83301 11.333 13.5 16s10 7 16 7
c4 0 8.33301 -3.33301 13 -10s9 -15.167 13 -25.5s7.66699 -21.666 11 -33.999s6.33301 -24.333 9 -36s4.66699 -22 6 -31s2 -15.5 2 -19.5c0 -7.33301 -4.66699 -11 -14 -11c-2.66699 0 -7.5 3 -14.5 9l-23 19.5c-8.33301 7 -16.5 13.5 -24.5 19.5s-14 9 -18 9h-211z" />
    <glyph glyph-name="G" unicode="G" horiz-adv-x="791" 
d="M706 -71c0 -11.333 -2.32617 -20.3359 -6.99316 -27.0029s-12.334 -10 -23.001 -10c-9.33301 0 -17.833 4.33301 -25.5 13s-14.667 19 -21 31s-12 24.5 -17 37.5s-9.5 23.5 -13.5 31.5c-9.33301 -8.66699 -20.833 -17.667 -34.5 -27s-29.334 -17.666 -47.001 -24.999
s-37.334 -13.5 -59.001 -18.5s-45.167 -7.5 -70.5 -7.5c-40.667 0 -81.667 7 -123 21s-78.666 36.5 -111.999 67.5s-60.5 71.167 -81.5 120.5s-31.5 109.666 -31.5 180.999c0 60 9 115.167 27 165.5s43.667 93.833 77 130.5s73.166 65.334 119.499 86.001
s98.166 31 155.499 31c30 0 59.5 -2.5 88.5 -7.5s55.167 -11.667 78.5 -20s42.166 -17.666 56.499 -27.999s21.5 -20.833 21.5 -31.5c0 -6 -3.33301 -13.833 -10 -23.5s-14.834 -19 -24.501 -28s-20 -16.833 -31 -23.5s-20.833 -10 -29.5 -10c-13.333 0 -25 5.33301 -35 16
l-32 35.5c-11.333 13 -24.833 25 -40.5 36s-35.834 16.5 -60.501 16.5c-30 0 -58.833 -6.33301 -86.5 -19s-52.167 -31.834 -73.5 -57.501s-38.333 -57.334 -51 -95.001s-19 -81.5 -19 -131.5c0 -57.333 6.83301 -108.166 20.5 -152.499s31.334 -81.666 53.001 -111.999
s46.167 -53.5 73.5 -69.5s55 -24 83 -24c26 0 50.5 3.66699 73.5 11s43.167 17.166 60.5 29.499s31 26.333 41 42s15 31.834 15 48.501v90c0 10.667 -3.83301 19.667 -11.5 27s-16.334 13.833 -26.001 19.5s-18.334 11.167 -26.001 16.5s-11.5 11.333 -11.5 18
c0 4.66699 5.16699 10.5 15.5 17.5s22.833 14 37.5 21s30.167 13 46.5 18s30.5 7.5 42.5 7.5c16.667 0 28.834 -2.16699 36.501 -6.5s11.5 -12.166 11.5 -23.499v-408z" />
    <glyph glyph-name="H" unicode="H" horiz-adv-x="781" 
d="M581 320c-15.333 4 -35.167 7.5 -59.5 10.5s-46.166 4.5 -65.499 4.5c-16.667 0 -36.5 -1.5 -59.5 -4.5s-46.667 -7.5 -71 -13.5s-47.5 -13.333 -69.5 -22s-40.333 -18.667 -55 -30v-182c0 -10.667 4 -21.167 12 -31.5s16.667 -20.333 26 -30l26 -28
c8 -9 12 -17.5 12 -25.5c0 -4 -5.16699 -8.33301 -15.5 -13s-23 -9.16699 -38 -13.5s-30.5 -7.83301 -46.5 -10.5s-30 -4 -42 -4c-17.333 0 -30 2.16699 -38 6.5s-12 12.166 -12 23.499v619c0 8.66699 -3.83301 16.834 -11.5 24.501s-16.334 15.5 -26.001 23.5
s-18.334 16.5 -26.001 25.5s-11.5 18.833 -11.5 29.5c0 4 5.16699 8.33301 15.5 13s23 9.16699 38 13.5s30.5 7.83301 46.5 10.5s30 4 42 4c17.333 0 29.833 -2.16699 37.5 -6.5s11.5 -12.166 11.5 -23.499v-382c10.667 10.667 25.167 22 43.5 34s38.5 22.667 60.5 32
s45 17.166 69 23.499s47.667 9.5 71 9.5c32 0 59 -2.5 81 -7.5s40.333 -11.5 55 -19.5v196c0 8 -4 16.167 -12 24.5l-26 26c-9.33301 9 -18 18 -26 27s-12 17.5 -12 25.5c0 4 5.16699 8.33301 15.5 13s22.833 9.16699 37.5 13.5s30.334 7.83301 47.001 10.5s31 4 43 4
c15.333 0 27.166 -2.16699 35.499 -6.5s12.5 -12.166 12.5 -23.499v-607c0 -10 3.83301 -20 11.5 -30s16.334 -20 26.001 -30s18.334 -19.667 26.001 -29s11.5 -18 11.5 -26c0 -4 -5.16699 -8.33301 -15.5 -13s-22.833 -9.16699 -37.5 -13.5s-30.167 -7.83301 -46.5 -10.5
s-30.5 -4 -42.5 -4c-16.667 0 -28.834 2.16699 -36.501 6.5s-11.5 12.166 -11.5 23.499v363z" />
    <glyph glyph-name="I" unicode="I" horiz-adv-x="285" 
d="M85 566c0 12 -3.83301 23.0039 -11.5 33.0039s-16.334 19.667 -26.001 29s-18.334 18.166 -26.001 26.499s-11.5 16.5 -11.5 24.5c0 4 5.16699 8.33301 15.5 13s23.333 9.16699 39 13.5s32.667 7.83301 51 10.5s35.5 4 51.5 4c22.667 0 40.667 -2 54 -6s20 -10 20 -18
c0 -6.66699 -2.16699 -14.5 -6.5 -23.5s-9 -18.167 -14 -27.5s-9.66699 -18.5 -14 -27.5s-6.5 -16.5 -6.5 -22.5v-514c0 -8 3.83301 -17 11.5 -27s16.334 -20.167 26.001 -30.5s18.334 -20.333 26.001 -30s11.5 -18.167 11.5 -25.5c0 -4 -4.5 -8.33301 -13.5 -13
s-21 -9.16699 -36 -13.5s-31.833 -7.83301 -50.5 -10.5s-38 -4 -58 -4c-8 0 -16.167 0.333008 -24.5 1s-16 2 -23 4s-12.667 4.66699 -17 8s-6.5 7.66602 -6.5 12.999c0 7.33301 2 15 6 23s8.5 16.167 13.5 24.5s9.5 16.666 13.5 24.999s6 17.166 6 26.499v514z" />
    <glyph glyph-name="J" unicode="J" horiz-adv-x="296" 
d="M211 -28c0 -51.333 -6.66602 -96.3291 -19.999 -134.996s-29.333 -71 -48 -97s-37.5 -45.5 -56.5 -58.5s-34.5 -19.5 -46.5 -19.5c-5.33301 0 -9.83301 0.833008 -13.5 2.5s-5.5 4.16699 -5.5 7.5c0 2.66699 1.66699 7 5 13l16 29c6 10.667 12 23.167 18 37.5
s11.667 31.666 17 51.999s9.66602 43.666 12.999 69.999s5 56.833 5 91.5v614c0 6.66699 -4.5 14 -13.5 22s-18.667 16.167 -29 24.5s-20 17 -29 26s-13.5 17.5 -13.5 25.5c0 5.33301 4.5 10.666 13.5 15.999s20.333 10.166 34 14.499s28.167 7.83301 43.5 10.5
s29.333 4 42 4c22.667 0 39.667 -3.16699 51 -9.5s17 -18.5 17 -36.5v-704z" />
    <glyph glyph-name="K" unicode="K" horiz-adv-x="719" 
d="M84 576c0 8.66699 -3.83594 16.834 -11.5029 24.501s-16.167 15.5 -25.5 23.5s-17.833 16.333 -25.5 25s-11.5 18.667 -11.5 30c0 4 5.16699 8.33301 15.5 13s22.833 9.16699 37.5 13.5s30.167 7.83301 46.5 10.5s30.5 4 42.5 4c16.667 0 28.834 -2.16699 36.501 -6.5
s11.5 -12.166 11.5 -23.499v-370l285 314c-2.66699 2.66699 -7.16699 6.66699 -13.5 12l-19.5 16.5c-6.66699 5.66699 -12.5 11.167 -17.5 16.5s-7.5 9.66602 -7.5 12.999c0 4 4.83301 7.66699 14.5 11s21.834 6.16602 36.501 8.49902s30.167 4.33301 46.5 6
s31.5 2.5 45.5 2.5c28.667 0 51.5 -2.83301 68.5 -8.5s25.5 -11.167 25.5 -16.5c0 -6 -2.66699 -11.667 -8 -17s-11.5 -10.5 -18.5 -15.5s-14 -9.66699 -21 -14s-12.5 -8.5 -16.5 -12.5l-262 -269l111 -184c35.333 -56 67.833 -104.167 97.5 -144.5
s55.334 -71.833 77.001 -94.5s38.5 -34 50.5 -34c15.333 0 27.5 -2.66699 36.5 -8s13.5 -9.66602 13.5 -12.999c0 -5.33301 -6.66699 -12.333 -20 -21s-35 -13 -65 -13c-28 0 -57 12 -87 36s-60.833 56.5 -92.5 97.5s-64.167 88.667 -97.5 143l-102 171.5l-60 -57v-163
c0 -10.667 4 -21.167 12 -31.5s16.667 -20.333 26 -30l26 -28c8 -9 12 -17.5 12 -25.5c0 -4 -5.16699 -8.33301 -15.5 -13s-23 -9.16699 -38 -13.5s-30.5 -7.83301 -46.5 -10.5s-30 -4 -42 -4c-17.333 0 -30 2.16699 -38 6.5s-12 12.166 -12 23.499v619z" />
    <glyph glyph-name="L" unicode="L" horiz-adv-x="652" 
d="M199 26c0 -20 4.6709 -30.001 14.0039 -30.001c26.667 0 53.667 0.166992 81 0.5s53.666 0.833008 78.999 1.5s49.333 1.83398 72 3.50098s43 3.83398 61 6.50098c6.66699 1.33301 12 7.83301 16 19.5s7.66699 24.167 11 37.5s7.16602 25.5 11.499 36.5
s10.5 16.5 18.5 16.5c6 0 13.333 -6.16699 22 -18.5s17.334 -27 26.001 -44s16 -34.167 22 -51.5s9 -31 9 -41c0 -11.333 -3 -19.833 -9 -25.5s-17.667 -8.5 -35 -8.5h-469c-15.333 0 -26.5 2.16699 -33.5 6.5s-10.5 12.166 -10.5 23.499v617
c0 8 -3.83301 16.167 -11.5 24.5s-16.334 16.666 -26.001 24.999s-18.334 17 -26.001 26s-11.5 18.167 -11.5 27.5c0 4 5.16699 8.33301 15.5 13s22.833 9.16699 37.5 13.5s30 7.83301 46 10.5s30 4 42 4c17.333 0 29.666 -2.16699 36.999 -6.5s11 -12.166 11 -23.499v-664z
" />
    <glyph glyph-name="M" unicode="M" horiz-adv-x="1030" 
d="M223 506l-93.002 -465.004c0 -8.66699 4.33301 -16.167 13 -22.5s18 -12.166 28 -17.499s19.333 -10.666 28 -15.999s13 -11.333 13 -18c0 -4 -4.66699 -8.33301 -14 -13s-20.833 -9 -34.5 -13s-28.167 -7.33301 -43.5 -10s-28.666 -4 -39.999 -4
c-15.333 0 -27.166 2 -35.499 6s-13.166 11 -14.499 21l133 633c-0.666992 10 -5.16699 19 -13.5 27s-17.333 15.5 -27 22.5s-18.5 13.833 -26.5 20.5s-12 14 -12 22c0 4 4.66699 8.33301 14 13s20.833 9.16699 34.5 13.5s28.167 7.83301 43.5 10.5s29.333 4 42 4
c25.333 0 40.333 -6.33301 45 -19l236 -616l233 592c4.66699 11.333 13 21.333 25 30s24.667 13 38 13c21.333 0 35.833 -3.33301 43.5 -10s12.167 -14 13.5 -22l92 -630c1.33301 -9.33301 6.16602 -17.5 14.499 -24.5s17 -13.667 26 -20s17.167 -12.666 24.5 -18.999
s11 -13.5 11 -21.5c0 -5.33301 -4.66699 -10.666 -14 -15.999s-20.666 -10.333 -33.999 -15s-27.5 -8.33398 -42.5 -11.001s-28.5 -4 -40.5 -4c-17.333 0 -31.333 2.5 -42 7.5s-16.667 12.833 -18 23.5l-71 573l-229 -577c-3.33301 -7.33301 -8.33301 -13.666 -15 -18.999
s-17.667 -8 -33 -8c-11.333 0 -19.833 2.66699 -25.5 8s-9.83398 11.333 -12.501 18z" />
    <glyph glyph-name="N" unicode="N" horiz-adv-x="799" 
d="M84 576c0 6.66699 -3.83398 14.332 -11.501 22.999s-16.167 17.667 -25.5 27s-17.833 18.5 -25.5 27.5s-11.5 17.5 -11.5 25.5c0 4 5 8.33301 15 13s21.833 9.16699 35.5 13.5s27.5 7.83301 41.5 10.5s24.667 4 32 4c12.667 0 24.5 -3.5 35.5 -10.5
s21.167 -16.833 30.5 -29.5l432 -569v465c0 12 -4 23 -12 33s-16.667 19.167 -26 27.5l-26 23c-8 7 -12 13.5 -12 19.5c0 4 3.33301 8.33301 10 13s15.334 9.16699 26.001 13.5s22.334 7.83301 35.001 10.5s25 4 37 4c16 0 28.333 -2.16699 37 -6.5s13 -12.166 13 -23.499
v-746c0 -7.33301 -2.16699 -15.666 -6.5 -24.999s-13.166 -14 -26.499 -14c-7.33301 0 -15 2 -23 6s-15.667 9 -23 15s-14.333 12.5 -21 19.5s-12.334 13.5 -17.001 19.5l-431 569v-451c0 -11.333 4 -22 12 -32s16.833 -19.667 26.5 -29s18.5 -18.5 26.5 -27.5
s12 -17.833 12 -26.5c0 -4 -3.5 -8.33301 -10.5 -13s-15.833 -9.16699 -26.5 -13.5s-22.334 -7.83301 -35.001 -10.5s-25 -4 -37 -4c-17.333 0 -30 2.16699 -38 6.5s-12 12.166 -12 23.499v619z" />
    <glyph glyph-name="O" unicode="O" 
d="M776 324c0 -58.667 -9.33301 -112.331 -28 -160.998s-44.5 -90.5 -77.5 -125.5s-71.833 -62.167 -116.5 -81.5s-93 -29 -145 -29c-57.333 0 -108.833 10.667 -154.5 32s-84.334 50.166 -116.001 86.499s-56 78.5 -73 126.5s-25.5 98.667 -25.5 152
c0 58 9.5 111.833 28.5 161.5s45 92.667 78 129s72 64.666 117 84.999s93.5 30.5 145.5 30.5c56.667 0 107.834 -11.167 153.501 -33.5s84.167 -52.333 115.5 -90s55.5 -81 72.5 -130s25.5 -99.833 25.5 -152.5zM382 671.003c-29.333 0 -56.832 -8.33301 -82.499 -25
s-48.334 -39 -68.001 -67s-35.167 -60.167 -46.5 -96.5s-17 -73.833 -17 -112.5c0 -48 5 -94.833 15 -140.5s25.667 -86.5 47 -122.5s49 -65 83 -87s74.667 -33 122 -33c28.667 0 55.834 7.83301 81.501 23.5s48.167 37 67.5 64s34.666 58.167 45.999 93.5s17 73 17 113
c0 48 -5 95.167 -15 141.5s-25.833 88 -47.5 125s-49.167 66.833 -82.5 89.5s-73.333 34 -120 34z" />
    <glyph glyph-name="P" unicode="P" horiz-adv-x="633" 
d="M85 576c0 8 -3.83008 16.3311 -11.4971 24.998s-16.334 17.334 -26.001 26.001s-18.334 17.334 -26.001 26.001s-11.5 17.334 -11.5 26.001c0 4 5 8.33301 15 13s22.333 9 37 13s30 7.5 46 10.5s30 4.5 42 4.5c9.33301 0.666992 20.666 1.66699 33.999 3
s27.5 2.66602 42.5 3.99902s30.167 2.33301 45.5 3s30 1 44 1c42.667 0 81.667 -4.33301 117 -13s65.5 -21.334 90.5 -38.001s44.5 -37.167 58.5 -61.5s21 -52.166 21 -83.499c0 -44 -9 -82.5 -27 -115.5s-40.833 -60.333 -68.5 -82s-58.167 -38 -91.5 -49
s-65.333 -16.5 -96 -16.5c-24 0 -45.5 0.833008 -64.5 2.5s-37.5 4.83398 -55.5 9.50098v-201c0 -10.667 4 -21 12 -31s16.667 -19.833 26 -29.5l26 -28c8 -9 12 -17.833 12 -26.5c0 -4 -5.16699 -8.33301 -15.5 -13s-23 -9.16699 -38 -13.5s-30.5 -7.83301 -46.5 -10.5
s-30 -4 -42 -4c-16.667 0 -29 2.16699 -37 6.5s-12 12.166 -12 23.499v619zM299.003 668.998c-18 0 -35.3301 -0.832031 -51.9971 -2.49902s-32.334 -3.83398 -47.001 -6.50098v-308c17.333 -5.33301 36.166 -9.5 56.499 -12.5s41.5 -4.5 63.5 -4.5
c20 0 39.333 3.33301 58 10s35.167 16.5 49.5 29.5s25.666 29.5 33.999 49.5s12.5 43.333 12.5 70c0 32.667 -5 60.167 -15 82.5s-23.167 40.333 -39.5 54s-35 23.5 -56 29.5s-42.5 9 -64.5 9z" />
    <glyph glyph-name="Q" unicode="Q" 
d="M776 324c0 -63.333 -10.668 -120.497 -32.001 -171.497s-51 -94.167 -89 -129.5l24 -29c18 -22.667 36.667 -44.834 56 -66.501s38.666 -41.334 57.999 -59.001s38.5 -32.5 57.5 -44.5s37.5 -20 55.5 -24c6 -1.33301 9 -3.66602 9 -6.99902
c0 -6.66699 -7.16699 -11.167 -21.5 -13.5s-29.166 -3.5 -44.499 -3.5c-28 0 -55.167 5.5 -81.5 16.5s-51.333 25.333 -75 43s-46.167 37.667 -67.5 60s-41 44.5 -59 66.5c-23.333 -11.333 -48.166 -20 -74.499 -26s-53.833 -9 -82.5 -9
c-57.333 0 -108.833 10.667 -154.5 32s-84.334 50.166 -116.001 86.499s-56 78.5 -73 126.5s-25.5 98.667 -25.5 152c0 58 9.5 111.833 28.5 161.5s45 92.667 78 129s72 64.666 117 84.999s93.5 30.5 145.5 30.5c56.667 0 107.834 -11.167 153.501 -33.5
s84.167 -52.333 115.5 -90s55.5 -81 72.5 -130s25.5 -99.833 25.5 -152.5zM381.999 671.003c-29.333 0 -56.8301 -8.33398 -82.4971 -25.001s-48.334 -39 -68.001 -67s-35.167 -60.167 -46.5 -96.5s-17 -73.833 -17 -112.5c0 -38 3 -75 9 -111s15.333 -70 28 -102
c9.33301 26 26 47 50 63s53 24 87 24c25.333 0 49.166 -3.83301 71.499 -11.5s43.833 -18.167 64.5 -31.5s40.667 -29.166 60 -47.499s38.666 -38.5 57.999 -60.5c16 26 28.5 54.833 37.5 86.5s13.5 65.5 13.5 101.5c0 48 -5 95.167 -15 141.5s-25.833 88 -47.5 125
s-49.167 66.833 -82.5 89.5s-73.333 34 -120 34zM264.002 110.002c0 -14.667 2.33496 -28 7.00195 -40s10.667 -23 18 -33c19.333 -15.333 41 -27.5 65 -36.5s51 -13.5 81 -13.5c15.333 0 30.666 2.5 45.999 7.5s29.666 12.167 42.999 21.5
c-14.667 19.333 -30.334 39 -47.001 59s-33.167 38 -49.5 54s-32.166 29 -47.499 39s-29.333 15 -42 15c-20 0 -37.333 -5.66699 -52 -17s-22 -30 -22 -56z" />
    <glyph glyph-name="R" unicode="R" horiz-adv-x="631" 
d="M85 576c0 8 -3.83008 16.3262 -11.4971 24.9932s-16.334 17.334 -26.001 26.001s-18.334 17.334 -26.001 26.001s-11.5 17.334 -11.5 26.001c0 4 5 8.33301 15 13s22.333 9 37 13s30 7.5 46 10.5s30 4.5 42 4.5c9.33301 0.666992 20.666 1.66699 33.999 3
s27.5 2.66602 42.5 3.99902s30.333 2.33301 46 3s30.167 1 43.5 1c86.667 0 153.167 -16.667 199.5 -50s69.5 -80.666 69.5 -141.999c0 -31.333 -6.16699 -60.166 -18.5 -86.499s-28.5 -49.5 -48.5 -69.5s-43 -36.5 -69 -49.5s-52.667 -22.167 -80 -27.5l109.5 -145.5
c31 -41 57.833 -74.667 80.5 -101s41.667 -46 57 -59s28.666 -19.5 39.999 -19.5c15.333 0 27.5 -2.66699 36.5 -8s13.5 -9.66602 13.5 -12.999c0 -5.33301 -6.66699 -12.333 -20 -21s-35 -13 -65 -13c-28.667 0 -57 9.83301 -85 29.5s-57.167 46.834 -87.5 81.501
s-62.166 75.334 -95.499 122.001l-108 150c-8 1.33301 -15.667 2.83301 -23 4.5s-14.333 3.5 -21 5.5v-236c0 -12 4 -23.5 12 -34.5s16.667 -21.167 26 -30.5l26 -26.5c8 -8.33301 12 -16.166 12 -23.499c0 -4 -5.16699 -8.33301 -15.5 -13s-23 -9.16699 -38 -13.5
s-30.5 -7.83301 -46.5 -10.5s-30 -4 -42 -4c-17.333 0 -30 2.16699 -38 6.5s-12 12.166 -12 23.499v619zM299.003 668.993c-17.333 0 -34.333 -0.831055 -51 -2.49805s-32.334 -3.83398 -47.001 -6.50098v-267c17.333 -6 36 -11.167 56 -15.5s41 -6.5 63 -6.5
c40.667 0 73.667 12.167 99 36.5s38 59.166 38 104.499c0 28 -4.16699 52 -12.5 72s-19.666 36.167 -33.999 48.5s-31 21.5 -50 27.5s-39.5 9 -61.5 9z" />
    <glyph glyph-name="S" unicode="S" horiz-adv-x="623" 
d="M583 141c0 -21.333 -4.16699 -44.4951 -12.5 -69.4951s-23 -48.167 -44 -69.5s-49.5 -39.166 -85.5 -53.499s-81.667 -21.5 -137 -21.5c-40 0 -76.333 5.16699 -109 15.5s-60.5 23.666 -83.5 39.999s-40.667 34.333 -53 54s-18.5 38.5 -18.5 56.5c0 12 6 18 18 18
c6.66699 0 13.667 -3.33301 21 -10c8 -8.66699 18.5 -18.834 31.5 -30.501s28.667 -22.834 47 -33.501s39.5 -19.667 63.5 -27s51.667 -11 83 -11c44 0 78.833 10.667 104.5 32s38.5 55 38.5 101c0 16.667 -4.16699 32 -12.5 46s-19.666 27.167 -33.999 39.5
s-30.833 24 -49.5 35l-58 33.5c-26 14 -52.333 29 -79 45s-50.834 33.5 -72.501 52.5s-39.334 40 -53.001 63s-20.5 49.167 -20.5 78.5c0 20.667 5 43 15 67s26 46.167 48 66.5s50 37.333 84 51s75 20.5 123 20.5c34 0 65.333 -2.16699 94 -6.5s53.5 -10 74.5 -17
s37.5 -15.167 49.5 -24.5s18 -19.333 18 -30c0 -6 -3.16699 -13.833 -9.5 -23.5s-14.333 -19 -24 -28s-20 -16.833 -31 -23.5s-20.833 -10 -29.5 -10c-13.333 0 -24.166 5.33301 -32.499 16s-16.833 22.5 -25.5 35.5s-19.167 25 -31.5 36s-29.166 16.5 -50.499 16.5
c-20 0 -38.5 -3.33301 -55.5 -10s-31.833 -15.834 -44.5 -27.501s-22.667 -25.334 -30 -41.001s-11 -32.5 -11 -50.5c0 -20 4.16699 -37.667 12.5 -53s19.5 -29 33.5 -41s29.833 -22.833 47.5 -32.5s36.167 -19.167 55.5 -28.5l83 -44.5
c28 -15.667 53.167 -33.167 75.5 -52.5s40.666 -41.333 54.999 -66s21.5 -52.334 21.5 -83.001z" />
    <glyph glyph-name="T" unicode="T" horiz-adv-x="656" 
d="M516 652c-37.333 6 -80.6689 9.34082 -130.002 10.0078v-567c0 -10.667 4 -20.834 12 -30.501s17 -18.834 27 -27.501s19 -16.834 27 -24.501s12 -14.834 12 -21.501c0 -5.33301 -5.33301 -11.5 -16 -18.5s-23.5 -14 -38.5 -21s-30.667 -12.833 -47 -17.5
s-30.5 -7 -42.5 -7c-16.667 0 -29.167 2.16699 -37.5 6.5s-12.5 12.166 -12.5 23.499v704c-28 -1.33301 -53.5 -4 -76.5 -8s-46.833 -10 -71.5 -18c-7.33301 -2.66699 -14.666 -8.83398 -21.999 -18.501l-22 -30.5c-7.33301 -10.667 -15 -20.167 -23 -28.5
s-16.667 -12.5 -26 -12.5c-8.66699 0 -14 1.33301 -16 4s-3 5.33398 -3 8.00098c0 9.33301 1.83301 24.166 5.5 44.499s8.16699 41 13.5 62s11.5 39.333 18.5 55s14.167 23.5 21.5 23.5c4.66699 0 9.16699 -1.16699 13.5 -3.5s8.66602 -4.83301 12.999 -7.5
s8.66602 -5.16699 12.999 -7.5s9.16602 -3.5 14.499 -3.5h431c7.33301 0 14.333 2 21 6s14.334 6 23.001 6c5.33301 0 10.833 -6.33301 16.5 -19s10.834 -27.834 15.501 -45.501s8.5 -35.834 11.5 -54.501s4.5 -33.667 4.5 -45c0 -19.333 -5.66699 -29 -17 -29
s-22.166 5.66699 -32.499 17s-20.333 24 -30 38l-27 38.5c-8.33301 11.667 -16.166 18.167 -23.499 19.5z" />
    <glyph glyph-name="U" unicode="U" horiz-adv-x="766" 
d="M387 -73c-37.333 0 -73.999 4.33105 -109.999 12.998s-68.167 22 -96.5 40s-51.333 40.5 -69 67.5s-26.5 59.167 -26.5 96.5v432c0 8.66699 -3.83301 17 -11.5 25s-16.334 16.167 -26.001 24.5s-18.334 16.833 -26.001 25.5s-11.5 18 -11.5 28
c0 4.66699 5.16699 9.5 15.5 14.5s22.833 9.5 37.5 13.5s30 7.16699 46 9.5s30 3.5 42 3.5c17.333 0 30 -2.16699 38 -6.5s12 -12.166 12 -23.499v-510c0 -31.333 5 -58.666 15 -81.999s23.667 -42.666 41 -57.999s38.166 -27 62.499 -35s50.833 -12 79.5 -12
c25.333 0 50.5 4 75.5 12s47.333 19.667 67 35s35.667 34.666 48 57.999s18.5 50.666 18.5 81.999v396c0 7.33301 -4 15.333 -12 24s-16.667 17.5 -26 26.5s-18 17.833 -26 26.5s-12 17 -12 25c0 4 4.66699 8.5 14 13.5s20.5 9.5 33.5 13.5s26.333 7.5 40 10.5
s24.834 4.5 33.501 4.5c16.667 0 28.834 -2.16699 36.501 -6.5s11.5 -12.166 11.5 -23.499v-546c0 -37.333 -9.5 -69.5 -28.5 -96.5s-43.5 -49.5 -73.5 -67.5s-63.667 -31.333 -101 -40s-74.333 -13 -111 -13z" />
    <glyph glyph-name="V" unicode="V" horiz-adv-x="738" 
d="M444 -10c-7.33301 -19.333 -17.332 -34.666 -29.999 -45.999s-28.334 -17 -47.001 -17c-18 0 -33.333 5.33301 -46 16s-21.667 24.334 -27 41.001l-202 621c-2 6 -7.33301 12 -16 18s-18 11.833 -28 17.5s-18.833 11.334 -26.5 17.001s-11.5 11.5 -11.5 17.5
s4.5 11.667 13.5 17s20 10.166 33 14.499s26.667 7.66602 41 9.99902s26.5 3.5 36.5 3.5c11.333 0 23.5 -1.5 36.5 -4.5s20.5 -8.16699 22.5 -15.5l194 -635l198 541c0 6 -2.66699 11.833 -8 17.5l-17 17.5l-17 17.5c-5.33301 5.66699 -8 11.5 -8 17.5c0 4 4 8.66699 12 14
s18.5 10.166 31.5 14.499s27.667 8 44 11s32.833 4.5 49.5 4.5c11.333 0 21.833 -1.66699 31.5 -5s14.5 -8.33301 14.5 -15z" />
    <glyph glyph-name="W" unicode="W" horiz-adv-x="1117" 
d="M858 -11c-8 -23.333 -18.5 -39.498 -31.5 -48.498s-28.167 -13.5 -45.5 -13.5s-32.833 5.33301 -46.5 16s-22.5 24.334 -26.5 41.001l-134 530l-172 -524c-7.33301 -23.333 -17.333 -39.666 -30 -48.999s-28.334 -14 -47.001 -14c-16 0 -31 5.66699 -45 17
s-23 24.666 -27 39.999l-163 610c-2.66699 5.33301 -8.33398 11.5 -17.001 18.5l-27 21c-9.33301 7 -17.666 14 -24.999 21s-11 13.5 -11 19.5s4 11.833 12 17.5s18 10.667 30 15s25.333 7.66602 40 9.99902s28.667 3.5 42 3.5c12.667 0 23.834 -1.66699 33.501 -5
s15.167 -8.33301 16.5 -15l161 -635l170 521c0 11.333 -2.5 20.833 -7.5 28.5s-10.667 14.5 -17 20.5s-12 12 -17 18s-7.5 13 -7.5 21c0 6 4 11.833 12 17.5s18 10.667 30 15s25.5 7.66602 40.5 9.99902s29.5 3.5 43.5 3.5c31.333 0 49.333 -8.33301 54 -25l155 -634
l169 525c0 8.66699 -2.33301 16.667 -7 24s-10 14.5 -16 21.5s-11.333 14.167 -16 21.5s-7 15 -7 23c0 4 3.5 8.66699 10.5 14s16.333 10.166 28 14.499s25.167 8 40.5 11s31.333 4.5 48 4.5c11.333 0 21.833 -1.66699 31.5 -5s14.5 -8.33301 14.5 -15
c0 -4 -0.5 -8.33301 -1.5 -13s-3.5 -12.667 -7.5 -24z" />
    <glyph glyph-name="X" unicode="X" horiz-adv-x="722" 
d="M295 316l-176.004 280c-4.66699 7.33301 -13 14.5 -25 21.5l-36.5 21c-12.333 7 -23.333 13.833 -33 20.5s-14.5 13.334 -14.5 20.001c0 4 4 8.33301 12 13s17.833 9.16699 29.5 13.5s24.334 7.83301 38.001 10.5s26.5 4 38.5 4c18 0 32.5 -2.66699 43.5 -8
s20.833 -15 29.5 -29l168 -268l137 184c-0.666992 6.66699 -2.5 13.334 -5.5 20.001l-9 19.5c-3 6.33301 -5.83301 12.833 -8.5 19.5s-4 13.667 -4 21c0 6 6.33301 11.5 19 16.5s27.667 9.33301 45 13s34.5 6.5 51.5 8.5s30.167 3 39.5 3c30 0 45 -6.33301 45 -19l-265 -359
l189 -301c3.33301 -6 11 -11.833 23 -17.5l37 -17.5c12.667 -6 24 -12.167 34 -18.5s15 -12.833 15 -19.5c0 -4.66699 -4 -9.5 -12 -14.5s-18.167 -9.5 -30.5 -13.5s-25.5 -7.16699 -39.5 -9.5s-27 -3.5 -39 -3.5c-18 0 -32.5 2.83301 -43.5 8.5s-20.833 15.167 -29.5 28.5
l-176 279l-151 -205c0.666992 -6 2.66699 -11.833 6 -17.5l10 -17c3.33301 -5.66699 6.33301 -11.334 9 -17.001s4 -11.834 4 -18.501c0 -5.33301 -4.33301 -10.5 -13 -15.5s-19.5 -9.33301 -32.5 -13s-26.833 -6.66699 -41.5 -9s-28 -3.5 -40 -3.5
c-3.33301 0 -9.16602 0.166992 -17.499 0.5s-16.666 1.33301 -24.999 3s-15.666 3.66699 -21.999 6s-9.5 5.5 -9.5 9.5z" />
    <glyph glyph-name="Y" unicode="Y" horiz-adv-x="673" 
d="M291 248l-202 367.001c-2 4 -7.16699 8.5 -15.5 13.5l-27 15.5c-9.66699 5.33301 -18.167 10.666 -25.5 15.999s-11 10.333 -11 15s3.5 9.66699 10.5 15s16 10.333 27 15s23.167 8.33398 36.5 11.001s26.666 4 39.999 4c12 0 24.833 -2.5 38.5 -7.5
s22.5 -11.5 26.5 -19.5l172 -368l166 302c-2 5.33301 -5.5 10.166 -10.5 14.499s-10.167 8.5 -15.5 12.5s-10.166 8.5 -14.499 13.5s-6.5 10.5 -6.5 16.5c0 4.66699 4.33301 9.33398 13 14.001s19.5 8.5 32.5 11.5s27.333 5.5 43 7.5s30.5 3 44.5 3
c10.667 0 20 -1.83301 28 -5.5s12 -10.167 12 -19.5c0 -4 -0.5 -10 -1.5 -18s-4.16699 -16.333 -9.5 -25l-236 -397v-172c0 -11.333 4 -22.333 12 -33s16.667 -20.667 26 -30l26 -27c8 -8.66699 12 -17 12 -25c0 -4 -5.16699 -8.33301 -15.5 -13s-23 -9.16699 -38 -13.5
s-30.5 -7.83301 -46.5 -10.5s-30 -4 -42 -4c-16.667 0 -29 2.16699 -37 6.5s-12 12.166 -12 23.499v291z" />
    <glyph glyph-name="Z" unicode="Z" horiz-adv-x="603" 
d="M58 -71c-18.667 0 -31.3301 2.99805 -37.9971 8.99805s-10 13 -10 21c0 4.66699 9 22 27 52l382 625c-0.666992 6.66699 -3.16699 12.5 -7.5 17.5s-10.166 7.5 -17.499 7.5c-26 0 -49.167 -0.166992 -69.5 -0.5s-39 -1 -56 -2s-33.167 -2.33301 -48.5 -4
s-31.666 -3.83398 -48.999 -6.50098c-6 0 -13.833 -5.33301 -23.5 -16l-30.5 -34.5c-10.667 -12.333 -21.167 -23.833 -31.5 -34.5s-18.833 -16 -25.5 -16c-8 0 -13.333 2.83301 -16 8.5s-4 13.5 -4 23.5c0 7.33301 1.33301 19.5 4 36.5s6.16699 34.167 10.5 51.5
s9.66602 32.5 15.999 45.5s13.166 19.5 20.499 19.5c8.66699 0 16.167 -1.66699 22.5 -5s13.833 -5.66602 22.5 -6.99902h381c18.667 0 32.167 -3.83301 40.5 -11.5s12.5 -13.167 12.5 -16.5c0 -7.33301 -3.33301 -17.166 -10 -29.499s-14.334 -25.5 -23.001 -39.5
l-359 -588c-2 -3.33301 -3.66699 -8.16602 -5 -14.499s-2 -11.166 -2 -14.499c0 -9.33301 7.66699 -14 23 -14c54 0 103.333 1.66699 148 5s83 7 115 11c7.33301 0.666992 14.166 5.16699 20.499 13.5s12.666 17.166 18.999 26.499s12.833 17.833 19.5 25.5
s13.667 11.5 21 11.5c6 0 12.333 -4.5 19 -13.5s12.667 -20 18 -33s9.83301 -26.333 13.5 -40s5.5 -25.5 5.5 -35.5c0 -11.333 -2.83301 -19.833 -8.5 -25.5s-17.5 -8.5 -35.5 -8.5h-491z" />
    <glyph glyph-name="bracketleft" unicode="[" horiz-adv-x="286" 
d="M251 776c4 0 7.5 -1.00098 10.5 -3.00098s4.5 -5 4.5 -9c0 -4.66699 -5 -10.5 -15 -17.5s-20.333 -10.5 -31 -10.5h-100v-997h131c3.33301 0 6.66602 -0.666992 9.99902 -2s5 -4.66602 5 -9.99902c0 -3.33301 -1.66699 -6.66602 -5 -9.99902s-7.5 -6.33301 -12.5 -9
s-10 -4.83398 -15 -6.50098s-9.5 -2.5 -13.5 -2.5h-180c-13.333 0 -20 3.66699 -20 11v1034c0 11.333 3.83301 19.5 11.5 24.5s16.834 7.5 27.501 7.5h192v0z" />
    <glyph glyph-name="backslash" unicode="\" horiz-adv-x="513" 
d="M10 748c0 11.333 3.16895 21.167 9.50195 29.5s16.5 12.5 30.5 12.5c5.33301 0 11.166 -1.33301 17.499 -4s11.166 -6.66699 14.499 -12l421 -904c0 -12.667 -3.16699 -23.167 -9.5 -31.5s-15.833 -12.5 -28.5 -12.5c-15.333 0 -27 5.66699 -35 17z" />
    <glyph glyph-name="bracketright" unicode="]" horiz-adv-x="286" 
d="M227 776c10.667 0 19.834 -2.49902 27.501 -7.49902s11.5 -13.167 11.5 -24.5v-1034c0 -7.33301 -6.66699 -11 -20 -11h-180c-4 0 -8.5 0.833008 -13.5 2.5s-10 3.83398 -15 6.50098s-9.16699 5.66699 -12.5 9s-5 6.66602 -5 9.99902
c0 5.33301 1.66699 8.66602 5 9.99902s6.66602 2 9.99902 2h131v997h-100c-10.667 0 -21 3.5 -31 10.5s-15 12.833 -15 17.5c0 4 1.5 7 4.5 9s6.5 3 10.5 3h192z" />
    <glyph glyph-name="asciicircum" unicode="^" horiz-adv-x="538" 
d="M20 418l232 291c5.33301 4.66699 11 7 17 7s10.667 -2.33301 14 -7l235 -291l-29 -30l-220 222l-222 -222z" />
    <glyph glyph-name="underscore" unicode="_" horiz-adv-x="573" 
d="M-10 0h593v-38h-593v38z" />
    <glyph glyph-name="grave" unicode="`" horiz-adv-x="173" 
d="M20 713c0 10 4.16797 17.833 12.501 23.5s19.5 8.5 33.5 8.5s24.667 -2.83301 32 -8.5s12.333 -13.5 15 -23.5l40 -160c0 -6.66699 -2.83301 -12.167 -8.5 -16.5s-11.834 -6.5 -18.501 -6.5c-12 0 -20.667 7.66699 -26 23z" />
    <glyph glyph-name="a" unicode="a" horiz-adv-x="554" 
d="M148 382c-4.66699 0 -11.667 3.83203 -21 11.499s-18 16.667 -26 27s-15 21 -21 32s-9 20.167 -9 27.5c0 5.33301 6.33301 10 19 14s28.667 7.33301 48 10s41.333 4.83398 66 6.50098s49.334 2.5 74.001 2.5c34.667 0 66.334 -4.5 95.001 -13.5
s53.334 -22.167 74.001 -39.5s36.5 -39.166 47.5 -65.499s16.5 -56.5 16.5 -90.5v-267c0 -13.333 -2 -24.833 -6 -34.5s-11 -14.5 -21 -14.5c-12.667 0 -24.834 8.66699 -36.501 26s-19.834 40 -24.501 68c-12.667 -17.333 -27.5 -31.833 -44.5 -43.5s-35 -21.167 -54 -28.5
s-37.667 -12.833 -56 -16.5s-34.5 -5.5 -48.5 -5.5c-58 0 -103.333 12.667 -136 38s-49 59.333 -49 102c0 32 10.5 57.833 31.5 77.5s48.667 34.834 83 45.501s73 17.667 116 21s86.167 5 129.5 5v38c0 46 -11.333 80.667 -34 104s-49.334 35 -80.001 35
c-18 0 -33.333 -3.83301 -46 -11.5s-24 -15.834 -34 -24.501s-19 -16.834 -27 -24.501s-16.667 -11.5 -26 -11.5zM254 53.999c15.333 0 31.166 3.66699 47.499 11s31.5 17 45.5 29s25.333 26 34 42s13.334 32.667 14.001 50v39c-32.667 0 -63.5 -1.5 -92.5 -4.5
s-53.833 -8.33301 -74.5 -16s-36.667 -17.667 -48 -30s-17 -27.833 -17 -46.5c0 -20.667 7.83301 -38.167 23.5 -52.5s38.167 -21.5 67.5 -21.5z" />
    <glyph glyph-name="b" unicode="b" horiz-adv-x="546" 
d="M86 677c0 8.66699 -2.83008 17.1689 -8.49707 25.502s-11.834 16.5 -18.501 24.5l-18.5 23c-5.66699 7.33301 -8.5 14.333 -8.5 21c0 5.33301 3.5 12.5 10.5 21.5s15.833 17.5 26.5 25.5s22.334 15.167 35.001 21.5s25 9.5 37 9.5c16 0 28.167 -3 36.5 -9
s12.5 -17.667 12.5 -35v-347l-10 -80c5.33301 18 12.833 35.167 22.5 51.5s21.167 30.666 34.5 42.999s28.666 22.166 45.999 29.499s36.333 11 57 11c31.333 0 59.166 -5.83301 83.499 -17.5s44.666 -27.667 60.999 -48s28.833 -44.333 37.5 -72s13 -58.167 13 -91.5
c0 -53.333 -8.66699 -98.833 -26 -136.5s-38.833 -68.167 -64.5 -91.5s-53.167 -40.5 -82.5 -51.5s-55.666 -16.5 -78.999 -16.5c-38.667 0 -72.834 5.66699 -102.501 17s-61.167 29.333 -94.5 54v618zM333.003 439.002c-20 0 -38.6689 -6.50293 -56.002 -19.5029
s-32.666 -29.167 -45.999 -48.5s-23.5 -40.166 -30.5 -62.499s-10.5 -42.833 -10.5 -61.5v-160c14 -10.667 30.333 -19 49 -25s36.667 -9 54 -9c16.667 0 33 4.33301 49 13s30.167 22.334 42.5 41.001s22.333 42.334 30 71.001s11.5 63 11.5 103
c0 21.333 -2.16699 41.5 -6.5 60.5s-10.833 35.833 -19.5 50.5s-18.667 26.167 -30 34.5s-23.666 12.5 -36.999 12.5z" />
    <glyph glyph-name="c" unicode="c" horiz-adv-x="562" 
d="M531 128c0 -14.667 -5.16406 -30.3301 -15.4971 -46.9971s-25.333 -31.834 -45 -45.501s-43.667 -25 -72 -34s-60.5 -13.5 -96.5 -13.5c-37.333 0 -72.5 4.66699 -105.5 14s-61.333 23.833 -85 43.5s-42.667 44.667 -57 75s-21.5 66.166 -21.5 107.499
c0 38.667 6.33301 75.334 19 110.001s31.5 65 56.5 91s55.833 46.5 92.5 61.5s78.334 22.5 125.001 22.5c23.333 0 45.666 -1.33301 66.999 -4s40.166 -6.5 56.499 -11.5s29.333 -11 39 -18s14.5 -14.5 14.5 -22.5c0 -8.66699 -3 -18.334 -9 -29.001
s-13.333 -20.834 -22 -30.501s-17.667 -17.834 -27 -24.501s-17.333 -10 -24 -10c-7.33301 0 -14.333 4.66699 -21 14s-14.667 19.333 -24 30s-19.5 20.667 -30.5 30s-23.5 14 -37.5 14c-18 0 -35.667 -2.66699 -53 -8s-33 -15 -47 -29s-25.167 -33.167 -33.5 -57.5
s-12.5 -56.166 -12.5 -95.499c0 -34 4.5 -63 13.5 -87s21.833 -43.5 38.5 -58.5s35.834 -26 57.501 -33s45.167 -10.5 70.5 -10.5c29.333 0 54.166 3.33301 74.499 10s37.666 14 51.999 22s25.666 15.5 33.999 22.5s14.5 10.5 18.5 10.5c6.66699 0 10 -3 10 -9z" />
    <glyph glyph-name="d" unicode="d" horiz-adv-x="519" 
d="M471 56c0 -28.667 -3.16699 -47.168 -9.5 -55.501s-11.833 -12.5 -16.5 -12.5c-6 0 -11.833 3.66699 -17.5 11s-11.167 17.166 -16.5 29.499s-10 26.833 -14 43.5s-6.66699 33.667 -8 51c-16 -42 -39 -75 -69 -99s-65.333 -36 -106 -36c-31.333 0 -59.5 6 -84.5 18
s-46.333 28.333 -64 49s-31.167 44.834 -40.5 72.501s-14 57.5 -14 89.5c0 45.333 6 86.166 18 122.499s29.167 67.5 51.5 93.5s48.666 45.833 78.999 59.5s63.5 20.5 99.5 20.5c22 0 41.167 -1.66699 57.5 -5s33.166 -8.66602 50.499 -15.999v213c0 6 -2.5 12.333 -7.5 19
s-10.5 13 -16.5 19s-11.5 11.833 -16.5 17.5s-7.5 10.5 -7.5 14.5c0 6 3.33301 13.333 10 22s15.5 16.834 26.5 24.501s22.333 14.167 34 19.5s22.834 8 33.501 8c4.66699 0 9.66699 -0.5 15 -1.5s10.333 -2.5 15 -4.5s8.83398 -5 12.501 -9s5.5 -9.33301 5.5 -16v-762z
M231 59.999c22 0 41.332 6.33008 57.999 18.9971s30.834 29.834 42.501 51.501s20.5 47.334 26.5 77.001s9 61.167 9 94.5v127c-20 6.66699 -39 12 -57 16s-35.667 6 -53 6c-44 0 -78 -19.167 -102 -57.5s-36 -91.166 -36 -158.499c0 -23.333 1.83301 -45.5 5.5 -66.5
s10 -39.5 19 -55.5s20.5 -28.833 34.5 -38.5s31.667 -14.5 53 -14.5z" />
    <glyph glyph-name="e" unicode="e" horiz-adv-x="561" 
d="M530 128c0 -12 -4.33496 -25.835 -13.002 -41.502s-22.667 -30.667 -42 -45s-42.833 -26.833 -70.5 -37.5s-60.834 -16 -99.501 -16c-36 0 -70.5 5 -103.5 15s-62.167 24.833 -87.5 44.5s-45.333 44.5 -60 74.5s-22 65.333 -22 106c0 40 7.16699 77.333 21.5 112
s33.833 64.834 58.5 90.501s54.667 45.834 90 60.501s73.333 22 114 22c56.667 0 102.834 -12.833 138.501 -38.5s53.5 -59.167 53.5 -100.5c0 -39.333 -11.333 -70.5 -34 -93.5s-51 -40.167 -85 -51.5s-71.167 -18.833 -111.5 -22.5s-77.833 -5.5 -112.5 -5.5
c14.667 -41.333 35.334 -72.833 62.001 -94.5s60.334 -32.5 101.001 -32.5c28 0 53.333 3.16699 76 9.5s41.667 13.5 57 21.5s28 15.333 38 22s17 10 21 10c6.66699 0 10 -3 10 -9zM290.998 454.998c-18.667 0 -36.166 -4.16797 -52.499 -12.501
s-30.833 -19.833 -43.5 -34.5s-22.834 -31.167 -30.501 -49.5s-11.5 -37.166 -11.5 -56.499c0 -16 1 -30.667 3 -44c34 0.666992 65 2.16699 93 4.5s52.167 6.83301 72.5 13.5s36 16.5 47 29.5s16.5 30.167 16.5 51.5c0 65.333 -31.333 98 -94 98z" />
    <glyph glyph-name="f" unicode="f" horiz-adv-x="428" 
d="M193 437l-0.00292969 -288.998c0 -8 2.83301 -16.333 8.5 -25s11.834 -17 18.501 -25s12.834 -15.833 18.501 -23.5s8.5 -14.167 8.5 -19.5c0 -6 -3.5 -12.833 -10.5 -20.5s-15.833 -15 -26.5 -22s-22.334 -12.833 -35.001 -17.5s-25 -7 -37 -7c-16 0 -28 3 -36 9
s-12 17.667 -12 35v405h-50c-8.66699 0 -14 2.83301 -16 8.5s-3 10.5 -3 14.5c0 3.33301 0.5 7.16602 1.5 11.499s2.66699 8.83301 5 13.5s5.33301 8.5 9 11.5s8.83398 4.5 15.501 4.5h38v86c0 46.667 5.33301 86.667 16 120s25.5 60.5 44.5 81.5s41.333 36.333 67 46
s53.167 14.5 82.5 14.5c12 0 25 -2 39 -6s26.667 -8.83301 38 -14.5s20.666 -11.834 27.999 -18.501s11 -12.667 11 -18c0 -3.33301 -2.5 -9.5 -7.5 -18.5s-11.167 -17.833 -18.5 -26.5s-15 -16.5 -23 -23.5s-15 -10.5 -21 -10.5c-8.66699 0 -16 3.83301 -22 11.5
s-12.333 16.334 -19 26.001s-13.167 18.334 -19.5 26.001s-13.833 11.5 -22.5 11.5c-24.667 0 -42.5 -11.333 -53.5 -34s-16.5 -52.667 -16.5 -90v-163h122c8.66699 0 14 -2.83301 16 -8.5s3 -10.5 3 -14.5c0 -2.66699 -0.5 -6.33398 -1.5 -11.001
s-2.66699 -9.33398 -5 -14.001s-5.66602 -8.5 -9.99902 -11.5s-9.16602 -4.5 -14.499 -4.5h-110z" />
    <glyph glyph-name="g" unicode="g" horiz-adv-x="587" 
d="M60 345c0 22 4.83691 43.167 14.5039 63.5s23.5 38.166 41.5 53.499s39.667 27.666 65 36.999s53.666 14 84.999 14c38 0 71.667 -5.66699 101 -17c4.66699 10 11.167 19.5 19.5 28.5s17.5 17 27.5 24s20 12.333 30 16s18.667 5.5 26 5.5
c24.667 0 44.5 -6.83301 59.5 -20.5s22.5 -28.167 22.5 -43.5c0 -4.66699 -2.33301 -10 -7 -16s-10 -11.667 -16 -17s-12.5 -10 -19.5 -14s-13.167 -6 -18.5 -6c-4.66699 0 -9.5 2.16699 -14.5 6.5s-10 9 -15 14s-10 9.5 -15 13.5s-9.83301 6 -14.5 6
c-9.33301 0 -19 -5.66699 -29 -17c21.333 -14.667 37.666 -33 48.999 -55s17 -47.333 17 -76c0 -22 -4.66699 -43.167 -14 -63.5s-22.833 -38.166 -40.5 -53.499s-39 -27.666 -64 -36.999s-53.167 -14 -84.5 -14c-21.333 0 -43 2 -65 6c-12 -14.667 -18 -30.667 -18 -48
c0 -14.667 9 -26 27 -34s40.667 -15.333 68 -22l88.5 -21c31.667 -7.33301 61.167 -17.166 88.5 -29.499s50 -28.166 68 -47.499s27 -44.666 27 -75.999c0 -22.667 -6.33301 -45.167 -19 -67.5s-31.167 -42.166 -55.5 -59.499s-53.5 -31.833 -87.5 -43.5
s-73 -17.5 -117 -17.5c-79.333 0 -139.833 15.667 -181.5 47s-62.5 72.333 -62.5 123c0 19.333 3.83301 36.166 11.5 50.499s17 26 28 35s22.667 15.833 35 20.5s22.833 7 31.5 7c9.33301 0 14 -5 14 -15c0 -2 -0.833008 -4.33301 -2.5 -7s-4 -7 -7 -13
s-5.33301 -13.333 -7 -22s-2.5 -20.334 -2.5 -35.001c0 -36 14.5 -66.5 43.5 -91.5s72.167 -37.5 129.5 -37.5c22.667 0 42.5 3.33301 59.5 10s31.333 15.167 43 25.5s20.5 21.833 26.5 34.5s9 25.334 9 38.001c0 24 -8.33301 42.5 -25 55.5s-37.5 23.167 -62.5 30.5
s-52.333 13.666 -82 18.999s-56.834 12.166 -81.501 20.499s-45.5 20 -62.5 35s-25.5 36.5 -25.5 64.5c0 17.333 6.16699 33.166 18.5 47.499s27.166 25.833 44.499 34.5c-32.667 13.333 -58 32.833 -76 58.5s-27 56.5 -27 92.5zM167.004 366
c0 -14.667 1.83301 -29.668 5.5 -45.001s10 -29.5 19 -42.5s20.667 -23.833 35 -32.5s32.833 -13 55.5 -13c26.667 0 47.334 8.66699 62.001 26s22 39.333 22 66c0 14.667 -2 29.667 -6 45s-10.5 29.333 -19.5 42s-21 23.334 -36 32.001s-33.833 13 -56.5 13
c-26.667 0 -46.834 -8.66699 -60.501 -26s-20.5 -39 -20.5 -65z" />
    <glyph glyph-name="h" unicode="h" horiz-adv-x="573" 
d="M194 380c7.33301 16 17.335 31.8379 30.002 47.5049s27 29.834 43 42.501s33.333 23 52 31s37.667 12 57 12c42 0 74.667 -12.333 98 -37s35 -55.334 35 -92.001v-252c0 -6.66699 2.66699 -13.334 8 -20.001s11.333 -13.167 18 -19.5l18.5 -18
c5.66699 -5.66699 8.5 -10.834 8.5 -15.501c0 -6.66699 -3.16699 -13.834 -9.5 -21.501s-14.333 -15.334 -24 -23.001s-20.834 -14 -33.501 -19s-25.667 -7.5 -39 -7.5c-16 0 -28.667 3.16699 -38 9.5s-14 15.833 -14 28.5v337c0 8.66699 -1.16699 17.667 -3.5 27
s-5.83301 17.833 -10.5 25.5s-10.834 14 -18.501 19s-16.834 7.5 -27.501 7.5c-17.333 0 -34.666 -5.83301 -51.999 -17.5s-33.333 -25.834 -48 -42.501s-26.5 -34.667 -35.5 -54s-13.833 -36.333 -14.5 -51v-247c0 -13.333 -6.66699 -23.666 -20 -30.999
s-30.333 -11 -51 -11c-10 0 -18 3.66699 -24 11s-9 17.666 -9 30.999v647c0 8.66699 -2.83301 17.167 -8.5 25.5s-11.834 16.5 -18.501 24.5l-18.5 23c-5.66699 7.33301 -8.5 14.333 -8.5 21c0 5.33301 3.5 12.5 10.5 21.5s15.833 17.5 26.5 25.5s22.334 15.167 35.001 21.5
s25 9.5 37 9.5c16 0 28.167 -3 36.5 -9s12.5 -17.667 12.5 -35v-425z" />
    <glyph glyph-name="i" unicode="i" horiz-adv-x="247" 
d="M173 132c0 -6.66699 2.83398 -13.5 8.50098 -20.5s11.667 -13.833 18 -20.5l18.5 -19c6 -6 9 -11.333 9 -16c0 -6 -3.33301 -12.833 -10 -20.5s-15.334 -15 -26.001 -22s-22.5 -13 -35.5 -18s-26.5 -7.5 -40.5 -7.5c-16 0 -27.667 5 -35 15s-11 21.667 -11 35v304
c0 8 -2.83301 16.333 -8.5 25s-11.834 17 -18.501 25l-18.5 23c-5.66699 7.33301 -8.5 14 -8.5 20c0 5.33301 3.5 12.5 10.5 21.5s15.833 17.667 26.5 26s22.334 15.5 35.001 21.5s25 9 37 9c16 0 28.167 -2.83301 36.5 -8.5s12.5 -17.5 12.5 -35.5v-337zM68.001 685
c0 18 4.33301 33.5 13 46.5s22 19.5 40 19.5c17.333 0 30.666 -6.5 39.999 -19.5s14 -28.5 14 -46.5c0 -17.333 -4.66699 -32.333 -14 -45s-22.666 -19 -39.999 -19c-18 0 -31.333 6.33301 -40 19s-13 27.667 -13 45z" />
    <glyph glyph-name="j" unicode="j" horiz-adv-x="205" 
d="M170 -44c0 -38.667 -6.00293 -72.8311 -18.0029 -102.498s-25.833 -54.334 -41.5 -74.001s-31.667 -34.334 -48 -44.001s-28.166 -14.5 -35.499 -14.5c-10 0 -15 4.33301 -15 13s2.83301 18 8.5 28s11.834 22.667 18.501 38s12.834 35 18.501 59s8.5 55 8.5 93v390
c0 8 -2.83301 16.333 -8.5 25s-11.834 17 -18.501 25l-18.5 23c-5.66699 7.33301 -8.5 14 -8.5 20c0 5.33301 3.5 12.5 10.5 21.5s15.833 17.667 26.5 26s22.334 15.5 35.001 21.5s25 9 37 9c16 0 28.167 -2.83301 36.5 -8.5s12.5 -17.5 12.5 -35.5v-513zM58.9971 685.003
c0 18 4.5 33.5 13.5 46.5s22.167 19.5 39.5 19.5c18 0 31.5 -6.5 40.5 -19.5s13.5 -28.5 13.5 -46.5c0 -17.333 -4.5 -32.333 -13.5 -45s-22.5 -19 -40.5 -19c-17.333 0 -30.5 6.33301 -39.5 19s-13.5 27.667 -13.5 45z" />
    <glyph glyph-name="k" unicode="k" horiz-adv-x="628" 
d="M335 481c0 4.66699 3.16797 8.99609 9.50098 12.9961s14.5 7.5 24.5 10.5s21.167 5.33301 33.5 7s24.833 2.5 37.5 2.5c11.333 0 23.666 -1.5 36.999 -4.5s20 -9.5 20 -19.5c0 -6 -1.83301 -12.667 -5.5 -20s-8.5 -15 -14.5 -23s-12.333 -15.667 -19 -23
s-12.667 -13.666 -18 -18.999l-150 -142l84 -121.5c27.333 -39.667 53.666 -75.167 78.999 -106.5s49.166 -56.5 71.499 -75.5s41.833 -28.5 58.5 -28.5c14.667 0 25.334 -0.833008 32.001 -2.5s10 -5.5 10 -11.5c0 -5.33301 -8.16699 -12.166 -24.5 -20.499
s-40.833 -12.5 -73.5 -12.5c-23.333 0 -46.166 7 -68.499 21s-45.833 34.333 -70.5 61s-50.667 59.334 -78 98.001l-90 133l-33 -31v-135c0 -8.66699 -2.33301 -15.834 -7 -21.501s-10.5 -10 -17.5 -13s-14.667 -5.16699 -23 -6.5s-16.5 -2 -24.5 -2s-15.333 3.66699 -22 11
s-10 16.333 -10 27v548c0 8.66699 -2.83301 17.167 -8.5 25.5s-11.834 16.5 -18.501 24.5l-18.5 23c-5.66699 7.33301 -8.5 14.333 -8.5 21c0 5.33301 3.5 12.5 10.5 21.5s15.833 17.5 26.5 25.5s22.334 15.167 35.001 21.5s25 9.5 37 9.5c16 0 28.167 -4 36.5 -12
s12.5 -18.667 12.5 -32v-469l153 181c-1.33301 10.667 -2.5 22.334 -3.5 35.001s-1.5 23.334 -1.5 32.001z" />
    <glyph glyph-name="l" unicode="l" horiz-adv-x="254" 
d="M180 132c0.666992 -6.66699 3.83203 -13.499 9.49902 -20.499s11.834 -13.833 18.501 -20.5s12.667 -13 18 -19s8 -11.333 8 -16c0 -6 -3.33301 -12.833 -10 -20.5s-15.5 -15 -26.5 -22s-23.833 -13 -38.5 -18s-29.667 -7.5 -45 -7.5c-10 0 -18.833 3.16699 -26.5 9.5
s-11.5 15.166 -11.5 26.499v653c0 8.66699 -2.83301 17.167 -8.5 25.5s-11.834 16.5 -18.501 24.5l-18.5 23c-5.66699 7.33301 -8.5 14.333 -8.5 21c0 5.33301 3.5 12.5 10.5 21.5s15.833 17.5 26.5 25.5s22.334 15.167 35.001 21.5s25 9.5 37 9.5c16 0 28.167 -3 36.5 -9
s12.5 -17.667 12.5 -35v-673z" />
    <glyph glyph-name="m" unicode="m" horiz-adv-x="870" 
d="M778 135c0 -7.33301 3 -14.6709 9 -22.0039s12.167 -14.333 18.5 -21l18.5 -19.5c6 -6.33301 9 -11.833 9 -16.5c0 -6 -3.33301 -12.833 -10 -20.5s-15.334 -15 -26.001 -22s-22.5 -13 -35.5 -18s-26.5 -7.5 -40.5 -7.5c-30.667 0 -46 12.667 -46 38v327
c0 22 -5.16699 42.333 -15.5 61s-25.833 28 -46.5 28c-14 0 -28 -4.16699 -42 -12.5s-27.167 -18.666 -39.5 -30.999s-22.5 -26.166 -30.5 -41.499s-12.333 -30.333 -13 -45v-279c0 -16 -6.83301 -27.5 -20.5 -34.5s-30.5 -10.5 -50.5 -10.5c-22 0 -33 14.667 -33 44v321
c0 22 -5.16699 42.333 -15.5 61s-25.833 28 -46.5 28c-14 0 -28 -4.16699 -42 -12.5s-27.167 -18.666 -39.5 -30.999s-22.5 -26.166 -30.5 -41.499s-12.333 -30.333 -13 -45v-281c0 -14 -6.83301 -24.667 -20.5 -32s-30.5 -11 -50.5 -11c-22 0 -33 14.667 -33 44v310
c0 8 -2.83301 16.333 -8.5 25s-11.834 17 -18.501 25l-18.5 23c-5.66699 7.33301 -8.5 14 -8.5 20c0 5.33301 3.5 12.5 10.5 21.5s15.833 17.667 26.5 26s22.334 15.5 35.001 21.5s25 9 37 9c16 0 28.167 -2.83301 36.5 -8.5s12.5 -17.5 12.5 -35.5v-40
c19.333 28.667 42.166 49.834 68.499 63.501s53.5 20.5 81.5 20.5c38.667 0 69.334 -8.5 92.001 -25.5s37.334 -38.833 44.001 -65.5c20 30.667 43.5 53.5 70.5 68.5s55.167 22.5 84.5 22.5c47.333 0 82.5 -12.333 105.5 -37s34.5 -55.334 34.5 -92.001v-249z" />
    <glyph glyph-name="n" unicode="n" horiz-adv-x="594" 
d="M193 30c0 -13.333 -6.66602 -23.665 -19.999 -30.998s-30.333 -11 -51 -11c-10 0 -18 3.66699 -24 11s-9 17.666 -9 30.999v312c0 8 -2.83301 16.333 -8.5 25s-11.834 17 -18.501 25l-18.5 23c-5.66699 7.33301 -8.5 14 -8.5 20c0 5.33301 3.5 12.5 10.5 21.5
s15.833 17.667 26.5 26s22.334 15.5 35.001 21.5s25 9 37 9c16 0 28.167 -2.83301 36.5 -8.5s12.5 -17.5 12.5 -35.5v-69c15.333 30 38.5 56.333 69.5 79s71.167 34 120.5 34c36.667 0 66.5 -12.333 89.5 -37s34.5 -55.334 34.5 -92.001v-240
c0 -7.33301 2.83301 -15 8.5 -23s11.667 -15.833 18 -23.5l18.5 -22.5c6 -7.33301 9 -13 9 -17c0 -6.66699 -3.33301 -13.834 -10 -21.501s-15.334 -15.167 -26.001 -22.5s-22.5 -13.5 -35.5 -18.5s-25.833 -7.5 -38.5 -7.5c-14.667 0 -26.334 3.16699 -35.001 9.5
s-13 15.833 -13 28.5v327c0 10.667 -1 21.334 -3 32.001s-5 20.334 -9 29.001s-9.66699 15.5 -17 20.5s-16 7.5 -26 7.5c-19.333 0 -38.166 -6 -56.499 -18s-34.833 -26.833 -49.5 -44.5s-26.5 -36.334 -35.5 -56.001s-13.5 -36.5 -13.5 -50.5v-243z" />
    <glyph glyph-name="o" unicode="o" horiz-adv-x="640" 
d="M33 251c0 34 7.5 67 22.5 99s35.833 60 62.5 84s57.334 43.167 92.001 57.5s71.667 21.5 111 21.5c40 0 77.167 -6.16699 111.5 -18.5s64.333 -29.833 90 -52.5s46.167 -50 61.5 -82s23 -68.333 23 -109c0 -34.667 -7.66699 -67.834 -23 -99.501
s-35.833 -59.667 -61.5 -84s-55.667 -43.666 -90 -57.999s-71.5 -21.5 -111.5 -21.5c-39.333 0 -76.333 6.16699 -111 18.5s-65.334 29.833 -92.001 52.5s-47.5 50.167 -62.5 82.5s-22.5 68.833 -22.5 109.5zM166 286c0 -25.333 2.83105 -51.4941 8.49805 -78.4941
s15.334 -51.833 29.001 -74.5s32.334 -41.334 56.001 -56.001s52.167 -22 85.5 -22c21.333 0 40.5 5 57.5 15s31 22.833 42 38.5s19.5 33.167 25.5 52.5s9 37.666 9 54.999c0 25.333 -3.16699 51.666 -9.5 78.999s-16.5 52.166 -30.5 74.499s-32.5 40.666 -55.5 54.999
s-51.833 21.5 -86.5 21.5c-22.667 0 -42.167 -5 -58.5 -15s-29.833 -22.833 -40.5 -38.5s-18.667 -32.834 -24 -51.501s-8 -37 -8 -55z" />
    <glyph glyph-name="p" unicode="p" horiz-adv-x="517" 
d="M47 445c0 29.333 3 47.998 9 55.998s11.333 12 16 12c5.33301 0 11.166 -3.66699 17.499 -11s12 -17.333 17 -30s9.33301 -27.167 13 -43.5s6.5 -33.5 8.5 -51.5c16 42 38.833 75.167 68.5 99.5s65.5 36.5 107.5 36.5c30.667 0 58.5 -6 83.5 -18s46.333 -28.333 64 -49
s31.334 -44.834 41.001 -72.501s14.5 -57.5 14.5 -89.5c0 -45.333 -6.16699 -86.166 -18.5 -122.499s-29.5 -67.333 -51.5 -93s-48.167 -45.5 -78.5 -59.5s-63.5 -21 -99.5 -21c-22.667 0 -42 1.83301 -58 5.5s-32.667 8.83398 -50 15.501v-124c0 -6 2.5 -12.167 7.5 -18.5
s10.5 -12.666 16.5 -18.999l16.5 -18c5 -5.66699 7.5 -10.5 7.5 -14.5c0 -6 -3.5 -13.167 -10.5 -21.5s-15.833 -16.333 -26.5 -24s-22.167 -14.167 -34.5 -19.5s-23.5 -8 -33.5 -8c-4.66699 0 -9.66699 0.333008 -15 1s-10.333 2.16699 -15 4.5s-8.66699 5.33301 -12 9
s-5 9.16699 -5 16.5v672zM286 441.998c-21.333 0 -40.1689 -6.33105 -56.502 -18.998s-30.333 -30 -42 -52s-20.5 -47.667 -26.5 -77s-9.33301 -61 -10 -95v-127c19.333 -6.66699 37.833 -11.834 55.5 -15.501s35.834 -5.5 54.501 -5.5c44 0 78 19.167 102 57.5
s36 91.166 36 158.499c0 22.667 -2 44.667 -6 66s-10.333 40 -19 56s-20.167 28.833 -34.5 38.5s-32.166 14.5 -53.499 14.5z" />
    <glyph glyph-name="q" unicode="q" horiz-adv-x="547" 
d="M461 -94c0 -8.66699 2.83008 -17.1689 8.49707 -25.502s11.834 -16.666 18.501 -24.999l18.5 -24c5.66699 -7.66699 8.5 -14.167 8.5 -19.5c0 -6 -3.5 -12.833 -10.5 -20.5s-15.833 -15 -26.5 -22s-22.334 -12.667 -35.001 -17s-25 -6.5 -37 -6.5
c-16 0 -28 2.83301 -36 8.5s-12 17.167 -12 34.5v255l9 79c-5.33301 -17.333 -12.833 -34.333 -22.5 -51s-21.167 -31.167 -34.5 -43.5s-28.666 -22.166 -45.999 -29.499s-36.333 -11 -57 -11c-31.333 0 -59.166 5.83301 -83.499 17.5s-44.666 27.667 -60.999 48
s-28.666 44.5 -36.999 72.5s-12.5 58.333 -12.5 91c0 54 8.5 99.5 25.5 136.5s38.333 67.5 64 91.5s53.167 41.333 82.5 52s55.666 16 78.999 16c38.667 0 73 -8.5 103 -25.5s61.333 -38.5 94 -64.5v-517zM222.997 61.998c21.333 0 40.3369 6.50098 57.0039 19.501
s30.667 29.333 42 49s20.166 40.667 26.499 63s9.5 42.5 9.5 60.5v146c-14.667 13.333 -31.334 24.833 -50.001 34.5s-36.667 14.5 -54 14.5c-16.667 0 -32.834 -4.5 -48.501 -13.5s-29.834 -22.333 -42.501 -40s-22.834 -39.834 -30.501 -66.501s-11.5 -58 -11.5 -94
c0 -23.333 2.5 -45.333 7.5 -66s11.833 -39 20.5 -55s19.334 -28.667 32.001 -38s26.667 -14 42 -14z" />
    <glyph glyph-name="r" unicode="r" horiz-adv-x="435" 
d="M190 30c0 -13.333 -6.66797 -23.667 -20.001 -31s-30.333 -11 -51 -11c-10 0 -18 3.66699 -24 11s-9 17.666 -9 30.999v312c0 8 -2.83301 16.333 -8.5 25s-11.834 17 -18.501 25l-18.5 23c-5.66699 7.33301 -8.5 14 -8.5 20c0 5.33301 3.5 12.5 10.5 21.5
s15.833 17.667 26.5 26s22.334 15.5 35.001 21.5s25 9 37 9c16 0 28.167 -2.83301 36.5 -8.5s12.5 -17.5 12.5 -35.5v-102c7.33301 17.333 16.333 34.833 27 52.5s22.334 33.5 35.001 47.5s26.167 25.167 40.5 33.5s29.5 12.5 45.5 12.5
c6.66699 0 15.167 -2.16699 25.5 -6.5s20.166 -9.83301 29.499 -16.5s17.166 -13.834 23.499 -21.501s9.5 -15.167 9.5 -22.5c0 -5.33301 -1.83301 -12.5 -5.5 -21.5s-8.5 -18 -14.5 -27s-12.667 -16.667 -20 -23s-14 -9.5 -20 -9.5c-8 0 -15 1.83301 -21 5.5
s-12 7.83398 -18 12.501s-11.833 8.83398 -17.5 12.501s-11.5 5.5 -17.5 5.5s-14.667 -4.5 -26 -13.5s-22.666 -20.5 -33.999 -34.5s-21.166 -29.167 -29.499 -45.5s-12.5 -31.833 -12.5 -46.5v-231z" />
    <glyph glyph-name="s" unicode="s" horiz-adv-x="497" 
d="M464 135c0 -22 -6.16895 -42.001 -18.502 -60.001s-29.333 -33.333 -51 -46s-46.167 -22.667 -73.5 -30s-55.666 -11 -84.999 -11s-56.5 3.66699 -81.5 11s-46.667 16.5 -65 27.5s-32.833 23.167 -43.5 36.5s-16 26.333 -16 39c0 5.33301 3 8 9 8c4 0 11 -2.66699 21 -8
s22.5 -11 37.5 -17s31.833 -11.667 50.5 -17s38.667 -8 60 -8c38.667 0 70.667 5.5 96 16.5s38 29.167 38 54.5c0 13.333 -7.33301 25.166 -22 35.499s-32.667 20.5 -54 30.5s-44.833 20.333 -70.5 31s-49.334 23 -71.001 37s-40 30.5 -55 49.5s-22.5 41.5 -22.5 67.5
c0 14 4.66699 28.833 14 44.5s23 29.834 41 42.501s40.167 23.167 66.5 31.5s57.5 12.5 93.5 12.5c51.333 0 93.5 -4.66699 126.5 -14s49.5 -22 49.5 -38c0 -6 -2.66699 -14 -8 -24s-11.666 -19.667 -18.999 -29s-15 -17.166 -23 -23.499s-15.333 -9.5 -22 -9.5
c-7.33301 0 -14 4 -20 12s-12.833 16.667 -20.5 26s-16.667 18 -27 26s-23.166 12 -38.499 12c-64.667 0 -97 -22.667 -97 -68c0 -13.333 7.5 -25.333 22.5 -36s33.667 -21 56 -31l72.5 -31.5c26 -11 50 -23.667 72 -38s40.5 -30.5 55.5 -48.5s22.5 -39 22.5 -63z" />
    <glyph glyph-name="t" unicode="t" horiz-adv-x="369" 
d="M199 437l-0.00195312 -314.001c0 -12 3.83301 -21.667 11.5 -29s18.167 -11 31.5 -11c8 0 17 2.5 27 7.5s19.333 10.5 28 16.5l24 16.5c7.33301 5 12 7.5 14 7.5c9.33301 0 14 -3.66699 14 -11s-3.16699 -18.166 -9.5 -32.499s-15.5 -28.833 -27.5 -43.5
s-26.167 -27.667 -42.5 -39s-34.5 -17 -54.5 -17s-37.5 3.16699 -52.5 9.5s-27.5 14.333 -37.5 24s-17.5 20.5 -22.5 32.5s-7.5 24.333 -7.5 37v337c0 2.66699 -4 4.83398 -12 6.50098l-26.5 5.5c-9.66699 2 -18.5 4.33301 -26.5 7s-12 7 -12 13s6.66699 18.5 20 37.5
s28.833 38.167 46.5 57.5s35.334 36.666 53.001 51.999s30.834 23 39.501 23c8 0 13.667 -2.83301 17 -8.5s5 -13.167 5 -22.5v-98h143c4 0 7.16699 -2.16699 9.5 -6.5s3.5 -9.83301 3.5 -16.5c0 -8 -2.66699 -16.833 -8 -26.5s-12.333 -14.5 -21 -14.5h-127z" />
    <glyph glyph-name="u" unicode="u" horiz-adv-x="551" 
d="M399 472c0 12.667 6.5 22.668 19.5 30.001s29.833 11 50.5 11c10 0 18.167 -3.66699 24.5 -11s9.5 -17.333 9.5 -30v-435c0 -13.333 -2 -24.833 -6 -34.5s-10.667 -14.5 -20 -14.5c-10.667 0 -21.334 8.66699 -32.001 26s-18 40 -22 68
c-17.333 -28.667 -43.333 -51.5 -78 -68.5s-75.667 -25.5 -123 -25.5c-42.667 0 -76.167 12.333 -100.5 37s-36.5 55.334 -36.5 92.001v229c0 7.33301 -2.83301 15 -8.5 23s-11.834 15.833 -18.501 23.5s-12.834 15.167 -18.501 22.5s-8.5 13 -8.5 17
c0 5.33301 3.33301 12.666 10 21.999s15.334 18.5 26.001 27.5s22.334 16.5 35.001 22.5s25.334 9 38.001 9c14.667 0 26.5 -3 35.5 -9s13.5 -15.667 13.5 -29v-327c0 -10.667 0.833008 -21.334 2.5 -32.001s5.16699 -20.167 10.5 -28.5s12.5 -15 21.5 -20
s20.5 -7.5 34.5 -7.5c16.667 0 33.667 4.16699 51 12.5s32.5 19 45.5 32s23.667 27.333 32 43s12.5 31.167 12.5 46.5v278z" />
    <glyph glyph-name="v" unicode="v" horiz-adv-x="547" 
d="M351 56c-8.66699 -21.333 -18.8311 -37.9951 -30.498 -49.9951s-25.167 -18 -40.5 -18c-30 0 -52.333 21 -67 63l-127 296c-1.33301 3.33301 -5.66602 9.16602 -12.999 17.499l-23 26.5c-8 9.33301 -15.167 18.166 -21.5 26.499s-9.5 14.166 -9.5 17.499
c0 7.33301 2 15.666 6 24.999s9.66699 17.833 17 25.5s16.166 14.167 26.499 19.5s21.5 8 33.5 8c11.333 0 21 -2 29 -6s13.667 -10 17 -18l147 -381h5l93 239c0 3.33301 -0.333008 9.66602 -1 18.999s-1.33398 19.333 -2.00098 30s-1.33398 20.667 -2.00098 30s-1 16 -1 20
c0 5.33301 2.33301 11.833 7 19.5s11.5 15 20.5 22s19.833 13 32.5 18s26.667 7.5 42 7.5c10 0 18.667 -2.5 26 -7.5s11 -12.833 11 -23.5c0 -6 -1 -12.167 -3 -18.5s-5.66699 -15.5 -11 -27.5z" />
    <glyph glyph-name="w" unicode="w" horiz-adv-x="812" 
d="M630 56c-8.66699 -22 -17.501 -38.8301 -26.501 -50.4971s-20.167 -17.5 -33.5 -17.5c-30 0 -52.333 21 -67 63l-95 272l-93 -267c-6 -17.333 -14.667 -33 -26 -47s-22.666 -21 -33.999 -21c-15.333 0 -28.5 4.83301 -39.5 14.5s-20.167 25.834 -27.5 48.501l-92 296
c-1.33301 3.33301 -5.66602 9.16602 -12.999 17.499l-23 26.5c-8 9.33301 -15.167 18.166 -21.5 26.499s-9.5 14.166 -9.5 17.499c0 7.33301 1.83301 15.666 5.5 24.999s9 17.833 16 25.5s15.167 14.167 24.5 19.5s20.333 8 33 8c21.333 0 36.666 -8 45.999 -24l110 -369h6
l95 273c0 3.33301 -1.33301 7.33301 -4 12s-5.66699 9.5 -9 14.5l-9 14c-2.66699 4.33301 -4 8.5 -4 12.5c0 7.33301 2.33301 15 7 23s10.5 15.167 17.5 21.5s14.667 11.666 23 15.999s16.5 6.5 24.5 6.5c11.333 0 21.5 -2.5 30.5 -7.5s14.167 -10.5 15.5 -16.5l122 -369h6
l76 239c0 2.66699 -0.333008 8.66699 -1 18s-1.5 19.333 -2.5 30s-1.83301 20.834 -2.5 30.501s-1 16.5 -1 20.5c0 5.33301 2 11 6 17s9.5 11.833 16.5 17.5s16.333 10.5 28 14.5s25.167 6 40.5 6c10 0 18.667 -2.5 26 -7.5s11 -12.833 11 -23.5c0 -6 -1 -12.167 -3 -18.5
s-5.66699 -15.5 -11 -27.5z" />
    <glyph glyph-name="x" unicode="x" horiz-adv-x="529" 
d="M22 28c0 18 4.83398 36.0029 14.501 54.0029s23.167 36.167 40.5 54.5s37 36.833 59 55.5s45.333 37 70 55l-82 122c-3.33301 4.66699 -9.5 10.334 -18.5 17.001l-29 20.5c-10.333 7 -19.666 14 -27.999 21s-12.5 12.5 -12.5 16.5c0 3.33301 2.5 8.83301 7.5 16.5
s11.333 15.5 19 23.5s16.167 14.833 25.5 20.5s18.333 8.5 27 8.5c10.667 0 20.334 -2 29.001 -6s16 -11.333 22 -22l113 -183c29.333 28 52.833 59.667 70.5 95s26.5 68.666 26.5 99.999c0 12 -0.666992 24.333 -2 37s-2 22 -2 28c0 4 1.16699 7.5 3.5 10.5
s7.16602 4.5 14.499 4.5c10.667 0 20.667 -2.5 30 -7.5s17.5 -11 24.5 -18s12.667 -15.167 17 -24.5s6.5 -18.666 6.5 -27.999c0 -20 -4.33301 -40.667 -13 -62s-19.834 -42.333 -33.501 -63s-29.834 -41 -48.501 -61s-38.334 -38.333 -59.001 -55l100 -150
c2.66699 -4.66699 8.33398 -9.33398 17.001 -14.001s17.5 -9 26.5 -13s17 -8 24 -12s10.5 -7.66699 10.5 -11c0 -4 -2.5 -9.83301 -7.5 -17.5s-11.5 -15.334 -19.5 -23.001s-16.667 -14.5 -26 -20.5s-18 -9 -26 -9c-12 0 -22 2 -30 6s-15.667 11.333 -23 22l-121 188
c-30.667 -24.667 -54.5 -48 -71.5 -70s-25.5 -42.667 -25.5 -62c0 -8.66699 3.5 -17.334 10.5 -26.001s10.5 -16.334 10.5 -23.001c0 -4.66699 -3 -9.16699 -9 -13.5s-14 -8 -24 -11s-21.167 -5.5 -33.5 -7.5s-24.833 -3 -37.5 -3c-12 0 -21.167 4.16699 -27.5 12.5
s-9.5 17.5 -9.5 27.5z" />
    <glyph glyph-name="y" unicode="y" horiz-adv-x="635" 
d="M112 -178c14 0 29.502 3.3291 46.502 9.99609s35.833 15.5 56.5 26.5s36.5 22.333 47.5 34s26.5 32.5 46.5 62.5l-168 408c-2.66699 8.66699 -7.33398 16.334 -14.001 23.001s-13.334 12.667 -20.001 18s-12.334 10.5 -17.001 15.5s-7 10.167 -7 15.5
c0 7.33301 2.66699 15.666 8 24.999s12.333 18 21 26s18.5 14.5 29.5 19.5s22.5 7.5 34.5 7.5c8.66699 0 17.5 -2 26.5 -6s15.167 -11 18.5 -21l155 -408h18c32 56.667 54.167 119.334 66.5 188.001s18.5 143.334 18.5 224.001c0 17.333 -0.5 31.833 -1.5 43.5
s-1.5 21.167 -1.5 28.5c0 4.66699 1 8.33398 3 11.001s6.66699 4 14 4c8.66699 0 17.5 -1.66699 26.5 -5s17.333 -8.66602 25 -15.999s14 -16.5 19 -27.5s7.5 -23.833 7.5 -38.5c0 -70 -8.5 -139 -25.5 -207s-40 -133.167 -69 -195.5s-62 -119.666 -99 -171.999
s-66 -89.833 -87 -112.5s-48.5 -44.167 -82.5 -64.5s-67.667 -30.5 -101 -30.5c-7.33301 0 -14.833 2.83301 -22.5 8.5s-14.667 13.167 -21 22.5s-11.333 19.666 -15 30.999s-5.5 23 -5.5 35c0 19.333 6 29 18 29c6.66699 0 13.834 -2 21.501 -6s17.5 -6 29.5 -6z" />
    <glyph glyph-name="z" unicode="z" horiz-adv-x="525" 
d="M87 0c-12.667 0 -23.832 1.66602 -33.499 4.99902s-14.5 11 -14.5 23c0 6 2.16699 12.833 6.5 20.5l15.5 26.5l274 354c0 11.333 -7 17 -21 17c-22 0 -39.167 -0.166992 -51.5 -0.5s-23 -0.666016 -32 -0.999023s-17.667 -1.16602 -26 -2.49902s-19.833 -3 -34.5 -5
c-6.66699 -0.666992 -14.334 -5.83398 -23.001 -15.501s-17.167 -19.834 -25.5 -30.501l-24 -30c-7.66699 -9.33301 -13.834 -14 -18.501 -14c-6 0 -10 3.33301 -12 10s-3 16 -3 28c0 6 1.16699 16.5 3.5 31.5s5.33301 30.333 9 46s8 29.5 13 41.5s10.167 18 15.5 18
c6.66699 0 12.334 -3.5 17.001 -10.5s11 -10.5 19 -10.5h271c20 0 35.167 -2.5 45.5 -7.5s15.5 -10.5 15.5 -16.5c0 -8 -2.83301 -17.667 -8.5 -29s-12.167 -22.666 -19.5 -33.999l-254 -330c-3.33301 -5.33301 -5 -11.333 -5 -18c0 -7.33301 4 -11 12 -11
c22 0 41.333 0.166992 58 0.5s31.667 0.833008 45 1.5s26.333 1.5 39 2.5s26.334 2.5 41.001 4.5c6.66699 1.33301 13 5.16602 19 11.499s11.667 13.333 17 21s10.5 14.667 15.5 21s9.83301 9.5 14.5 9.5s9.66699 -3 15 -9s10.166 -13.167 14.499 -21.5
s8 -17.666 11 -27.999s4.5 -20.5 4.5 -30.5c0 -13.333 -2.5 -23 -7.5 -29s-14.5 -9 -28.5 -9h-369z" />
    <glyph glyph-name="braceleft" unicode="{" horiz-adv-x="250" 
d="M194 746c-17.333 0 -30 -6.99902 -38 -20.999s-12 -37.667 -12 -71c0 -26 2.66699 -51.167 8 -75.5s11.333 -48.666 18 -72.999s12.667 -49 18 -74s8 -50.833 8 -77.5c0 -10.667 -2.83301 -22.167 -8.5 -34.5s-12.834 -24 -21.501 -35s-18.167 -20.667 -28.5 -29
s-19.833 -14.5 -28.5 -18.5c8.66699 -2.66699 18.167 -7.83398 28.5 -15.501s19.833 -16.667 28.5 -27s15.834 -21.333 21.501 -33s8.5 -22.5 8.5 -32.5c0 -28 -2.66699 -54.5 -8 -79.5s-11.333 -49.833 -18 -74.5s-12.667 -49.5 -18 -74.5s-8 -51.5 -8 -79.5
c0 -30.667 4.66699 -53.5 14 -68.5s21.666 -22.5 36.999 -22.5c5.33301 0 12.5 -0.833008 21.5 -2.5s13.5 -5.83398 13.5 -12.501c0 -7.33301 -4.5 -11.833 -13.5 -13.5s-16.833 -2.5 -23.5 -2.5c-18 0.666992 -35.5 4 -52.5 10s-32 14.5 -45 25.5s-23.5 24 -31.5 39
s-12 31.5 -12 49.5c0 26 2.83301 51.333 8.5 76s11.667 49.167 18 73.5s12.333 48.833 18 73.5s8.5 50.334 8.5 77.001c0 12.667 -1.16699 25 -3.5 37s-5.5 22.667 -9.5 32s-9 16.833 -15 22.5s-12.667 8.5 -20 8.5c-6.66699 0 -14.5 0.833008 -23.5 2.5
s-13.5 5.5 -13.5 11.5c0 6.66699 4.5 11 13.5 13s16.833 3 23.5 3c7.33301 0 14 2.83301 20 8.5s11 13.334 15 23.001s7.16699 20.5 9.5 32.5s3.5 24.333 3.5 37c0 26 -2.83301 51.167 -8.5 75.5s-11.667 48.666 -18 72.999s-12.333 48.833 -18 73.5s-8.5 50.667 -8.5 78
c0 17.333 4 33.5 12 48.5s18.5 28 31.5 39s28 19.667 45 26s34.5 9.5 52.5 9.5c8 0 16.167 -0.833008 24.5 -2.5s12.5 -5.83398 12.5 -12.501s-4.16699 -11 -12.5 -13s-16.166 -3 -23.499 -3z" />
    <glyph glyph-name="bar" unicode="|" horiz-adv-x="126" 
d="M106 -260c0 -14 -5 -24.5 -15 -31.5s-19.333 -10.5 -28 -10.5c-8 0 -17.167 3.5 -27.5 10.5s-15.5 17.5 -15.5 31.5v1017c0 14 5 24.5 15 31.5s19.333 10.5 28 10.5c8 0 17.167 -3.5 27.5 -10.5s15.5 -17.5 15.5 -31.5v-1017z" />
    <glyph glyph-name="braceright" unicode="}" horiz-adv-x="250" 
d="M56 746c-7.33301 0 -15.166 0.999023 -23.499 2.99902s-12.5 6.33301 -12.5 13s4.16699 10.834 12.5 12.501s16.5 2.5 24.5 2.5c18 0 35.5 -3.16699 52.5 -9.5s32 -15 45 -26s23.5 -24 31.5 -39s12 -31.167 12 -48.5c0 -27.333 -2.83301 -53.333 -8.5 -78
s-11.667 -49.167 -18 -73.5s-12.333 -48.666 -18 -72.999s-8.5 -49.5 -8.5 -75.5c0 -12.667 1.16699 -25 3.5 -37s5.5 -22.833 9.5 -32.5s9 -17.334 15 -23.001s12.667 -8.5 20 -8.5c6.66699 0 14.5 -1 23.5 -3s13.5 -6.33301 13.5 -13c0 -6 -4.5 -9.83301 -13.5 -11.5
s-16.833 -2.5 -23.5 -2.5c-7.33301 0 -14 -2.83301 -20 -8.5s-11 -13.167 -15 -22.5s-7.16699 -20 -9.5 -32s-3.5 -24.333 -3.5 -37c0 -26.667 2.83301 -52.334 8.5 -77.001s11.667 -49.167 18 -73.5s12.333 -48.833 18 -73.5s8.5 -50 8.5 -76c0 -18 -4 -34.5 -12 -49.5
s-18.5 -28 -31.5 -39s-28 -19.5 -45 -25.5s-34.5 -9.33301 -52.5 -10c-6.66699 0 -14.5 0.833008 -23.5 2.5s-13.5 6.16699 -13.5 13.5c0 6.66699 4.5 10.834 13.5 12.501s16.167 2.5 21.5 2.5c15.333 0 27.666 7.5 36.999 22.5s14 37.833 14 68.5
c0 28 -2.66699 54.5 -8 79.5s-11.333 49.833 -18 74.5s-12.667 49.5 -18 74.5s-8 51.5 -8 79.5c0 10 2.83301 20.833 8.5 32.5s12.834 22.667 21.501 33s18.167 19.333 28.5 27s19.833 12.834 28.5 15.501c-8.66699 4 -18.167 10.167 -28.5 18.5s-19.833 18 -28.5 29
s-15.834 22.667 -21.501 35s-8.5 23.833 -8.5 34.5c0 26.667 2.66699 52.5 8 77.5s11.333 49.667 18 74s12.667 48.666 18 72.999s8 49.5 8 75.5c0 33.333 -4 57 -12 71s-20.667 21 -38 21z" />
    <glyph glyph-name="asciitilde" unicode="~" horiz-adv-x="609" 
d="M161 421c-30 0 -56 -9 -78 -27s-38.333 -43.667 -49 -77c-2 -5.33301 -4.33301 -8 -7 -8c-4.66699 0 -7 5.33301 -7 16c0 22 4.5 43.5 13.5 64.5s21.167 39.833 36.5 56.5s33.5 30.167 54.5 40.5s43.167 15.5 66.5 15.5c21.333 0 42.666 -5.83301 63.999 -17.5
s42.5 -24.5 63.5 -38.5s41.667 -26.833 62 -38.5s40.166 -17.5 59.499 -17.5c22.667 0 41.5 3.5 56.5 10.5s27.5 15.667 37.5 26s18 21.5 24 33.5s11 23.333 15 34c2 5.33301 5.33301 8 10 8c4 0 6 -5.33301 6 -16c0 -18 -4.16699 -37.333 -12.5 -58s-20 -40 -35 -58
s-32.833 -32.833 -53.5 -44.5s-43.667 -17.5 -69 -17.5c-22 0 -43.833 5.83301 -65.5 17.5s-43.167 24.667 -64.5 39s-42.666 27.333 -63.999 39s-42.666 17.5 -63.999 17.5z" />
    <glyph glyph-name="exclamdown" unicode="&#xa1;" horiz-adv-x="153" 
d="M20 -241.917c0 -11.332 5.83398 -21.1641 17.501 -29.4961c11.667 -8.33301 24.5 -12.499 38.5 -12.499s27 4.16602 39 12.499c12 8.33203 18 18.1641 18 29.4961l-30 463.943c-1.33301 15.3311 -10.333 22.9971 -27 22.9971c-9.33301 0 -15.833 -2 -19.5 -5.99902
s-5.83398 -9.66504 -6.50098 -16.998zM20.001 390.006c0 -15.3311 5.5 -28.6631 16.5 -39.9951s24.167 -16.998 39.5 -16.998s28.666 5.66602 39.999 16.998s17 24.6641 17 39.9951s-5.66699 28.4961 -17 39.4951s-24.666 16.498 -39.999 16.498
s-28.5 -5.49902 -39.5 -16.498s-16.5 -24.1641 -16.5 -39.4951z" />
    <glyph glyph-name="cent" unicode="&#xa2;" horiz-adv-x="437" 
d="M417 111c0 -12.667 -3.99707 -26.1699 -11.9971 -40.5029s-19.667 -27.5 -35 -39.5s-34 -21.833 -56 -29.5s-47 -11.5 -75 -11.5c-29.333 0 -56.666 4 -81.999 12s-47.333 20.5 -66 37.5s-33.5 38.667 -44.5 65s-16.5 57.5 -16.5 93.5c0 34 5 66 15 96
s24.667 56.333 44 79s43.166 40.5 71.499 53.5s60.833 19.5 97.5 19.5c18 0 35.333 -1.16699 52 -3.5s31.167 -5.66602 43.5 -9.99902s22.333 -9.5 30 -15.5s11.5 -12.667 11.5 -20s-2.33301 -15.666 -7 -24.999s-10.334 -18.166 -17.001 -26.499s-13.667 -15.333 -21 -21
s-13.666 -8.5 -18.999 -8.5s-10.666 4 -15.999 12s-11.5 16.667 -18.5 26s-14.833 18 -23.5 26s-18.334 12 -29.001 12c-14 0 -27.833 -2.33301 -41.5 -7s-25.834 -13 -36.501 -25s-19.334 -28.667 -26.001 -50s-10 -49 -10 -83c0 -29.333 3.66699 -54.5 11 -75.5
s17.333 -38 30 -51s27.5 -22.5 44.5 -28.5s35.167 -9 54.5 -9c22.667 0 42 2.83301 58 8.5s29.5 12 40.5 19s19.667 13.5 26 19.5s11.166 9 14.499 9c5.33301 0 8 -2.66699 8 -8zM271.003 -95.0029c0 -14 -3.33301 -23.667 -10 -29s-14.334 -8 -23.001 -8
c-8 0 -15.5 2.66699 -22.5 8s-10.5 15 -10.5 29v597c0 14 3.33301 23.667 10 29s14.334 8 23.001 8c8 0 15.5 -2.66699 22.5 -8s10.5 -15 10.5 -29v-597z" />
    <glyph glyph-name="sterling" unicode="&#xa3;" horiz-adv-x="652" 
d="M209 354l-0.000976562 -358.001c74.667 0.666992 135.5 1.66699 182.5 3s85.167 4.33301 114.5 9c6.66699 1.33301 12 7.83301 16 19.5s7.66699 24.167 11 37.5s7.16602 25.5 11.499 36.5s10.5 16.5 18.5 16.5c6 0 13.333 -6.16699 22 -18.5s17.334 -27 26.001 -44
s16 -34.167 22 -51.5s9 -31 9 -41c0 -11.333 -3 -19.833 -9 -25.5s-17.667 -8.5 -35 -8.5h-553c-8 0 -14.167 3.33301 -18.5 10s-6.5 14.334 -6.5 23.001c0 8 2.16699 15.667 6.5 23s10.5 11 18.5 11h60v358h-62c-7.33301 0 -13 3.16699 -17 9.5s-6 13.166 -6 20.499
s2 14.333 6 21s9.66699 10 17 10h62c2 44 8.5 85.167 19.5 123.5s27.167 71.666 48.5 99.999s49 50.666 83 66.999s75 24.5 123 24.5c60.667 0 107.5 -6 140.5 -18s49.5 -28.667 49.5 -50c0 -6 -2.33301 -13.833 -7 -23.5s-10.5 -19 -17.5 -28s-15.167 -16.833 -24.5 -23.5
s-18.333 -10 -27 -10c-13.333 0 -25 4.33301 -35 13s-19.667 18.334 -29 29.001s-19.333 20.334 -30 29.001s-23.334 13 -38.001 13c-27.333 0 -50.166 -5 -68.499 -15s-33.166 -25.167 -44.499 -45.5s-20 -45.833 -26 -76.5s-10 -67 -12 -109h219
c7.33301 0 12.833 -3.33301 16.5 -10s5.5 -13.667 5.5 -21s-1.83301 -14.166 -5.5 -20.499s-9.16699 -9.5 -16.5 -9.5h-220z" />
    <glyph glyph-name="currency" unicode="&#xa4;" horiz-adv-x="512" 
d="M369 62c-33.333 -24 -70.998 -36 -112.998 -36s-79.667 12 -113 36l-56 -56c-6.66699 -6.66699 -14.5 -9.83398 -23.5 -9.50098s-16.5 3.5 -22.5 9.5c-5.33301 6 -8.33301 13.667 -9 23s2 17 8 23l56 56c-11.333 16 -20 33.5 -26 52.5s-9 39.167 -9 60.5
c0 42 12 79.667 36 113l-57 57c-6.66699 6.66699 -9.83398 14.5 -9.50098 23.5s3.5 16.5 9.5 22.5c6 5.33301 13.667 8.33301 23 9s17 -2 23 -8l57 -58c33.333 24 71 36 113 36c41.333 0 78.666 -12 111.999 -36l58 58c6.66699 6.66699 14.5 9.83398 23.5 9.50098
s16.5 -3.5 22.5 -9.5c5.33301 -6 8.33301 -13.667 9 -23s-2 -17 -8 -23l-58 -58c11.333 -16 20.166 -33.5 26.499 -52.5s9.5 -39.167 9.5 -60.5c0 -42 -12 -79.667 -36 -113l57 -56c6.66699 -6.66699 9.83398 -14.5 9.50098 -23.5s-3.5 -16.5 -9.5 -22.5
c-6 -5.33301 -13.667 -8.33301 -23 -9s-17 2 -23 8zM138.002 221c0 -16 3.16699 -31.167 9.5 -45.5s14.833 -26.833 25.5 -37.5s23.167 -19.167 37.5 -25.5s29.5 -9.5 45.5 -9.5s31.167 3.16699 45.5 9.5s26.833 14.833 37.5 25.5s19.167 23.167 25.5 37.5
s9.5 29.5 9.5 45.5s-3.16699 31.167 -9.5 45.5s-14.833 26.833 -25.5 37.5s-23.167 19.167 -37.5 25.5s-29.5 9.5 -45.5 9.5s-31.167 -3.16699 -45.5 -9.5s-26.833 -14.833 -37.5 -25.5s-19.167 -23.167 -25.5 -37.5s-9.5 -29.5 -9.5 -45.5z" />
    <glyph glyph-name="yen" unicode="&#xa5;" horiz-adv-x="673" 
d="M291 248l-202 367.001c-2 4 -7.16699 8.5 -15.5 13.5l-27 15.5c-9.66699 5.33301 -18.167 10.666 -25.5 15.999s-11 10.333 -11 15s3.5 9.66699 10.5 15s16 10.333 27 15s23.167 8.33398 36.5 11.001s26.666 4 39.999 4c12 0 24.833 -2.5 38.5 -7.5
s22.5 -11.5 26.5 -19.5l172 -368l166 302c-2 5.33301 -5.5 10.166 -10.5 14.499s-10.167 8.5 -15.5 12.5s-10.166 8.5 -14.499 13.5s-6.5 10.5 -6.5 16.5c0 4.66699 4.33301 9.33398 13 14.001s19.5 8.5 32.5 11.5s27.333 5.5 43 7.5s30.5 3 44.5 3
c10.667 0 20 -1.83301 28 -5.5s12 -10.167 12 -19.5c0 -4 -0.5 -10 -1.5 -18s-4.16699 -16.333 -9.5 -25l-236 -397v-172c0 -11.333 4 -22.333 12 -33s16.667 -20.667 26 -30l26 -27c8 -8.66699 12 -17 12 -25c0 -4 -5.16699 -8.33301 -15.5 -13s-23 -9.16699 -38 -13.5
s-30.5 -7.83301 -46.5 -10.5s-30 -4 -42 -4c-16.667 0 -29 2.16699 -37 6.5s-12 12.166 -12 23.499v291zM112 229.001c-9.33301 0 -17 3.33301 -23 10s-9 14.334 -9 23.001c0 8 3 15.5 9 22.5s13.667 10.5 23 10.5h489c9.33301 0 17 -3.33301 23 -10s9 -14.334 9 -23.001
c0 -8 -3 -15.5 -9 -22.5s-13.667 -10.5 -23 -10.5h-489zM112 89.001c-9.33301 0 -17 3.33301 -23 10s-9 14.334 -9 23.001c0 8 3 15.5 9 22.5s13.667 10.5 23 10.5h489c9.33301 0 17 -3.33301 23 -10s9 -14.334 9 -23.001c0 -8 -3 -15.5 -9 -22.5s-13.667 -10.5 -23 -10.5
h-489z" />
    <glyph glyph-name="brokenbar" unicode="&#xa6;" horiz-adv-x="126" 
d="M20 757c0 14 5 24.5 15 31.5s19.333 10.5 28 10.5c8 0 17.167 -3.5 27.5 -10.5s15.5 -17.5 15.5 -31.5v-414c0 -14 -5 -24.5 -15 -31.5s-19.333 -10.5 -28 -10.5c-8 0 -17.167 3.5 -27.5 10.5s-15.5 17.5 -15.5 31.5v414zM20 154c0 14 5 24.5 15 31.5
s19.333 10.5 28 10.5c8 0 17.167 -3.5 27.5 -10.5s15.5 -17.5 15.5 -31.5v-414c0 -14 -5 -24.5 -15 -31.5s-19.333 -10.5 -28 -10.5c-8 0 -17.167 3.5 -27.5 10.5s-15.5 17.5 -15.5 31.5v414z" />
    <glyph glyph-name="section" unicode="&#xa7;" horiz-adv-x="477" 
d="M261 776c23.333 0 44.167 -1.67969 62.5 -5.0127s33.833 -7.16602 46.5 -11.499s22.334 -9.16602 29.001 -14.499s10 -10 10 -14c0 -5.33301 -2.33301 -11.666 -7 -18.999s-10.5 -14.166 -17.5 -20.499s-14.167 -11.833 -21.5 -16.5s-13.333 -7 -18 -7
c-9.33301 0 -18 2.83301 -26 8.5s-16.333 12 -25 19s-18 13.333 -28 19s-21.333 8.5 -34 8.5c-27.333 0 -47 -8.33301 -59 -25s-18 -39.667 -18 -69c0 -28 8.5 -52.333 25.5 -73s37.333 -39 61 -55s48.5 -30.167 74.5 -42.5s48 -24.5 66 -36.5
c21.333 -14 39.166 -30.833 53.499 -50.5s21.5 -43.5 21.5 -71.5c0 -21.333 -5.5 -40.833 -16.5 -58.5s-24.667 -33.5 -41 -47.5s-34 -26.333 -53 -37s-36.5 -19.667 -52.5 -27c20 -15.333 37.667 -29.666 53 -42.999s28.166 -27.166 38.499 -41.499
s18.166 -30.166 23.499 -47.499s8 -37 8 -59c0 -27.333 -5.66699 -51.5 -17 -72.5s-26.666 -38.667 -45.999 -53s-41.5 -25.166 -66.5 -32.499s-51.5 -11 -79.5 -11c-13.333 0 -28.166 1.33301 -44.499 4s-31.5 6 -45.5 10s-25.833 8.66699 -35.5 14s-14.5 11 -14.5 17
c0 4.66699 2.33301 10.667 7 18s10.5 14.333 17.5 21s14 12.334 21 17.001s13.167 7 18.5 7c8.66699 0 17.334 -2.83301 26.001 -8.5s17.5 -12 26.5 -19s18.5 -13.333 28.5 -19s20.667 -8.5 32 -8.5c26 0 45.333 8.33301 58 25s19 40 19 70
c0 27.333 -7.83301 50.833 -23.5 70.5s-34.834 37 -57.501 52s-46.334 28.5 -71.001 40.5s-46 23.667 -64 35c-25.333 16 -46 34.667 -62 56s-24 46.333 -24 75c0 21.333 5.5 40.666 16.5 57.999s24.833 33 41.5 47s34.334 26.333 53.001 37s36 19.667 52 27
c-20 14.667 -37.5 28.834 -52.5 42.501s-27.833 27.834 -38.5 42.501s-18.667 30.5 -24 47.5s-8 36.5 -8 58.5c0 26.667 5.66699 50.334 17 71.001s26.333 38.334 45 53.001s40 25.834 64 33.501s49 11.5 75 11.5zM342.001 262.987c0 14.667 -3.33203 28.833 -9.99902 42.5
s-15.334 26 -26.001 37s-22.5 20.667 -35.5 29s-25.5 14.5 -37.5 18.5c-27.333 -10 -50.5 -23.5 -69.5 -40.5s-28.5 -39.167 -28.5 -66.5c0 -14 3 -27.5 9 -40.5s14 -24.833 24 -35.5s21.667 -20.5 35 -29.5s27 -16.5 41 -22.5c13.333 6 25.833 12.333 37.5 19
s22 14.167 31 22.5s16.167 18 21.5 29s8 23.5 8 37.5z" />
    <glyph glyph-name="dieresis" unicode="&#xa8;" horiz-adv-x="283" 
d="M20 596c0 15.333 3.83301 28.666 11.5 39.999s19.167 17 34.5 17s27 -5.66699 35 -17s12 -24.666 12 -39.999s-4 -28.5 -12 -39.5s-19.667 -16.5 -35 -16.5s-26.833 5.5 -34.5 16.5s-11.5 24.167 -11.5 39.5zM170 596c0 15.333 3.83301 28.666 11.5 39.999
s19.167 17 34.5 17s27 -5.66699 35 -17s12 -24.666 12 -39.999s-4 -28.5 -12 -39.5s-19.667 -16.5 -35 -16.5s-26.833 5.5 -34.5 16.5s-11.5 24.167 -11.5 39.5z" />
    <glyph glyph-name="copyright" unicode="&#xa9;" horiz-adv-x="921" 
d="M20 348c0 61.333 11.5 118.833 34.5 172.5s54.333 100.5 94 140.5s86.167 71.5 139.5 94.5s110.333 34.5 171 34.5c61.333 0 118.833 -11.5 172.5 -34.5s100.5 -54.5 140.5 -94.5s71.5 -86.833 94.5 -140.5s34.5 -111.167 34.5 -172.5
c0 -60.667 -11.5 -117.667 -34.5 -171s-54.5 -99.666 -94.5 -138.999s-86.833 -70.5 -140.5 -93.5s-111.167 -34.5 -172.5 -34.5c-60.667 0 -117.667 11.5 -171 34.5s-99.833 54.167 -139.5 93.5s-71 85.666 -94 138.999s-34.5 110.333 -34.5 171zM78 348
c0 -52.667 9.83301 -102.167 29.5 -148.5s46.834 -86.666 81.501 -120.999s75 -61.5 121 -81.5s95.667 -30 149 -30c52.667 0 102.167 10 148.5 30s86.833 47.167 121.5 81.5s62 74.666 82 120.999s30 95.833 30 148.5s-10 102.167 -30 148.5s-47.333 86.833 -82 121.5
s-75.167 62.167 -121.5 82.5s-95.833 30.5 -148.5 30.5c-53.333 0 -103 -10.167 -149 -30.5s-86.333 -47.833 -121 -82.5s-61.834 -75.167 -81.501 -121.5s-29.5 -95.833 -29.5 -148.5zM650 220c0.666992 0 1.32812 -1.50195 1.99512 -4.50195
s1.33398 -6.16699 2.00098 -9.5l2 -10.5c0.666992 -3.66699 1 -5.83398 1 -6.50098c0 -10.667 -4.16699 -22.167 -12.5 -34.5s-20.333 -23.833 -36 -34.5s-34.334 -19.667 -56.001 -27s-45.834 -11 -72.501 -11c-37.333 0 -71.666 5.83301 -102.999 17.5
s-58.166 28.667 -80.499 51s-39.666 50 -51.999 83s-18.5 70.5 -18.5 112.5c0 40.667 6.66699 78 20 112s32 63.333 56 88s52.333 43.834 85 57.501s68.334 20.5 107.001 20.5c17.333 0 33.833 -1 49.5 -3s29.334 -5 41.001 -9s21 -8.83301 28 -14.5
s10.5 -11.834 10.5 -18.501c0 -4 -1.5 -10.667 -4.5 -20s-7 -18.5 -12 -27.5s-10.667 -17 -17 -24s-12.833 -10.5 -19.5 -10.5c-9.33301 0 -17.166 3.5 -23.499 10.5s-12.666 14.5 -18.999 22.5s-13 15.5 -20 22.5s-15.5 10.5 -25.5 10.5
c-46.667 0 -84.667 -17.167 -114 -51.5s-44 -85.166 -44 -152.499c0 -32.667 5 -61.167 15 -85.5s23.167 -44.666 39.5 -60.999s34.833 -28.666 55.5 -36.999s41.667 -12.5 63 -12.5c17.333 0 33 1.66699 47 5s26.5 7.5 37.5 12.5s20.667 10.167 29 15.5
s15.5 10.333 21.5 15c4 4 7.16699 6.5 9.5 7.5s5.16602 1.5 8.49902 1.5z" />
    <glyph glyph-name="ordfeminine" unicode="&#xaa;" horiz-adv-x="297" 
d="M105.804 696.625c-2.98926 0 -7.47363 2.45215 -13.4521 7.3623c-5.97852 4.90918 -11.5303 10.6729 -16.6543 17.29c-5.125 6.61719 -9.60938 13.4482 -13.4521 20.4922s-5.76465 12.9141 -5.76465 17.6104c0 3.41504 4.05664 6.40332 12.1699 8.96484
c8.11426 2.56152 18.3633 4.69629 30.7471 6.4043c12.3848 1.70801 26.4775 3.0957 42.2773 4.16309c15.8008 1.06738 31.6016 1.60156 47.4023 1.60156c22.2061 0 42.4902 -2.88184 60.8535 -8.64551c18.3623 -5.76367 34.1631 -14.1953 47.4014 -25.2949
s23.3809 -25.0811 30.4268 -41.9453c7.0459 -16.8633 10.5693 -36.1816 10.5693 -57.9541v-170.981c0 -8.53809 -1.28125 -15.9023 -3.84375 -22.0928c-2.56152 -6.19043 -7.04492 -9.28516 -13.4502 -9.28516c-8.11426 0 -15.9082 5.5498 -23.3818 16.6494
c-7.47363 11.1006 -12.7051 25.6162 -15.6943 43.5469c-8.11426 -11.1006 -17.6162 -20.3867 -28.5059 -27.8584c-10.8896 -7.4707 -22.4199 -13.5537 -34.5908 -18.25s-24.1279 -8.21875 -35.8721 -10.5664c-11.7432 -2.34863 -22.0986 -3.52246 -31.0664 -3.52246
c-37.1523 0 -66.1914 8.11133 -87.1162 24.335c-20.9248 16.2227 -31.3877 37.9951 -31.3877 65.3184c0 20.4922 6.72559 37.0352 20.1777 49.6299c13.4521 12.5938 31.1748 22.3057 53.168 29.1367c21.9922 6.83105 46.7607 11.3135 74.3047 13.4482
s55.1953 3.20215 82.9531 3.20215v24.334c0 29.458 -7.25977 51.6582 -21.7793 66.6006c-14.5186 14.9424 -31.6006 22.4131 -51.2451 22.4131c-11.5303 0 -21.3525 -2.45508 -29.4668 -7.36426s-15.374 -10.1387 -21.7793 -15.6885s-12.1699 -10.7793 -17.2939 -15.6885
c-5.12402 -4.91016 -10.6758 -7.36523 -16.6543 -7.36523zM173.703 486.577c9.82227 0 19.9639 2.34668 30.4258 7.04297c10.4629 4.69629 20.1777 10.8867 29.1455 18.5713s16.2275 16.6504 21.7793 26.8965s8.54102 20.9189 8.96777 32.0195v24.9746
c-20.9248 0 -40.6758 -0.960938 -59.252 -2.88184s-34.4834 -5.33594 -47.7217 -10.2451s-23.4873 -11.3135 -30.7471 -19.2119c-7.25977 -7.89746 -10.8896 -17.8232 -10.8896 -29.7773c0 -13.2344 5.01758 -24.4414 15.0527 -33.6201
c10.0361 -9.17871 24.4492 -13.7686 43.2393 -13.7686z" />
    <glyph glyph-name="guillemotleft" unicode="&#xab;" horiz-adv-x="377" 
d="M227 45l-202 161.001c-3.33301 3.33301 -5 7.16602 -5 11.499s1.66699 7.83301 5 10.5l202 163l21 -20l-134 -153l134 -154zM338 62.001l-152 145c-7.33301 7.33301 -7.33301 14 0 20l152 147l19 -18l-89 -138l89 -139z" />
    <glyph glyph-name="registered" unicode="&#xae;" horiz-adv-x="510" 
d="M20 488c0 32.667 6.16699 63.167 18.5 91.5s29 53.166 50 74.499s45.667 38.166 74 50.499s58.5 18.5 90.5 18.5c32.667 0 63.5 -6.16699 92.5 -18.5s54.167 -29.166 75.5 -50.499s38.166 -46.166 50.499 -74.499s18.5 -58.833 18.5 -91.5
s-6.16699 -63.334 -18.5 -92.001s-29.166 -53.5 -50.499 -74.5s-46.5 -37.667 -75.5 -50s-59.833 -18.5 -92.5 -18.5c-32 0 -62.167 6.16699 -90.5 18.5s-53 29 -74 50s-37.667 45.833 -50 74.5s-18.5 59.334 -18.5 92.001zM61 488c0 -26.667 5 -51.834 15 -75.501
s23.667 -44.167 41 -61.5s37.666 -31.166 60.999 -41.499s48.333 -15.5 75 -15.5c27.333 0 52.833 5.16699 76.5 15.5s44.167 24.166 61.5 41.499s31 37.833 41 61.5s15 48.834 15 75.501s-5 51.667 -15 75s-23.667 43.666 -41 60.999s-37.833 31 -61.5 41
s-49.167 15 -76.5 15c-26.667 0 -51.667 -5 -75 -15s-43.666 -23.667 -60.999 -41s-31 -37.666 -41 -60.999s-15 -48.333 -15 -75zM183 566c0 5.33301 -3.66797 10.3311 -11.001 14.998s-11 9.66699 -11 15c0 0.666992 1.83301 1.66699 5.5 3s8.16699 2.66602 13.5 3.99902
s10.666 2.5 15.999 3.5s10 1.5 14 1.5c5.33301 0.666992 13 1.5 23 2.5s19.333 1.5 28 1.5c25.333 0 44.833 -6.66699 58.5 -20s20.5 -29.333 20.5 -48c0 -9.33301 -1.66699 -18.166 -5 -26.499s-7.66602 -15.5 -12.999 -21.5s-11 -10.833 -17 -14.5
s-12 -5.83398 -18 -6.50098c10.667 -16.667 19.834 -29.834 27.501 -39.501s14.5 -17.167 20.5 -22.5s11 -8.83301 15 -10.5s7.66699 -2.5 11 -2.5c10 0 15 -2 15 -6c0 -2.66699 -3.83301 -6.66699 -11.5 -12s-17.167 -8 -28.5 -8c-19.333 0 -35 7.33301 -47 22
s-25 39.334 -39 74.001l-23 3v-53c0 -3.33301 1.16699 -6.66602 3.5 -9.99902s5 -6.33301 8 -9s5.66699 -5.16699 8 -7.5s3.5 -4.5 3.5 -6.5c0 -1.33301 -2 -2.66602 -6 -3.99902s-8.83301 -2.66602 -14.5 -3.99902s-11.5 -2.5 -17.5 -3.5s-10.667 -1.5 -14 -1.5
c-10 0 -15 3 -15 9v183zM255.999 582.998c-5.33301 0 -10.499 -0.166016 -15.499 -0.499023s-9.5 -0.833008 -13.5 -1.5v-76c5.33301 -2 10.166 -3.33301 14.499 -4s8.83301 -1 13.5 -1c25.333 0 38 14.667 38 44c0 11.333 -3.33301 20.666 -10 27.999s-15.667 11 -27 11z
" />
    <glyph glyph-name="degree" unicode="&#xb0;" horiz-adv-x="348" 
d="M20 569c0 21.333 4 41.333 12 60s18.833 35 32.5 49s29.834 25 48.501 33s38.667 12 60 12s41.5 -4 60.5 -12s35.5 -19 49.5 -33s25 -30.333 33 -49s12 -38.667 12 -60s-4 -41.333 -12 -60s-19 -35 -33 -49s-30.5 -25 -49.5 -33s-39.167 -12 -60.5 -12s-41.333 4 -60 12
s-34.834 19 -48.501 33s-24.5 30.333 -32.5 49s-12 38.667 -12 60zM68 569c0 -14.667 2.66699 -28.334 8 -41.001s12.833 -23.834 22.5 -33.501s20.834 -17.334 33.501 -23.001s26.334 -8.5 41.001 -8.5s28.5 2.83301 41.5 8.5s24.167 13.334 33.5 23.001
s16.833 20.834 22.5 33.501s8.5 26.334 8.5 41.001s-2.83301 28.334 -8.5 41.001s-13.167 23.667 -22.5 33s-20.5 16.833 -33.5 22.5s-26.833 8.5 -41.5 8.5s-28.334 -2.83301 -41.001 -8.5s-23.834 -13.167 -33.501 -22.5s-17.167 -20.333 -22.5 -33s-8 -26.334 -8 -41.001
z" />
    <glyph glyph-name="plusminus" unicode="&#xb1;" horiz-adv-x="593" 
d="M329 392v-211c0 -9.33301 -3.33301 -17 -10 -23s-14.334 -9 -23.001 -9c-8 0 -15.5 3 -22.5 9s-10.5 13.667 -10.5 23v211h-211c-9.33301 0 -17 3.33301 -23 10s-9 14.334 -9 23.001c0 8 3 15.5 9 22.5s13.667 10.5 23 10.5h211v212c0 9.33301 3.33301 17 10 23
s14.334 9 23.001 9c8 0 15.5 -3 22.5 -9s10.5 -13.667 10.5 -23v-212h212c9.33301 0 17 -3.33301 23 -10s9 -14.334 9 -23.001c0 -8 -3 -15.5 -9 -22.5s-13.667 -10.5 -23 -10.5h-212zM52 0c-9.33301 0 -17 3.33301 -23 10s-9 14.334 -9 23.001c0 8 3 15.5 9 22.5
s13.667 10.5 23 10.5h489c9.33301 0 17 -3.33301 23 -10s9 -14.334 9 -23.001c0 -8 -3 -15.5 -9 -22.5s-13.667 -10.5 -23 -10.5h-489z" />
    <glyph glyph-name="twosuperior" unicode="&#xb2;" horiz-adv-x="322" 
d="M141.671 505.268l111.339 -0.00195312c4.44434 0 8.44434 1.77637 12 5.32812s7 7.54785 10.333 11.9883l9.33301 11.9873c2.88965 3.55176 5.88965 5.32715 9.00098 5.32715c3.55566 0 5.88867 -1.33203 7 -3.99609c1.11133 -2.66309 1.66699 -5.10449 1.66699 -7.32422
c0 -2.66406 -1.11133 -9.5459 -3.33398 -20.6445c-2.22168 -11.0986 -4.88867 -22.8643 -8 -35.2959c-3.11133 -12.4307 -6.33398 -23.6406 -9.66699 -33.6299s-6.33301 -14.9834 -9 -14.9834s-5.00098 0.999023 -7.00195 2.99707
c-2 1.99707 -4.11133 4.32812 -6.33301 6.99219c-2.22266 2.66406 -4.33398 4.99512 -6.33398 6.99219c-2 1.99805 -4.33301 2.99707 -7 2.99707h-198.006c-3.11133 0 -6.22266 2.66406 -9.33398 7.99121c-3.11035 5.32715 -5.99902 11.4316 -8.66602 18.3135
s-4.88965 13.6523 -6.66797 20.3115c-1.77734 6.65918 -2.66602 11.543 -2.66602 14.6504c0 5.32812 4 9.10156 12 11.3213c5.77832 1.33203 14.334 3.77344 25.668 7.3252c11.333 3.55176 23.5557 8.10254 36.667 13.6523c13.1123 5.5498 26.5576 11.876 40.3359 18.9795
s26.334 15.0947 37.668 23.9746c11.333 8.87988 20.5557 18.5361 27.667 28.9697c7.11133 10.4326 10.667 21.6426 10.667 33.6299c0 5.32812 -0.777344 11.0996 -2.33301 17.3154s-4.33398 11.9873 -8.33496 17.3145c-4 5.32715 -9.55566 9.65625 -16.667 12.9863
c-7.11133 3.3291 -16.2227 4.99414 -27.334 4.99414c-5.77832 0 -10.4453 -0.22168 -14.001 -0.666016s-6.77832 -1.11035 -9.66699 -1.99805c-2.88965 -0.887695 -6.00098 -2.21973 -9.33398 -3.99609l-13 -6.65918c-5.33398 -2.66406 -9.44531 -7.43652 -12.334 -14.3184
c-2.88965 -6.88184 -5.44531 -13.874 -7.66699 -20.9775c-2.22266 -7.10352 -4.66699 -13.4297 -7.33398 -18.9795s-6.44434 -8.32422 -11.333 -8.32422c-4.00098 0 -8.66797 1.99805 -14.001 5.99316s-10.333 8.87891 -15 14.6514
c-4.66699 5.77148 -8.55566 11.9873 -11.667 18.6465s-4.66699 12.875 -4.66699 18.6465s3 12.3203 9 19.6455s14.667 14.207 26.001 20.6445s25.001 11.876 41.001 16.3164c16.001 4.43945 34.002 6.65918 54.0029 6.65918c24.4453 0 45.1123 -2.33105 62.002 -6.99219
c16.8896 -4.66211 30.668 -10.8779 41.335 -18.6465c10.667 -7.76953 18.4453 -16.8711 23.335 -27.3047c4.88867 -10.4326 7.33301 -21.1992 7.33301 -32.2988c0 -13.3193 -3.66699 -26.1943 -11 -38.625s-17 -23.9736 -29.001 -34.6289
s-25.4463 -20.5332 -40.3359 -29.6338c-14.8896 -9.10156 -29.7793 -17.2041 -44.6689 -24.3076s-29.1123 -13.208 -42.668 -18.3135c-13.5557 -5.10645 -25 -8.76953 -34.333 -10.9893l0.666992 -2.66406z" />
    <glyph glyph-name="threesuperior" unicode="&#xb3;" horiz-adv-x="341" 
d="M41.3184 404.782c3.95996 0 9.13086 -1.87402 15.5107 -5.61426c6.37988 -3.73926 13.8594 -7.80859 22.4385 -12.208c8.58008 -4.39941 18.04 -8.46973 28.3789 -12.21c10.3398 -3.73926 21.4492 -5.60938 33.3291 -5.60938c36.958 0 63.1367 7.69922 78.5361 23.0986
s23.0986 35.8584 23.0986 61.377c0 14.5186 -2.63965 26.6182 -7.91992 36.2979c-5.2793 9.67969 -12.0986 17.4893 -20.459 23.4297c-8.35938 5.93945 -17.8193 10.1191 -28.3789 12.5391s-21.1191 3.62988 -31.6787 3.62988h-16.499
c-4.83984 0 -8.58008 1.87012 -11.2197 5.61035c-2.63965 3.73926 -3.95996 8.0293 -3.95996 12.8691s1.32031 9.23926 3.95996 13.1992s6.37988 5.93945 11.2197 5.93945h12.5391c8.36035 0 17.1602 0.879883 26.3994 2.64062
c9.23926 1.75977 17.5986 5.16992 25.0781 10.2295s13.6387 11.8789 18.4775 20.458c4.83984 8.5791 7.25977 19.9082 7.25977 33.9873c0 21.999 -6.59961 38.1689 -19.7988 48.5088c-13.1992 10.3389 -28.3789 15.5088 -45.5381 15.5088
c-11.4395 0 -20.459 -0.549805 -27.0586 -1.64941c-6.60059 -1.10059 -12.7607 -2.75098 -18.4805 -4.95117s-10.3398 -6.70996 -13.8594 -13.5293c-3.52051 -6.81934 -6.70996 -13.8594 -9.56934 -21.1191c-2.86035 -7.25977 -5.94043 -13.6396 -9.24023 -19.1396
c-3.2998 -5.49902 -7.36914 -8.24902 -12.209 -8.24902c-3.95996 0 -7.80957 1.97949 -11.5488 5.93945c-3.74023 3.95996 -7.15039 8.7998 -10.2295 14.5195c-3.08008 5.71973 -5.5 11.8799 -7.25977 18.4805c-1.75977 6.59961 -2.63965 12.7588 -2.63965 18.4785
s3.41016 11.8799 10.2295 18.4795s15.8389 12.6494 27.0586 18.1494s24.1992 10.1201 38.9385 13.8594s30.0283 5.60938 45.8672 5.60938c20.2393 0 38.8281 -1.87012 55.7676 -5.60938s31.5693 -9.34863 43.8887 -16.8281s21.999 -17.0488 29.0391 -28.708
s10.5596 -25.6289 10.5596 -41.9082c0 -21.999 -6.59961 -40.5879 -19.7988 -55.7666c-13.1992 -15.1797 -30.7988 -26.7295 -52.7979 -34.6494c12.7598 -4.39941 24.749 -9.34863 35.9688 -14.8477c11.2197 -5.5 21.0088 -12.21 29.3682 -20.1299
c8.36035 -7.91895 14.96 -17.4883 19.7998 -28.708s7.25977 -24.749 7.25977 -40.5879c0 -17.1592 -2.96973 -33.6582 -8.91016 -49.4971c-5.93945 -15.8389 -15.6191 -29.8086 -29.0381 -41.9082c-13.4199 -12.0996 -31.2393 -21.7793 -53.458 -29.0391
c-22.2197 -7.25977 -49.6084 -10.8896 -82.167 -10.8896c-17.1592 0 -33.4385 2.2002 -48.8379 6.60059c-15.3994 4.39941 -28.9287 9.78906 -40.5879 16.1689s-20.8984 13.1992 -27.7178 20.459s-10.2295 13.75 -10.2295 19.4697
c0 7.47949 1.87012 12.3193 5.61035 14.5195c3.73926 2.2002 8.90918 3.2998 15.5088 3.2998z" />
    <glyph glyph-name="acute" unicode="&#xb4;" horiz-adv-x="173" 
d="M73 553c-5.33301 -15.333 -13.999 -23 -25.999 -23c-6.66699 0 -12.834 2.16699 -18.501 6.5s-8.5 9.83301 -8.5 16.5l40 160c2.66699 10 7.66699 17.833 15 23.5s18 8.5 32 8.5s25.167 -2.83301 33.5 -8.5s12.5 -13.5 12.5 -23.5z" />
    <glyph glyph-name="mu" unicode="&#xb5;" horiz-adv-x="497" 
d="M67 303c-0.666992 6 -3.49902 12.3281 -8.49902 18.9951s-10.333 13.334 -16 20.001l-15.5 19c-4.66699 6 -7 11 -7 15c0 4.66699 2.83301 11 8.5 19s13.167 15.833 22.5 23.5s19.5 14.167 30.5 19.5s22.167 8 33.5 8c12.667 0 22.834 -2.66699 30.501 -8
s11.5 -13.666 11.5 -24.999v-284c0 -9.33301 0.833008 -18.666 2.5 -27.999s4.83398 -17.666 9.50098 -24.999s10.834 -13.166 18.501 -17.499s17.5 -6.5 29.5 -6.5c14.667 0 29.167 3.5 43.5 10.5s27.166 15.833 38.499 26.5s20.833 22.667 28.5 36
s11.834 26.666 12.501 39.999v245c0 11.333 5.66699 20.166 17 26.499s26 9.5 44 9.5c8.66699 0 15.667 -3.16699 21 -9.5s8 -15.166 8 -26.499v-378c0 -11.333 -1.66699 -21.166 -5 -29.499s-9 -12.5 -17 -12.5c-8.66699 0 -17.334 6.5 -26.001 19.5s-15 30.167 -19 51.5
c-12 -22 -30.167 -39.333 -54.5 -52s-55.5 -19 -93.5 -19c-20 0 -39.333 3.66699 -58 11v-178c0 -5.33301 2.16699 -10.833 6.5 -16.5s9.16602 -11.167 14.499 -16.5s10.166 -10.5 14.499 -15.5s6.5 -9.16699 6.5 -12.5c0 -5.33301 -3 -11.666 -9 -18.999
s-13.667 -14.333 -23 -21s-19.333 -12.334 -30 -17.001s-20.334 -7 -29.001 -7c-4 0 -8.33301 0.333008 -13 1s-9 2 -13 4s-7.5 4.66699 -10.5 8s-4.5 8 -4.5 14v578z" />
    <glyph glyph-name="mu" unicode="&#x3bc;" horiz-adv-x="497" 
d="M67 303c-0.666992 6 -3.49902 12.3281 -8.49902 18.9951s-10.333 13.334 -16 20.001l-15.5 19c-4.66699 6 -7 11 -7 15c0 4.66699 2.83301 11 8.5 19s13.167 15.833 22.5 23.5s19.5 14.167 30.5 19.5s22.167 8 33.5 8c12.667 0 22.834 -2.66699 30.501 -8
s11.5 -13.666 11.5 -24.999v-284c0 -9.33301 0.833008 -18.666 2.5 -27.999s4.83398 -17.666 9.50098 -24.999s10.834 -13.166 18.501 -17.499s17.5 -6.5 29.5 -6.5c14.667 0 29.167 3.5 43.5 10.5s27.166 15.833 38.499 26.5s20.833 22.667 28.5 36
s11.834 26.666 12.501 39.999v245c0 11.333 5.66699 20.166 17 26.499s26 9.5 44 9.5c8.66699 0 15.667 -3.16699 21 -9.5s8 -15.166 8 -26.499v-378c0 -11.333 -1.66699 -21.166 -5 -29.499s-9 -12.5 -17 -12.5c-8.66699 0 -17.334 6.5 -26.001 19.5s-15 30.167 -19 51.5
c-12 -22 -30.167 -39.333 -54.5 -52s-55.5 -19 -93.5 -19c-20 0 -39.333 3.66699 -58 11v-178c0 -5.33301 2.16699 -10.833 6.5 -16.5s9.16602 -11.167 14.499 -16.5s10.166 -10.5 14.499 -15.5s6.5 -9.16699 6.5 -12.5c0 -5.33301 -3 -11.666 -9 -18.999
s-13.667 -14.333 -23 -21s-19.333 -12.334 -30 -17.001s-20.334 -7 -29.001 -7c-4 0 -8.33301 0.333008 -13 1s-9 2 -13 4s-7.5 4.66699 -10.5 8s-4.5 8 -4.5 14v578z" />
    <glyph glyph-name="paragraph" unicode="&#xb6;" horiz-adv-x="474" 
d="M207 348c-26 0 -50.333 4.83301 -73 14.5s-42.5 23 -59.5 40s-30.333 36.833 -40 59.5s-14.5 47 -14.5 73s4.83301 50.333 14.5 73s23 42.5 40 59.5s36.833 30.5 59.5 40.5s47 15 73 15h204c15.333 0 26.333 -2 33 -6s10 -11.333 10 -22v-906
c0 -8.66699 -4 -17.667 -12 -27s-21.667 -14 -41 -14c-12.667 0 -21.5 2 -26.5 6s-7.5 11.333 -7.5 22v866h-73v-903c0 -8.66699 -4 -17.667 -12 -27s-21.667 -14 -41 -14c-12.667 0 -21.5 2 -26.5 6s-7.5 11.333 -7.5 22v622z" />
    <glyph glyph-name="periodcentered" unicode="&#xb7;" horiz-adv-x="153" 
d="M20 249c0 15.333 5.5 28.666 16.5 39.999s24.167 17 39.5 17s28.666 -5.66699 39.999 -17s17 -24.666 17 -39.999s-5.66699 -28.5 -17 -39.5s-24.666 -16.5 -39.999 -16.5s-28.5 5.5 -39.5 16.5s-16.5 24.167 -16.5 39.5z" />
    <glyph glyph-name="cedilla" unicode="&#xb8;" horiz-adv-x="249" 
d="M159 -40c8 -5.33301 16 -10.334 24 -15.001s15.5 -9.5 22.5 -14.5s12.667 -11 17 -18s6.5 -15.5 6.5 -25.5c0 -19.333 -8.16699 -35.333 -24.5 -48s-43.5 -19 -81.5 -19c-16 0 -30.333 1.83301 -43 5.5s-23.5 8 -32.5 13s-15.833 10.333 -20.5 16s-7 10.834 -7 15.501
s1 10.167 3 16.5s4.66699 12.333 8 18s7.16602 10.5 11.499 14.5s8.83301 6 13.5 6c4 0 7 -2 9 -6s4 -8.83301 6 -14.5s3.83301 -11.667 5.5 -18s4.16699 -11.833 7.5 -16.5c4.66699 -7.33301 10.334 -12 17.001 -14s13.667 -3 21 -3c10 0 19.167 2.83301 27.5 8.5
s12.5 13.5 12.5 23.5c0 6.66699 -1.16699 12 -3.5 16s-5.66602 7.66699 -9.99902 11s-9.33301 6.5 -15 9.5s-11.834 7.16699 -18.501 12.5c-7.33301 5.33301 -11.5 15 -12.5 29s-1.5 30 -1.5 48h44c0 -13.333 0.833008 -24 2.5 -32s5.5 -14.333 11.5 -19z" />
    <glyph glyph-name="onesuperior" unicode="&#xb9;" horiz-adv-x="195" 
d="M130.792 538.017c0 -4.85449 2.31641 -10.4834 6.9502 -16.8828s9.70898 -12.6885 15.2256 -18.8672s10.5918 -12.1367 15.2256 -17.874s6.9502 -10.1504 6.9502 -13.2393c0 -3.53027 -2.64746 -7.06055 -7.94336 -10.5908s-11.8057 -6.9502 -19.5293 -10.2598
c-7.72266 -3.30957 -15.9971 -5.95703 -24.8242 -7.94238c-8.82617 -1.98633 -16.7695 -2.97949 -23.8311 -2.97949c-9.26855 0 -17.3232 1.65527 -24.1641 4.96484s-10.2607 10.04 -10.2607 20.1904v178.075c0 4.85449 -2.31738 10.4814 -6.95117 16.8809
s-9.70898 12.6885 -15.2256 18.8672l-15.2256 17.543c-4.63379 5.5166 -6.9502 10.04 -6.9502 13.5703c0 3.08887 2.64746 6.50879 7.94336 10.2598s11.8057 7.28125 19.5293 10.5908s15.999 5.95801 24.8262 7.94434c8.82617 1.98535 16.7695 2.97852 23.8311 2.97852
c9.26758 0 17.3223 -1.65527 24.1631 -4.96484s10.2607 -10.04 10.2607 -20.1904v-178.074z" />
    <glyph glyph-name="ordmasculine" unicode="&#xba;" horiz-adv-x="349" 
d="M32.4307 616.478c0 22.1445 4.87109 43.6367 14.6123 64.4785s23.2705 39.0781 40.5879 54.71s37.2324 28.1152 59.7451 37.4502s46.541 14.0029 72.085 14.0029c25.9766 0 50.1133 -4.0166 72.4092 -12.0488c22.2969 -8.0332 41.7793 -19.4316 58.4473 -34.1943
c16.6689 -14.7627 29.9824 -32.5645 39.9404 -53.4053c9.95801 -20.8428 14.9365 -44.5068 14.9365 -70.9932c0 -22.5781 -4.97852 -44.1797 -14.9365 -64.8047c-9.95801 -20.624 -23.2715 -38.8604 -39.9404 -54.709c-16.668 -15.8486 -36.1504 -28.4404 -58.4473 -37.7754
c-22.2959 -9.33496 -46.4326 -14.0029 -72.4092 -14.0029c-25.5439 0 -49.5723 4.0166 -72.085 12.0488s-42.4277 19.4297 -59.7451 34.1924s-30.8467 32.6738 -40.5879 53.7334c-9.74121 21.0586 -14.6123 44.8311 -14.6123 71.3174zM118.803 639.272
c0 -16.5 1.83594 -33.542 5.51562 -51.127c3.68066 -17.585 9.95898 -33.7588 18.835 -48.5215c8.875 -14.7627 20.9971 -26.9209 36.3672 -36.4736c15.3691 -9.55176 33.877 -14.3281 55.5244 -14.3281c13.8545 0 26.3018 3.25684 37.3418 9.76953
s20.1318 14.8711 27.2754 25.0752s12.6641 21.6016 16.5605 34.1934s5.84473 24.5322 5.84473 35.8213c0 16.5 -2.05664 33.6514 -6.16895 51.4541c-4.11328 17.8018 -10.7158 33.9756 -19.8076 48.5215s-21.1055 26.4863 -36.042 35.8213
s-33.6611 14.0029 -56.1738 14.0029c-14.7197 0 -27.3838 -3.25684 -37.9912 -9.76953c-10.6064 -6.5127 -19.373 -14.8711 -26.2998 -25.0752s-12.1221 -21.3848 -15.5859 -33.542c-3.46387 -12.1582 -5.19531 -24.0986 -5.19531 -35.8223z" />
    <glyph glyph-name="guillemotright" unicode="&#xbb;" horiz-adv-x="377" 
d="M129 64l134 153.999l-134 153l21 20l202 -163c3.33301 -2.66699 5 -6.16699 5 -10.5s-1.66699 -8.16602 -5 -11.499l-202 -161zM20 78.999l89 139l-89 138l19 18l152 -147c7.33301 -6 7.33301 -12.667 0 -20l-152 -145z" />
    <glyph glyph-name="onequarter" unicode="&#xbc;" horiz-adv-x="638" 
d="M89 -1c-6.66699 -8.66699 -16.002 -13 -28.002 -13c-10 0 -17.5 3.33301 -22.5 10s-7.5 15 -7.5 25l445 718c2.66699 4 6.33398 7.16699 11.001 9.5s9.33398 3.5 14.001 3.5c11.333 0 19.5 -3.33301 24.5 -10s7.5 -14.667 7.5 -24zM287.998 0
c-7.33301 0 -13.166 1.66602 -17.499 4.99902s-6.5 7.66602 -6.5 12.999c0 4 0.666992 7.83301 2 11.5s4.33301 7.83398 9 12.501l212 244c7.33301 9.33301 15.333 14 24 14c16 0 24 -8.33301 24 -25v-235h33l35 6c5.33301 0 9.16602 -4 11.499 -12s3.5 -14 3.5 -18
s-1.16699 -7.66699 -3.5 -11s-6.16602 -5 -11.499 -5h-68v-31c0 -4.66699 2.33301 -9.5 7 -14.5s9.83398 -9.83301 15.501 -14.5l15.5 -13c4.66699 -4 7 -7.66699 7 -11s-3 -7.66602 -9 -12.999s-13.333 -10.333 -22 -15s-17.834 -8.66699 -27.501 -12
s-17.834 -5 -24.501 -5c-9.33301 0 -16.333 1.66699 -21 5s-7 10 -7 20v104h-181zM468.998 188.999l10 47l-4 1l-143 -197h137v149zM130.998 537.999c0 -4.66699 2.33301 -10.166 7 -16.499s9.66699 -12.666 15 -18.999l15 -18c4.66699 -5.66699 7 -10.167 7 -13.5
s-2.66699 -6.83301 -8 -10.5s-11.833 -7.16699 -19.5 -10.5s-16 -6 -25 -8s-16.833 -3 -23.5 -3c-9.33301 0 -17.333 1.83301 -24 5.5s-10 10.5 -10 20.5v178c0 4.66699 -2.33301 10.167 -7 16.5s-9.83398 12.666 -15.501 18.999l-15.5 17.5
c-4.66699 5.33301 -7 9.66602 -7 12.999s2.66699 7 8 11s12 7.5 20 10.5s16.333 5.5 25 7.5s16.334 3 23.001 3c9.33301 0 17.5 -1.66699 24.5 -5s10.5 -10 10.5 -20v-178z" />
    <glyph glyph-name="onehalf" unicode="&#xbd;" horiz-adv-x="653" 
d="M79 -1c-6.66699 -8.66699 -16.002 -13 -28.002 -13c-10 0 -17.5 3.33301 -22.5 10s-7.5 15 -7.5 25l445 718c2.66699 4 6.33398 7.16699 11.001 9.5s9.33398 3.5 14.001 3.5c11.333 0 19.5 -3.33301 24.5 -10s7.5 -14.667 7.5 -24zM130.998 538
c0 -4.66699 2.33301 -10.166 7 -16.499s9.66699 -12.666 15 -18.999l15 -18c4.66699 -5.66699 7 -10.167 7 -13.5s-2.66699 -6.83301 -8 -10.5s-11.833 -7.16699 -19.5 -10.5s-16 -6 -25 -8s-16.833 -3 -23.5 -3c-9.33301 0 -17.333 1.83301 -24 5.5s-10 10.5 -10 20.5v178
c0 4.66699 -2.33301 10.167 -7 16.5s-9.83398 12.666 -15.501 18.999l-15.5 17.5c-4.66699 5.33301 -7 9.66602 -7 12.999s2.66699 7 8 11s12 7.5 20 10.5s16.333 5.5 25 7.5s16.334 3 23.001 3c9.33301 0 17.5 -1.66699 24.5 -5s10.5 -10 10.5 -20v-178zM473.998 61.001
l111 0.000976562c4 0 7.83301 1.83301 11.5 5.5s7.16699 7.5 10.5 11.5s6.33301 7.83301 9 11.5s5.66699 5.5 9 5.5s5.5 -1.33301 6.5 -4s1.5 -5 1.5 -7c0 -2.66699 -1 -9.5 -3 -20.5s-4.5 -22.667 -7.5 -35s-6.16699 -23.5 -9.5 -33.5s-6.33301 -15 -9 -15
c-5.33301 0 -9.83301 3.33301 -13.5 10s-8.16699 10 -13.5 10h-196c-3.33301 0 -6.5 2.66699 -9.5 8s-5.83301 11.333 -8.5 18s-4.83398 13.334 -6.50098 20.001s-2.5 11.667 -2.5 15c0 5.33301 4 9 12 11c6 1.33301 14.5 3.83301 25.5 7.5s23.167 8.16699 36.5 13.5
s26.666 11.5 39.999 18.5s25.666 14.833 36.999 23.5s20.5 18.167 27.5 28.5s10.5 21.5 10.5 33.5c0 11.333 -3.66699 22.833 -11 34.5s-21.666 17.5 -42.999 17.5c-11.333 0 -19.166 -0.833008 -23.499 -2.5s-11.833 -5.16699 -22.5 -10.5
c-5.33301 -2.66699 -9.33301 -7.33398 -12 -14.001s-5.16699 -13.5 -7.5 -20.5s-4.83301 -13.333 -7.5 -19s-6.33398 -8.5 -11.001 -8.5c-4 0 -8.66699 2 -14 6s-10.166 8.83301 -14.499 14.5s-8.16602 11.834 -11.499 18.501s-5 13 -5 19s3 12.5 9 19.5
s14.667 13.667 26 20s24.833 11.666 40.5 15.999s33.5 6.5 53.5 6.5c48 0 82 -8.33301 102 -25s30 -36.334 30 -59.001c0 -20 -7.83301 -38.667 -23.5 -56s-34.334 -32.833 -56.001 -46.5s-43.667 -25 -66 -34s-40.166 -15.167 -53.499 -18.5v-3z" />
    <glyph glyph-name="threequarters" unicode="&#xbe;" horiz-adv-x="798" 
d="M249 -1c-6.66699 -8.66699 -16.002 -13 -28.002 -13c-10 0 -17.5 3.33301 -22.5 10s-7.5 15 -7.5 25l445 718c2.66699 4 6.33398 7.16699 11.001 9.5s9.33398 3.5 14.001 3.5c11.333 0 19.5 -3.33301 24.5 -10s7.5 -14.667 7.5 -24zM447.998 0
c-7.33301 0 -13.166 1.66602 -17.499 4.99902s-6.5 7.66602 -6.5 12.999c0 4 0.666992 7.83301 2 11.5s4.33301 7.83398 9 12.501l212 244c7.33301 9.33301 15.333 14 24 14c16 0 24 -8.33301 24 -25v-235h33l35 6c5.33301 0 9.16602 -4 11.499 -12s3.5 -14 3.5 -18
s-1.16699 -7.66699 -3.5 -11s-6.16602 -5 -11.499 -5h-68v-31c0 -4.66699 2.33301 -9.5 7 -14.5s9.83398 -9.83301 15.501 -14.5l15.5 -13c4.66699 -4 7 -7.66699 7 -11s-3 -7.66602 -9 -12.999s-13.333 -10.333 -22 -15s-17.834 -8.66699 -27.501 -12
s-17.834 -5 -24.501 -5c-9.33301 0 -16.333 1.66699 -21 5s-7 10 -7 20v104h-181zM628.998 188.999l10 47l-4 1l-143 -197h137v149zM40.998 404.999c4 0 9.33203 -1.83398 15.999 -5.50098l22.5 -12.5c8.33301 -4.66699 17.666 -8.83398 27.999 -12.501s21.5 -5.5 33.5 -5.5
c37.333 0 63.666 7.83301 78.999 23.5s23 36.167 23 61.5c0 14 -2.66699 25.833 -8 35.5s-12.333 17.5 -21 23.5s-18.167 10.333 -28.5 13s-20.833 4 -31.5 4h-16c-5.33301 0 -9.33301 1.83301 -12 5.5s-4 7.83398 -4 12.501s1.33301 9 4 13s6.66699 6 12 6h12
c8.66699 0 17.5 0.833008 26.5 2.5s17.333 5 25 10s13.834 11.833 18.501 20.5s7 20 7 34c0 22.667 -6.5 39 -19.5 49s-28.167 15 -45.5 15c-11.333 0 -20.333 -0.5 -27 -1.5s-12.667 -2.5 -18 -4.5c-6 -2 -10.833 -6.5 -14.5 -13.5s-7 -14 -10 -21s-6 -13.333 -9 -19
s-6.83301 -8.5 -11.5 -8.5c-4 0 -8 2 -12 6s-7.5 8.83301 -10.5 14.5s-5.33301 11.834 -7 18.501s-2.5 12.667 -2.5 18c0 6 3.33301 12.167 10 18.5s15.667 12.333 27 18s24.333 10.334 39 14.001s30 5.5 46 5.5c40.667 0 74 -7.33301 100 -22s39 -38.334 39 -71.001
c0 -21.333 -6.66699 -39.666 -20 -54.999s-30.666 -27 -51.999 -35c12.667 -4 24.667 -8.83301 36 -14.5s21.166 -12.5 29.499 -20.5s14.833 -17.5 19.5 -28.5s7 -24.5 7 -40.5c0 -17.333 -3 -34 -9 -50s-15.667 -30 -29 -42s-31 -21.667 -53 -29s-49.333 -11 -82 -11
c-17.333 0 -33.666 2.16699 -48.999 6.5s-28.833 9.83301 -40.5 16.5s-21 13.5 -28 20.5s-10.5 13.5 -10.5 19.5c0 7.33301 1.83301 12.166 5.5 14.499s8.83398 3.5 15.501 3.5z" />
    <glyph glyph-name="questiondown" unicode="&#xbf;" horiz-adv-x="438" 
d="M196.029 163.033c10.665 13.332 18.334 28.6611 23 45.9922s7.66602 32.6631 8.99902 45.9951c15.3311 0 27.6631 -2 36.9961 -5.99902c9.33203 -4 16.8311 -9.16602 22.4971 -15.499c5.66602 -6.33203 9.49902 -13.3311 11.498 -20.9971
c2 -7.66504 3 -14.8311 3 -21.4971c0 -11.332 -2.66602 -21.9971 -7.99902 -31.9961s-9.99902 -17.3311 -13.998 -21.9971c-13.999 -16.665 -29.8301 -32.8301 -47.4941 -48.4951c-17.665 -15.665 -33.9961 -32.4961 -48.9941 -50.4932
c-14.998 -17.998 -27.6631 -37.6621 -37.9951 -58.9932c-10.333 -21.3311 -15.499 -45.6611 -15.499 -72.9912c0 -36.6621 7.16602 -64.3252 21.498 -82.9893c14.3311 -18.665 38.1611 -27.9971 71.4902 -27.9971c8.66504 0 15.6641 0.333008 20.9971 1
s10.166 1.66699 14.499 3s8.99902 3.33301 13.998 5.99902l19.4971 9.99902c7.99902 3.99902 14.165 11.165 18.498 21.4971s8.16602 20.8311 11.499 31.4961s6.99902 20.1641 10.998 28.4971c3.99902 8.33203 9.66504 12.498 16.998 12.498
c5.99902 0 12.998 -3 20.9971 -8.99902s15.498 -13.3311 22.4971 -21.9961s12.8311 -17.9971 17.4971 -27.9961s6.99902 -19.3311 6.99902 -27.9961c0 -8.66602 -4.49902 -18.498 -13.498 -29.4961c-8.99902 -10.999 -21.9971 -21.3311 -38.9951 -30.9971
c-16.998 -9.66504 -37.4951 -17.8301 -61.4922 -24.4951c-23.9971 -6.66602 -50.9941 -9.99902 -80.9902 -9.99902c-36.6621 0 -67.8252 4.33301 -93.4883 12.998c-25.6641 8.66602 -46.6621 20.498 -62.9932 35.4961s-28.1631 32.6621 -35.4961 52.9932
s-10.999 41.8281 -10.999 64.4922c0 29.9961 6.49902 57.4932 19.498 82.4902c12.998 24.9971 28.6631 48.4941 46.9941 70.4912s37.4951 42.4941 57.4932 61.4912c19.9971 18.998 37.3281 37.4961 51.9932 55.4932zM309.019 390.004
c0 -15.3311 -5.49902 -28.6631 -16.498 -39.9951s-24.1641 -16.998 -39.4951 -16.998s-28.6631 5.66602 -39.9951 16.998s-16.998 24.6641 -16.998 39.9951s5.66602 28.4961 16.998 39.4951s24.6641 16.498 39.9951 16.498s28.4961 -5.49902 39.4951 -16.498
s16.498 -24.1641 16.498 -39.4951z" />
    <glyph glyph-name="Agrave" unicode="&#xc0;" horiz-adv-x="775" 
d="M260 691c0 5.33301 4.83105 10.333 14.498 15s21.667 8.83398 36 12.501s30 6.5 47 8.5s32.5 3 46.5 3c23.333 0 40 -3.5 50 -10.5s16.667 -15.5 20 -25.5l211 -641c2 -7.33301 7.33301 -14.166 16 -20.499l27.5 -19.5c9.66699 -6.66699 18.167 -13.167 25.5 -19.5
s11 -12.833 11 -19.5c0 -6 -3.16699 -11.833 -9.5 -17.5s-14.666 -10.5 -24.999 -14.5s-22 -7.16699 -35 -9.5s-25.833 -3.5 -38.5 -3.5c-11.333 0 -22.166 1.83301 -32.499 5.5s-17.166 10.167 -20.499 19.5l-73 216c-12.667 1.33301 -27.667 2.5 -45 3.5s-34 1.5 -50 1.5
c-15.333 0 -33 -1.33301 -53 -4s-40.5 -6.66699 -61.5 -12s-41.167 -12 -60.5 -20s-36.333 -17 -51 -27l-35 -95c10 -4 20.5 -8.5 31.5 -13.5s20.833 -10 29.5 -15s15.834 -10.167 21.501 -15.5s8.5 -10 8.5 -14c0 -4.66699 -3.83301 -8.83398 -11.5 -12.501
s-18.334 -6.83398 -32.001 -9.50098s-29.667 -4.66699 -48 -6s-38.166 -2 -59.499 -2c-14 0 -27.333 0.666992 -40 2s-23.834 3.33301 -33.501 6s-17.334 5.83398 -23.001 9.50098s-8.5 7.83398 -8.5 12.501c0 9.33301 7.66699 19.166 23 29.499s34 19.833 56 28.5l220 581
c0 8 -2.5 16 -7.5 24s-10.667 16 -17 24s-12 15.667 -17 23s-7.5 14.666 -7.5 21.999zM230.998 168c11.333 10 24.499 19.668 39.499 29.001s30.833 17.666 47.5 24.999s34.167 13.333 52.5 18s36.5 7 54.5 7c16.667 0 31.834 -1 45.501 -3s26.167 -4.33301 37.5 -7
l-119 354zM270.997 993.001c0 10 4.16797 17.833 12.501 23.5s19.5 8.5 33.5 8.5s24.667 -2.83301 32 -8.5s12.333 -13.5 15 -23.5l40 -160c0 -6.66699 -2.83301 -12.167 -8.5 -16.5s-11.834 -6.5 -18.501 -6.5c-12 0 -20.667 7.66699 -26 23z" />
    <glyph glyph-name="Aacute" unicode="&#xc1;" horiz-adv-x="775" 
d="M260 691c0 5.33301 4.83105 10.333 14.498 15s21.667 8.83398 36 12.501s30 6.5 47 8.5s32.5 3 46.5 3c23.333 0 40 -3.5 50 -10.5s16.667 -15.5 20 -25.5l211 -641c2 -7.33301 7.33301 -14.166 16 -20.499l27.5 -19.5c9.66699 -6.66699 18.167 -13.167 25.5 -19.5
s11 -12.833 11 -19.5c0 -6 -3.16699 -11.833 -9.5 -17.5s-14.666 -10.5 -24.999 -14.5s-22 -7.16699 -35 -9.5s-25.833 -3.5 -38.5 -3.5c-11.333 0 -22.166 1.83301 -32.499 5.5s-17.166 10.167 -20.499 19.5l-73 216c-12.667 1.33301 -27.667 2.5 -45 3.5s-34 1.5 -50 1.5
c-15.333 0 -33 -1.33301 -53 -4s-40.5 -6.66699 -61.5 -12s-41.167 -12 -60.5 -20s-36.333 -17 -51 -27l-35 -95c10 -4 20.5 -8.5 31.5 -13.5s20.833 -10 29.5 -15s15.834 -10.167 21.501 -15.5s8.5 -10 8.5 -14c0 -4.66699 -3.83301 -8.83398 -11.5 -12.501
s-18.334 -6.83398 -32.001 -9.50098s-29.667 -4.66699 -48 -6s-38.166 -2 -59.499 -2c-14 0 -27.333 0.666992 -40 2s-23.834 3.33301 -33.501 6s-17.334 5.83398 -23.001 9.50098s-8.5 7.83398 -8.5 12.501c0 9.33301 7.66699 19.166 23 29.499s34 19.833 56 28.5l220 581
c0 8 -2.5 16 -7.5 24s-10.667 16 -17 24s-12 15.667 -17 23s-7.5 14.666 -7.5 21.999zM230.998 168c11.333 10 24.499 19.668 39.499 29.001s30.833 17.666 47.5 24.999s34.167 13.333 52.5 18s36.5 7 54.5 7c16.667 0 31.834 -1 45.501 -3s26.167 -4.33301 37.5 -7
l-119 354zM423.997 833.001c-5.33301 -15.333 -13.999 -23 -25.999 -23c-6.66699 0 -12.834 2.16699 -18.501 6.5s-8.5 9.83301 -8.5 16.5l40 160c2.66699 10 7.66699 17.833 15 23.5s18 8.5 32 8.5s25.167 -2.83301 33.5 -8.5s12.5 -13.5 12.5 -23.5z" />
    <glyph glyph-name="Acircumflex" unicode="&#xc2;" horiz-adv-x="775" 
d="M260 691c0 5.33301 4.83105 10.333 14.498 15s21.667 8.83398 36 12.501s30 6.5 47 8.5s32.5 3 46.5 3c23.333 0 40 -3.5 50 -10.5s16.667 -15.5 20 -25.5l211 -641c2 -7.33301 7.33301 -14.166 16 -20.499l27.5 -19.5c9.66699 -6.66699 18.167 -13.167 25.5 -19.5
s11 -12.833 11 -19.5c0 -6 -3.16699 -11.833 -9.5 -17.5s-14.666 -10.5 -24.999 -14.5s-22 -7.16699 -35 -9.5s-25.833 -3.5 -38.5 -3.5c-11.333 0 -22.166 1.83301 -32.499 5.5s-17.166 10.167 -20.499 19.5l-73 216c-12.667 1.33301 -27.667 2.5 -45 3.5s-34 1.5 -50 1.5
c-15.333 0 -33 -1.33301 -53 -4s-40.5 -6.66699 -61.5 -12s-41.167 -12 -60.5 -20s-36.333 -17 -51 -27l-35 -95c10 -4 20.5 -8.5 31.5 -13.5s20.833 -10 29.5 -15s15.834 -10.167 21.501 -15.5s8.5 -10 8.5 -14c0 -4.66699 -3.83301 -8.83398 -11.5 -12.501
s-18.334 -6.83398 -32.001 -9.50098s-29.667 -4.66699 -48 -6s-38.166 -2 -59.499 -2c-14 0 -27.333 0.666992 -40 2s-23.834 3.33301 -33.501 6s-17.334 5.83398 -23.001 9.50098s-8.5 7.83398 -8.5 12.501c0 9.33301 7.66699 19.166 23 29.499s34 19.833 56 28.5l220 581
c0 8 -2.5 16 -7.5 24s-10.667 16 -17 24s-12 15.667 -17 23s-7.5 14.666 -7.5 21.999zM230.998 168c11.333 10 24.499 19.668 39.499 29.001s30.833 17.666 47.5 24.999s34.167 13.333 52.5 18s36.5 7 54.5 7c16.667 0 31.834 -1 45.501 -3s26.167 -4.33301 37.5 -7
l-119 354zM302.997 826.001c-4 -4 -8.49902 -7.50098 -13.499 -10.501s-10.167 -4.5 -15.5 -4.5c-4.66699 0 -8.33398 1.5 -11.001 4.5s-4 6.16699 -4 9.5c0 5.33301 0.5 9.5 1.5 12.5s3.16699 6.5 6.5 10.5l94 139c2 2.66699 5.33301 5.33398 10 8.00098
s9.33398 4 14.001 4c6 0 11.667 -2 17 -6s9.33301 -7.66699 12 -11l93 -133c4 -5.33301 6.5 -10 7.5 -14s1.5 -7 1.5 -9c0 -4 -1.66699 -7.5 -5 -10.5s-7 -4.5 -11 -4.5c-3.33301 0 -7.33301 0.833008 -12 2.5s-9.33398 4.5 -14.001 8.5l-87 101z" />
    <glyph glyph-name="Atilde" unicode="&#xc3;" horiz-adv-x="775" 
d="M260 691c0 5.33301 4.83105 10.333 14.498 15s21.667 8.83398 36 12.501s30 6.5 47 8.5s32.5 3 46.5 3c23.333 0 40 -3.5 50 -10.5s16.667 -15.5 20 -25.5l211 -641c2 -7.33301 7.33301 -14.166 16 -20.499l27.5 -19.5c9.66699 -6.66699 18.167 -13.167 25.5 -19.5
s11 -12.833 11 -19.5c0 -6 -3.16699 -11.833 -9.5 -17.5s-14.666 -10.5 -24.999 -14.5s-22 -7.16699 -35 -9.5s-25.833 -3.5 -38.5 -3.5c-11.333 0 -22.166 1.83301 -32.499 5.5s-17.166 10.167 -20.499 19.5l-73 216c-12.667 1.33301 -27.667 2.5 -45 3.5s-34 1.5 -50 1.5
c-15.333 0 -33 -1.33301 -53 -4s-40.5 -6.66699 -61.5 -12s-41.167 -12 -60.5 -20s-36.333 -17 -51 -27l-35 -95c10 -4 20.5 -8.5 31.5 -13.5s20.833 -10 29.5 -15s15.834 -10.167 21.501 -15.5s8.5 -10 8.5 -14c0 -4.66699 -3.83301 -8.83398 -11.5 -12.501
s-18.334 -6.83398 -32.001 -9.50098s-29.667 -4.66699 -48 -6s-38.166 -2 -59.499 -2c-14 0 -27.333 0.666992 -40 2s-23.834 3.33301 -33.501 6s-17.334 5.83398 -23.001 9.50098s-8.5 7.83398 -8.5 12.501c0 9.33301 7.66699 19.166 23 29.499s34 19.833 56 28.5l220 581
c0 8 -2.5 16 -7.5 24s-10.667 16 -17 24s-12 15.667 -17 23s-7.5 14.666 -7.5 21.999zM230.998 168c11.333 10 24.499 19.668 39.499 29.001s30.833 17.666 47.5 24.999s34.167 13.333 52.5 18s36.5 7 54.5 7c16.667 0 31.834 -1 45.501 -3s26.167 -4.33301 37.5 -7
l-119 354zM317.997 878.001c-12.667 0 -23.165 -4.66895 -31.498 -14.002s-13.166 -22.666 -14.499 -39.999c-0.666992 -5.33301 -2.83398 -9 -6.50098 -11s-7.16699 -3 -10.5 -3c-4 0 -7.66699 1.16699 -11 3.5s-5 5.83301 -5 10.5c0 12 2.16699 24.167 6.5 36.5
s10.5 23.5 18.5 33.5s17.833 18 29.5 24s25.167 9 40.5 9c12 0 23.167 -3.5 33.5 -10.5s20.333 -14.5 30 -22.5l28 -22.5c9 -7 17.833 -10.5 26.5 -10.5c17.333 0 29.666 5.5 36.999 16.5s11.666 23.5 12.999 37.5c0.666992 5.33301 2.66699 9 6 11s6.66602 3 9.99902 3
c4.66699 0 8.66699 -1.16699 12 -3.5s5 -6.16602 5 -11.499c0 -10 -1.83301 -21 -5.5 -33s-9.5 -23.167 -17.5 -33.5s-17.833 -19 -29.5 -26s-25.5 -10.5 -41.5 -10.5c-12 0 -23.5 3.5 -34.5 10.5s-21.5 14.667 -31.5 23s-19.667 16 -29 23s-18.666 10.5 -27.999 10.5z" />
    <glyph glyph-name="Adieresis" unicode="&#xc4;" horiz-adv-x="775" 
d="M260 691c0 5.33301 4.83105 10.333 14.498 15s21.667 8.83398 36 12.501s30 6.5 47 8.5s32.5 3 46.5 3c23.333 0 40 -3.5 50 -10.5s16.667 -15.5 20 -25.5l211 -641c2 -7.33301 7.33301 -14.166 16 -20.499l27.5 -19.5c9.66699 -6.66699 18.167 -13.167 25.5 -19.5
s11 -12.833 11 -19.5c0 -6 -3.16699 -11.833 -9.5 -17.5s-14.666 -10.5 -24.999 -14.5s-22 -7.16699 -35 -9.5s-25.833 -3.5 -38.5 -3.5c-11.333 0 -22.166 1.83301 -32.499 5.5s-17.166 10.167 -20.499 19.5l-73 216c-12.667 1.33301 -27.667 2.5 -45 3.5s-34 1.5 -50 1.5
c-15.333 0 -33 -1.33301 -53 -4s-40.5 -6.66699 -61.5 -12s-41.167 -12 -60.5 -20s-36.333 -17 -51 -27l-35 -95c10 -4 20.5 -8.5 31.5 -13.5s20.833 -10 29.5 -15s15.834 -10.167 21.501 -15.5s8.5 -10 8.5 -14c0 -4.66699 -3.83301 -8.83398 -11.5 -12.501
s-18.334 -6.83398 -32.001 -9.50098s-29.667 -4.66699 -48 -6s-38.166 -2 -59.499 -2c-14 0 -27.333 0.666992 -40 2s-23.834 3.33301 -33.501 6s-17.334 5.83398 -23.001 9.50098s-8.5 7.83398 -8.5 12.501c0 9.33301 7.66699 19.166 23 29.499s34 19.833 56 28.5l220 581
c0 8 -2.5 16 -7.5 24s-10.667 16 -17 24s-12 15.667 -17 23s-7.5 14.666 -7.5 21.999zM230.998 168c11.333 10 24.499 19.668 39.499 29.001s30.833 17.666 47.5 24.999s34.167 13.333 52.5 18s36.5 7 54.5 7c16.667 0 31.834 -1 45.501 -3s26.167 -4.33301 37.5 -7
l-119 354zM265.997 866.001c0 15.333 3.83301 28.666 11.5 39.999s19.167 17 34.5 17s27 -5.66699 35 -17s12 -24.666 12 -39.999s-4 -28.5 -12 -39.5s-19.667 -16.5 -35 -16.5s-26.833 5.5 -34.5 16.5s-11.5 24.167 -11.5 39.5zM415.997 866.001
c0 15.333 3.83301 28.666 11.5 39.999s19.167 17 34.5 17s27 -5.66699 35 -17s12 -24.666 12 -39.999s-4 -28.5 -12 -39.5s-19.667 -16.5 -35 -16.5s-26.833 5.5 -34.5 16.5s-11.5 24.167 -11.5 39.5z" />
    <glyph glyph-name="Aring" unicode="&#xc5;" horiz-adv-x="775" 
d="M260 691c0 5.33301 4.83105 10.333 14.498 15s21.667 8.83398 36 12.501s30 6.5 47 8.5s32.5 3 46.5 3c23.333 0 40 -3.5 50 -10.5s16.667 -15.5 20 -25.5l211 -641c2 -7.33301 7.33301 -14.166 16 -20.499l27.5 -19.5c9.66699 -6.66699 18.167 -13.167 25.5 -19.5
s11 -12.833 11 -19.5c0 -6 -3.16699 -11.833 -9.5 -17.5s-14.666 -10.5 -24.999 -14.5s-22 -7.16699 -35 -9.5s-25.833 -3.5 -38.5 -3.5c-11.333 0 -22.166 1.83301 -32.499 5.5s-17.166 10.167 -20.499 19.5l-73 216c-12.667 1.33301 -27.667 2.5 -45 3.5s-34 1.5 -50 1.5
c-15.333 0 -33 -1.33301 -53 -4s-40.5 -6.66699 -61.5 -12s-41.167 -12 -60.5 -20s-36.333 -17 -51 -27l-35 -95c10 -4 20.5 -8.5 31.5 -13.5s20.833 -10 29.5 -15s15.834 -10.167 21.501 -15.5s8.5 -10 8.5 -14c0 -4.66699 -3.83301 -8.83398 -11.5 -12.501
s-18.334 -6.83398 -32.001 -9.50098s-29.667 -4.66699 -48 -6s-38.166 -2 -59.499 -2c-14 0 -27.333 0.666992 -40 2s-23.834 3.33301 -33.501 6s-17.334 5.83398 -23.001 9.50098s-8.5 7.83398 -8.5 12.501c0 9.33301 7.66699 19.166 23 29.499s34 19.833 56 28.5l220 581
c0 8 -2.5 16 -7.5 24s-10.667 16 -17 24s-12 15.667 -17 23s-7.5 14.666 -7.5 21.999zM230.998 168c11.333 10 24.499 19.668 39.499 29.001s30.833 17.666 47.5 24.999s34.167 13.333 52.5 18s36.5 7 54.5 7c16.667 0 31.834 -1 45.501 -3s26.167 -4.33301 37.5 -7
l-119 354zM297.997 858.001c0 24.667 8.66699 45.667 26 63s38.333 26 63 26s45.667 -8.66699 63 -26s26 -38.333 26 -63s-8.66699 -45.667 -26 -63s-38.333 -26 -63 -26s-45.667 8.66699 -63 26s-26 38.333 -26 63zM346.997 858.001c0 -11.333 3.83301 -20.833 11.5 -28.5
s17.167 -11.5 28.5 -11.5s21 3.83301 29 11.5s12 17.167 12 28.5s-4 21 -12 29s-17.667 12 -29 12s-20.833 -4 -28.5 -12s-11.5 -17.667 -11.5 -29z" />
    <glyph glyph-name="AE" unicode="&#xc6;" horiz-adv-x="1129" 
d="M667 328l-0.00195312 -301.995c0 -20 4.66699 -30 14 -30c54 0 105.333 0.666992 154 2s90.667 4.66602 126 9.99902c7.33301 0.666992 14.166 5.16699 20.499 13.5l19.5 26.5c6.66699 9.33301 13.334 17.833 20.001 25.5s14 11.5 22 11.5c6 0 12.167 -4.5 18.5 -13.5
s12.333 -20 18 -33s10.334 -26.333 14.001 -40s5.5 -25.5 5.5 -35.5c0 -11.333 -3.16699 -19.833 -9.5 -25.5s-18.166 -8.5 -35.499 -8.5h-457c-15.333 0 -26.5 2.16699 -33.5 6.5s-10.5 12.166 -10.5 23.499v213c-12 1.33301 -24.667 2.16602 -38 2.49902
s-26.333 0.5 -39 0.5c-14.667 0 -31.167 -0.666992 -49.5 -2s-37 -3.33301 -56 -6s-37.667 -6.16699 -56 -10.5s-34.5 -9.16602 -48.5 -14.499l-81 -125c10 -4 20.5 -8.5 31.5 -13.5s20.833 -10 29.5 -15s15.834 -10.167 21.501 -15.5s8.5 -10 8.5 -14
c0 -4.66699 -4.33301 -8.83398 -13 -12.501s-20.5 -6.83398 -35.5 -9.50098s-32.167 -4.66699 -51.5 -6s-39.666 -2 -60.999 -2c-14 0 -27.333 0.666992 -40 2s-23.834 3.33301 -33.501 6s-17.334 5.83398 -23.001 9.50098s-8.5 7.83398 -8.5 12.501
c0 9.33301 7.66699 19.166 23 29.499s34 19.833 56 28.5l390 581c0 8 -2.5 15.5 -7.5 22.5s-10.667 13.833 -17 20.5s-12 13.167 -17 19.5s-7.5 13.166 -7.5 20.499c0 5.33301 6.83301 10.333 20.5 15s30.334 8.83398 50.001 12.501s40 6.5 61 8.5s38.5 3 52.5 3h344
c5.33301 0 11.666 3.5 18.999 10.5s16 10.5 26 10.5c6.66699 0 13 -7 19 -21s11.333 -30.167 16 -48.5s8.33398 -36.5 11.001 -54.5s4 -30.667 4 -38c0 -10 -1.33301 -17.833 -4 -23.5s-8 -8.5 -16 -8.5c-4 0 -8.66699 1.83301 -14 5.5s-12.166 9.5 -20.499 17.5
s-18.5 18.333 -30.5 31l-45 47c-34 5.33301 -71.667 8.83301 -113 10.5s-89 2.5 -143 2.5v-270h196c6 0 11.333 2.33301 16 7s9 10 13 16s8.16699 11.333 12.5 16s9.16602 7 14.499 7c6.66699 0 13.334 -7 20.001 -21s12.5 -30 17.5 -48s9 -35.333 12 -52
s4.5 -27.334 4.5 -32.001c0 -9.33301 -5 -14 -15 -14c-2.66699 0 -5.33398 0.666992 -8.00098 2s-6.83398 4.16602 -12.501 8.49902l-22.5 18l-37 29.5h-211zM464.998 247.005c15.333 0 31.168 -1.66797 47.501 -5.00098s29.833 -7 40.5 -11v359l-253 -391
c8.66699 4.66699 19.167 9.83398 31.5 15.501s25.666 11 39.999 16s29.5 9 45.5 12s32 4.5 48 4.5z" />
    <glyph glyph-name="Ccedilla" unicode="&#xc7;" horiz-adv-x="691" 
d="M649 96c2.66699 0 5.33496 -1.00195 8.00195 -3.00195s4 -4.66699 4 -8c0 -15.333 -6.16699 -32.166 -18.5 -50.499s-30 -35.333 -53 -51s-50.5 -28.834 -82.5 -39.501s-67.667 -16 -107 -16c-55.333 0 -105.333 8.5 -150 25.5s-82.5 42 -113.5 75
s-54.833 73.833 -71.5 122.5s-25 104.334 -25 167.001c0 60 9 115.167 27 165.5s43.667 93.666 77 129.999s73.166 64.833 119.499 85.5s98.166 31 155.499 31c30 0 57.833 -1.5 83.5 -4.5s47.834 -7.5 66.501 -13.5s33.334 -13.167 44.001 -21.5s16 -17.833 16 -28.5
c0 -6 -3.33301 -13.833 -10 -23.5s-14.834 -19 -24.501 -28s-20.167 -16.833 -31.5 -23.5s-21.333 -10 -30 -10c-13.333 0 -25 4.33301 -35 13s-19.667 18.334 -29 29.001s-19.333 20.334 -30 29.001s-23.334 13 -38.001 13c-29.333 0 -58.333 -5.83301 -87 -17.5
s-54.334 -29.5 -77.001 -53.5s-41 -54.333 -55 -91s-21 -80 -21 -130c0 -57.333 6.83301 -108.166 20.5 -152.499s32.5 -81.666 56.5 -111.999s52 -53.333 84 -69s66 -23.5 102 -23.5c25.333 0 48.333 2.5 69 7.5s39.334 11.167 56.001 18.5s31 15.166 43 23.499
s22.333 15.833 31 22.5c6 5.33301 10.667 8.66602 14 9.99902s7.33301 2 12 2zM430.001 -108.002c8 -5.33301 16 -10.334 24 -15.001s15.5 -9.5 22.5 -14.5s12.667 -11 17 -18s6.5 -15.5 6.5 -25.5c0 -19.333 -8.16699 -35.333 -24.5 -48s-43.5 -19 -81.5 -19
c-16 0 -30.333 1.83301 -43 5.5s-23.5 8 -32.5 13s-15.833 10.333 -20.5 16s-7 10.834 -7 15.501s1 10.167 3 16.5s4.66699 12.333 8 18s7.16602 10.5 11.499 14.5s8.83301 6 13.5 6c4 0 7 -2 9 -6s4 -8.83301 6 -14.5s3.83301 -11.667 5.5 -18s4.16699 -11.833 7.5 -16.5
c4.66699 -7.33301 10.334 -12 17.001 -14s13.667 -3 21 -3c10 0 19.167 2.83301 27.5 8.5s12.5 13.5 12.5 23.5c0 6.66699 -1.16699 12 -3.5 16s-5.66602 7.66699 -9.99902 11s-9.33301 6.5 -15 9.5s-11.834 7.16699 -18.501 12.5c-7.33301 5.33301 -11.5 15 -12.5 29
s-1.5 30 -1.5 48h44c0 -13.333 0.833008 -24 2.5 -32s5.5 -14.333 11.5 -19z" />
    <glyph glyph-name="Egrave" unicode="&#xc8;" horiz-adv-x="661" 
d="M199 328l0.000976562 -301.996c0 -20 4.66699 -30 14 -30c54 0 105.333 0.666992 154 2s90.667 4.66602 126 9.99902c7.33301 0.666992 14.166 5.16699 20.499 13.5l19.5 26.5c6.66699 9.33301 13.334 17.833 20.001 25.5s14 11.5 22 11.5c6 0 12.167 -4.5 18.5 -13.5
s12.333 -20 18 -33s10.334 -26.333 14.001 -40s5.5 -25.5 5.5 -35.5c0 -11.333 -3.16699 -19.833 -9.5 -25.5s-18.166 -8.5 -35.499 -8.5h-457c-15.333 0 -26.5 2.16699 -33.5 6.5s-10.5 12.166 -10.5 23.499v617c0 10 -3.83301 18.833 -11.5 26.5
s-16.334 15.334 -26.001 23.001s-18.334 15.167 -26.001 22.5s-11.5 15.666 -11.5 24.999c0 6 5 11.833 15 17.5s22 10.667 36 15s28.833 7.83301 44.5 10.5s29.167 4 40.5 4h344c5.33301 0 11.666 3.5 18.999 10.5s16 10.5 26 10.5c6.66699 0 13 -7 19 -21
s11.333 -30.167 16 -48.5s8.33398 -36.5 11.001 -54.5s4 -30.667 4 -38c0 -10 -1.33301 -17.833 -4 -23.5s-8 -8.5 -16 -8.5c-4 0 -8.66699 1.83301 -14 5.5s-12.166 9.5 -20.499 17.5s-18.5 18.333 -30.5 31l-45 47c-34 5.33301 -71.667 8.83301 -113 10.5
s-89 2.5 -143 2.5v-270h196c6 0 11.333 2.33301 16 7s9 10 13 16s8.16699 11.333 12.5 16s9.16602 7 14.499 7c6.66699 0 13.334 -7 20.001 -21s12.5 -30 17.5 -48s9 -35.333 12 -52s4.5 -27.334 4.5 -32.001c0 -9.33301 -5 -14 -15 -14
c-2.66699 0 -5.33398 0.666992 -8.00098 2s-6.83398 4.16602 -12.501 8.49902l-22.5 18l-37 29.5h-211zM214.001 993.004c0 10 4.16797 17.833 12.501 23.5s19.5 8.5 33.5 8.5s24.667 -2.83301 32 -8.5s12.333 -13.5 15 -23.5l40 -160
c0 -6.66699 -2.83301 -12.167 -8.5 -16.5s-11.834 -6.5 -18.501 -6.5c-12 0 -20.667 7.66699 -26 23z" />
    <glyph glyph-name="Eacute" unicode="&#xc9;" horiz-adv-x="661" 
d="M199 328l0.000976562 -301.996c0 -20 4.66699 -30 14 -30c54 0 105.333 0.666992 154 2s90.667 4.66602 126 9.99902c7.33301 0.666992 14.166 5.16699 20.499 13.5l19.5 26.5c6.66699 9.33301 13.334 17.833 20.001 25.5s14 11.5 22 11.5c6 0 12.167 -4.5 18.5 -13.5
s12.333 -20 18 -33s10.334 -26.333 14.001 -40s5.5 -25.5 5.5 -35.5c0 -11.333 -3.16699 -19.833 -9.5 -25.5s-18.166 -8.5 -35.499 -8.5h-457c-15.333 0 -26.5 2.16699 -33.5 6.5s-10.5 12.166 -10.5 23.499v617c0 10 -3.83301 18.833 -11.5 26.5
s-16.334 15.334 -26.001 23.001s-18.334 15.167 -26.001 22.5s-11.5 15.666 -11.5 24.999c0 6 5 11.833 15 17.5s22 10.667 36 15s28.833 7.83301 44.5 10.5s29.167 4 40.5 4h344c5.33301 0 11.666 3.5 18.999 10.5s16 10.5 26 10.5c6.66699 0 13 -7 19 -21
s11.333 -30.167 16 -48.5s8.33398 -36.5 11.001 -54.5s4 -30.667 4 -38c0 -10 -1.33301 -17.833 -4 -23.5s-8 -8.5 -16 -8.5c-4 0 -8.66699 1.83301 -14 5.5s-12.166 9.5 -20.499 17.5s-18.5 18.333 -30.5 31l-45 47c-34 5.33301 -71.667 8.83301 -113 10.5
s-89 2.5 -143 2.5v-270h196c6 0 11.333 2.33301 16 7s9 10 13 16s8.16699 11.333 12.5 16s9.16602 7 14.499 7c6.66699 0 13.334 -7 20.001 -21s12.5 -30 17.5 -48s9 -35.333 12 -52s4.5 -27.334 4.5 -32.001c0 -9.33301 -5 -14 -15 -14
c-2.66699 0 -5.33398 0.666992 -8.00098 2s-6.83398 4.16602 -12.501 8.49902l-22.5 18l-37 29.5h-211zM367.001 833.004c-5.33301 -15.333 -13.999 -23 -25.999 -23c-6.66699 0 -12.834 2.16699 -18.501 6.5s-8.5 9.83301 -8.5 16.5l40 160
c2.66699 10 7.66699 17.833 15 23.5s18 8.5 32 8.5s25.167 -2.83301 33.5 -8.5s12.5 -13.5 12.5 -23.5z" />
    <glyph glyph-name="Ecircumflex" unicode="&#xca;" horiz-adv-x="661" 
d="M199 328l0.000976562 -301.996c0 -20 4.66699 -30 14 -30c54 0 105.333 0.666992 154 2s90.667 4.66602 126 9.99902c7.33301 0.666992 14.166 5.16699 20.499 13.5l19.5 26.5c6.66699 9.33301 13.334 17.833 20.001 25.5s14 11.5 22 11.5c6 0 12.167 -4.5 18.5 -13.5
s12.333 -20 18 -33s10.334 -26.333 14.001 -40s5.5 -25.5 5.5 -35.5c0 -11.333 -3.16699 -19.833 -9.5 -25.5s-18.166 -8.5 -35.499 -8.5h-457c-15.333 0 -26.5 2.16699 -33.5 6.5s-10.5 12.166 -10.5 23.499v617c0 10 -3.83301 18.833 -11.5 26.5
s-16.334 15.334 -26.001 23.001s-18.334 15.167 -26.001 22.5s-11.5 15.666 -11.5 24.999c0 6 5 11.833 15 17.5s22 10.667 36 15s28.833 7.83301 44.5 10.5s29.167 4 40.5 4h344c5.33301 0 11.666 3.5 18.999 10.5s16 10.5 26 10.5c6.66699 0 13 -7 19 -21
s11.333 -30.167 16 -48.5s8.33398 -36.5 11.001 -54.5s4 -30.667 4 -38c0 -10 -1.33301 -17.833 -4 -23.5s-8 -8.5 -16 -8.5c-4 0 -8.66699 1.83301 -14 5.5s-12.166 9.5 -20.499 17.5s-18.5 18.333 -30.5 31l-45 47c-34 5.33301 -71.667 8.83301 -113 10.5
s-89 2.5 -143 2.5v-270h196c6 0 11.333 2.33301 16 7s9 10 13 16s8.16699 11.333 12.5 16s9.16602 7 14.499 7c6.66699 0 13.334 -7 20.001 -21s12.5 -30 17.5 -48s9 -35.333 12 -52s4.5 -27.334 4.5 -32.001c0 -9.33301 -5 -14 -15 -14
c-2.66699 0 -5.33398 0.666992 -8.00098 2s-6.83398 4.16602 -12.501 8.49902l-22.5 18l-37 29.5h-211zM246.001 825.004c-4 -4 -8.49902 -7.50098 -13.499 -10.501s-10.167 -4.5 -15.5 -4.5c-4.66699 0 -8.33398 1.5 -11.001 4.5s-4 6.16699 -4 9.5
c0 5.33301 0.5 9.5 1.5 12.5s3.16699 6.5 6.5 10.5l94 139c2 2.66699 5.33301 5.33398 10 8.00098s9.33398 4 14.001 4c6 0 11.667 -2 17 -6s9.33301 -7.66699 12 -11l93 -133c4 -5.33301 6.5 -10 7.5 -14s1.5 -7 1.5 -9c0 -4 -1.66699 -7.5 -5 -10.5s-7 -4.5 -11 -4.5
c-3.33301 0 -7.33301 0.833008 -12 2.5s-9.33398 4.5 -14.001 8.5l-87 101z" />
    <glyph glyph-name="Edieresis" unicode="&#xcb;" horiz-adv-x="661" 
d="M199 328l0.000976562 -301.996c0 -20 4.66699 -30 14 -30c54 0 105.333 0.666992 154 2s90.667 4.66602 126 9.99902c7.33301 0.666992 14.166 5.16699 20.499 13.5l19.5 26.5c6.66699 9.33301 13.334 17.833 20.001 25.5s14 11.5 22 11.5c6 0 12.167 -4.5 18.5 -13.5
s12.333 -20 18 -33s10.334 -26.333 14.001 -40s5.5 -25.5 5.5 -35.5c0 -11.333 -3.16699 -19.833 -9.5 -25.5s-18.166 -8.5 -35.499 -8.5h-457c-15.333 0 -26.5 2.16699 -33.5 6.5s-10.5 12.166 -10.5 23.499v617c0 10 -3.83301 18.833 -11.5 26.5
s-16.334 15.334 -26.001 23.001s-18.334 15.167 -26.001 22.5s-11.5 15.666 -11.5 24.999c0 6 5 11.833 15 17.5s22 10.667 36 15s28.833 7.83301 44.5 10.5s29.167 4 40.5 4h344c5.33301 0 11.666 3.5 18.999 10.5s16 10.5 26 10.5c6.66699 0 13 -7 19 -21
s11.333 -30.167 16 -48.5s8.33398 -36.5 11.001 -54.5s4 -30.667 4 -38c0 -10 -1.33301 -17.833 -4 -23.5s-8 -8.5 -16 -8.5c-4 0 -8.66699 1.83301 -14 5.5s-12.166 9.5 -20.499 17.5s-18.5 18.333 -30.5 31l-45 47c-34 5.33301 -71.667 8.83301 -113 10.5
s-89 2.5 -143 2.5v-270h196c6 0 11.333 2.33301 16 7s9 10 13 16s8.16699 11.333 12.5 16s9.16602 7 14.499 7c6.66699 0 13.334 -7 20.001 -21s12.5 -30 17.5 -48s9 -35.333 12 -52s4.5 -27.334 4.5 -32.001c0 -9.33301 -5 -14 -15 -14
c-2.66699 0 -5.33398 0.666992 -8.00098 2s-6.83398 4.16602 -12.501 8.49902l-22.5 18l-37 29.5h-211zM209.001 866.004c0 15.333 3.83301 28.666 11.5 39.999s19.167 17 34.5 17s27 -5.66699 35 -17s12 -24.666 12 -39.999s-4 -28.5 -12 -39.5s-19.667 -16.5 -35 -16.5
s-26.833 5.5 -34.5 16.5s-11.5 24.167 -11.5 39.5zM359.001 866.004c0 15.333 3.83301 28.666 11.5 39.999s19.167 17 34.5 17s27 -5.66699 35 -17s12 -24.666 12 -39.999s-4 -28.5 -12 -39.5s-19.667 -16.5 -35 -16.5s-26.833 5.5 -34.5 16.5s-11.5 24.167 -11.5 39.5z" />
    <glyph glyph-name="Igrave" unicode="&#xcc;" horiz-adv-x="285" 
d="M85 566c0 12 -3.83301 23.0039 -11.5 33.0039s-16.334 19.667 -26.001 29s-18.334 18.166 -26.001 26.499s-11.5 16.5 -11.5 24.5c0 4 5.16699 8.33301 15.5 13s23.333 9.16699 39 13.5s32.667 7.83301 51 10.5s35.5 4 51.5 4c22.667 0 40.667 -2 54 -6s20 -10 20 -18
c0 -6.66699 -2.16699 -14.5 -6.5 -23.5s-9 -18.167 -14 -27.5s-9.66699 -18.5 -14 -27.5s-6.5 -16.5 -6.5 -22.5v-514c0 -8 3.83301 -17 11.5 -27s16.334 -20.167 26.001 -30.5s18.334 -20.333 26.001 -30s11.5 -18.167 11.5 -25.5c0 -4 -4.5 -8.33301 -13.5 -13
s-21 -9.16699 -36 -13.5s-31.833 -7.83301 -50.5 -10.5s-38 -4 -58 -4c-8 0 -16.167 0.333008 -24.5 1s-16 2 -23 4s-12.667 4.66699 -17 8s-6.5 7.66602 -6.5 12.999c0 7.33301 2 15 6 23s8.5 16.167 13.5 24.5s9.5 16.666 13.5 24.999s6 17.166 6 26.499v514zM36 993.004
c0 10 4.16797 17.833 12.501 23.5s19.5 8.5 33.5 8.5s24.667 -2.83301 32 -8.5s12.333 -13.5 15 -23.5l40 -160c0 -6.66699 -2.83301 -12.167 -8.5 -16.5s-11.834 -6.5 -18.501 -6.5c-12 0 -20.667 7.66699 -26 23z" />
    <glyph glyph-name="Iacute" unicode="&#xcd;" horiz-adv-x="285" 
d="M85 566c0 12 -3.83301 23.0039 -11.5 33.0039s-16.334 19.667 -26.001 29s-18.334 18.166 -26.001 26.499s-11.5 16.5 -11.5 24.5c0 4 5.16699 8.33301 15.5 13s23.333 9.16699 39 13.5s32.667 7.83301 51 10.5s35.5 4 51.5 4c22.667 0 40.667 -2 54 -6s20 -10 20 -18
c0 -6.66699 -2.16699 -14.5 -6.5 -23.5s-9 -18.167 -14 -27.5s-9.66699 -18.5 -14 -27.5s-6.5 -16.5 -6.5 -22.5v-514c0 -8 3.83301 -17 11.5 -27s16.334 -20.167 26.001 -30.5s18.334 -20.333 26.001 -30s11.5 -18.167 11.5 -25.5c0 -4 -4.5 -8.33301 -13.5 -13
s-21 -9.16699 -36 -13.5s-31.833 -7.83301 -50.5 -10.5s-38 -4 -58 -4c-8 0 -16.167 0.333008 -24.5 1s-16 2 -23 4s-12.667 4.66699 -17 8s-6.5 7.66602 -6.5 12.999c0 7.33301 2 15 6 23s8.5 16.167 13.5 24.5s9.5 16.666 13.5 24.999s6 17.166 6 26.499v514zM169 833.004
c-5.33301 -15.333 -13.999 -23 -25.999 -23c-6.66699 0 -12.834 2.16699 -18.501 6.5s-8.5 9.83301 -8.5 16.5l40 160c2.66699 10 7.66699 17.833 15 23.5s18 8.5 32 8.5s25.167 -2.83301 33.5 -8.5s12.5 -13.5 12.5 -23.5z" />
    <glyph glyph-name="Icircumflex" unicode="&#xce;" horiz-adv-x="285" 
d="M85 566c0 12 -3.83301 23.0039 -11.5 33.0039s-16.334 19.667 -26.001 29s-18.334 18.166 -26.001 26.499s-11.5 16.5 -11.5 24.5c0 4 5.16699 8.33301 15.5 13s23.333 9.16699 39 13.5s32.667 7.83301 51 10.5s35.5 4 51.5 4c22.667 0 40.667 -2 54 -6s20 -10 20 -18
c0 -6.66699 -2.16699 -14.5 -6.5 -23.5s-9 -18.167 -14 -27.5s-9.66699 -18.5 -14 -27.5s-6.5 -16.5 -6.5 -22.5v-514c0 -8 3.83301 -17 11.5 -27s16.334 -20.167 26.001 -30.5s18.334 -20.333 26.001 -30s11.5 -18.167 11.5 -25.5c0 -4 -4.5 -8.33301 -13.5 -13
s-21 -9.16699 -36 -13.5s-31.833 -7.83301 -50.5 -10.5s-38 -4 -58 -4c-8 0 -16.167 0.333008 -24.5 1s-16 2 -23 4s-12.667 4.66699 -17 8s-6.5 7.66602 -6.5 12.999c0 7.33301 2 15 6 23s8.5 16.167 13.5 24.5s9.5 16.666 13.5 24.999s6 17.166 6 26.499v514zM60 825.004
c-4 -4 -8.49902 -7.50098 -13.499 -10.501s-10.167 -4.5 -15.5 -4.5c-4.66699 0 -8.33398 1.5 -11.001 4.5s-4 6.16699 -4 9.5c0 5.33301 0.5 9.5 1.5 12.5s3.16699 6.5 6.5 10.5l94 139c2 2.66699 5.33301 5.33398 10 8.00098s9.33398 4 14.001 4c6 0 11.667 -2 17 -6
s9.33301 -7.66699 12 -11l93 -133c4 -5.33301 6.5 -10 7.5 -14s1.5 -7 1.5 -9c0 -4 -1.66699 -7.5 -5 -10.5s-7 -4.5 -11 -4.5c-3.33301 0 -7.33301 0.833008 -12 2.5s-9.33398 4.5 -14.001 8.5l-87 101z" />
    <glyph glyph-name="Idieresis" unicode="&#xcf;" horiz-adv-x="285" 
d="M85 566c0 12 -3.83301 23.0039 -11.5 33.0039s-16.334 19.667 -26.001 29s-18.334 18.166 -26.001 26.499s-11.5 16.5 -11.5 24.5c0 4 5.16699 8.33301 15.5 13s23.333 9.16699 39 13.5s32.667 7.83301 51 10.5s35.5 4 51.5 4c22.667 0 40.667 -2 54 -6s20 -10 20 -18
c0 -6.66699 -2.16699 -14.5 -6.5 -23.5s-9 -18.167 -14 -27.5s-9.66699 -18.5 -14 -27.5s-6.5 -16.5 -6.5 -22.5v-514c0 -8 3.83301 -17 11.5 -27s16.334 -20.167 26.001 -30.5s18.334 -20.333 26.001 -30s11.5 -18.167 11.5 -25.5c0 -4 -4.5 -8.33301 -13.5 -13
s-21 -9.16699 -36 -13.5s-31.833 -7.83301 -50.5 -10.5s-38 -4 -58 -4c-8 0 -16.167 0.333008 -24.5 1s-16 2 -23 4s-12.667 4.66699 -17 8s-6.5 7.66602 -6.5 12.999c0 7.33301 2 15 6 23s8.5 16.167 13.5 24.5s9.5 16.666 13.5 24.999s6 17.166 6 26.499v514zM21 866.004
c0 15.333 3.83301 28.666 11.5 39.999s19.167 17 34.5 17s27 -5.66699 35 -17s12 -24.666 12 -39.999s-4 -28.5 -12 -39.5s-19.667 -16.5 -35 -16.5s-26.833 5.5 -34.5 16.5s-11.5 24.167 -11.5 39.5zM171 866.004c0 15.333 3.83301 28.666 11.5 39.999s19.167 17 34.5 17
s27 -5.66699 35 -17s12 -24.666 12 -39.999s-4 -28.5 -12 -39.5s-19.667 -16.5 -35 -16.5s-26.833 5.5 -34.5 16.5s-11.5 24.167 -11.5 39.5z" />
    <glyph glyph-name="Eth" unicode="&#xd0;" horiz-adv-x="810" 
d="M43 300c-7.33301 0 -13 3.16699 -17 9.5s-6 13.166 -6 20.499s2 14.333 6 21s9.66699 10 17 10h356c7.33301 0 12.833 -3.33301 16.5 -10s5.5 -13.667 5.5 -21s-1.83301 -14.166 -5.5 -20.499s-9.16699 -9.5 -16.5 -9.5h-356zM115 576
c0 8 -3.83105 16.168 -11.498 24.501s-16.334 16.666 -26.001 24.999s-18.334 16.5 -26.001 24.5s-11.5 15.667 -11.5 23c0 8.66699 9.66699 16.5 29 23.5s45.333 13 78 18s70.334 8.83301 113.001 11.5s87 4 133 4c64 0 119.5 -9.33301 166.5 -28s86.167 -45 117.5 -79
s54.666 -74.5 69.999 -121.5s23 -98.833 23 -155.5c0 -61.333 -9.66699 -117.666 -29 -168.999s-46.333 -95.5 -81 -132.5s-76.167 -65.833 -124.5 -86.5s-101.166 -31 -158.499 -31c-43.333 0 -81.333 1.16699 -114 3.5s-65.334 5.16602 -98.001 8.49902
c-33.333 4 -50 16.667 -50 38v599zM378.002 660.001c-30 0 -57.165 -1 -81.498 -3s-46.166 -4.33301 -65.499 -7v-642c28 -3.33301 53.667 -6 77 -8s41 -3 53 -3c43.333 0 82.666 8.16699 117.999 24.5s65.666 38.833 90.999 67.5s44.833 62.667 58.5 102s20.5 82 20.5 128
c0 44.667 -6.16699 87.5 -18.5 128.5s-30 77.167 -53 108.5s-51.333 56.5 -85 75.5s-71.834 28.5 -114.501 28.5z" />
    <glyph glyph-name="Ntilde" unicode="&#xd1;" horiz-adv-x="799" 
d="M84 576c0 6.66699 -3.83398 14.332 -11.501 22.999s-16.167 17.667 -25.5 27s-17.833 18.5 -25.5 27.5s-11.5 17.5 -11.5 25.5c0 4 5 8.33301 15 13s21.833 9.16699 35.5 13.5s27.5 7.83301 41.5 10.5s24.667 4 32 4c12.667 0 24.5 -3.5 35.5 -10.5
s21.167 -16.833 30.5 -29.5l432 -569v465c0 12 -4 23 -12 33s-16.667 19.167 -26 27.5l-26 23c-8 7 -12 13.5 -12 19.5c0 4 3.33301 8.33301 10 13s15.334 9.16699 26.001 13.5s22.334 7.83301 35.001 10.5s25 4 37 4c16 0 28.333 -2.16699 37 -6.5s13 -12.166 13 -23.499
v-746c0 -7.33301 -2.16699 -15.666 -6.5 -24.999s-13.166 -14 -26.499 -14c-7.33301 0 -15 2 -23 6s-15.667 9 -23 15s-14.333 12.5 -21 19.5s-12.334 13.5 -17.001 19.5l-431 569v-451c0 -11.333 4 -22 12 -32s16.833 -19.667 26.5 -29s18.5 -18.5 26.5 -27.5
s12 -17.833 12 -26.5c0 -4 -3.5 -8.33301 -10.5 -13s-15.833 -9.16699 -26.5 -13.5s-22.334 -7.83301 -35.001 -10.5s-25 -4 -37 -4c-17.333 0 -30 2.16699 -38 6.5s-12 12.166 -12 23.499v619zM329.999 877.998c-12.667 0 -23.165 -4.66895 -31.498 -14.002
s-13.166 -22.666 -14.499 -39.999c-0.666992 -5.33301 -2.83398 -9 -6.50098 -11s-7.16699 -3 -10.5 -3c-4 0 -7.66699 1.16699 -11 3.5s-5 5.83301 -5 10.5c0 12 2.16699 24.167 6.5 36.5s10.5 23.5 18.5 33.5s17.833 18 29.5 24s25.167 9 40.5 9
c12 0 23.167 -3.5 33.5 -10.5s20.333 -14.5 30 -22.5l28 -22.5c9 -7 17.833 -10.5 26.5 -10.5c17.333 0 29.666 5.5 36.999 16.5s11.666 23.5 12.999 37.5c0.666992 5.33301 2.66699 9 6 11s6.66602 3 9.99902 3c4.66699 0 8.66699 -1.16699 12 -3.5s5 -6.16602 5 -11.499
c0 -10 -1.83301 -21 -5.5 -33s-9.5 -23.167 -17.5 -33.5s-17.833 -19 -29.5 -26s-25.5 -10.5 -41.5 -10.5c-12 0 -23.5 3.5 -34.5 10.5s-21.5 14.667 -31.5 23s-19.667 16 -29 23s-18.666 10.5 -27.999 10.5z" />
    <glyph glyph-name="Ograve" unicode="&#xd2;" 
d="M776 324c0 -58.667 -9.33301 -112.331 -28 -160.998s-44.5 -90.5 -77.5 -125.5s-71.833 -62.167 -116.5 -81.5s-93 -29 -145 -29c-57.333 0 -108.833 10.667 -154.5 32s-84.334 50.166 -116.001 86.499s-56 78.5 -73 126.5s-25.5 98.667 -25.5 152
c0 58 9.5 111.833 28.5 161.5s45 92.667 78 129s72 64.666 117 84.999s93.5 30.5 145.5 30.5c56.667 0 107.834 -11.167 153.501 -33.5s84.167 -52.333 115.5 -90s55.5 -81 72.5 -130s25.5 -99.833 25.5 -152.5zM382 671.003c-29.333 0 -56.832 -8.33301 -82.499 -25
s-48.334 -39 -68.001 -67s-35.167 -60.167 -46.5 -96.5s-17 -73.833 -17 -112.5c0 -48 5 -94.833 15 -140.5s25.667 -86.5 47 -122.5s49 -65 83 -87s74.667 -33 122 -33c28.667 0 55.834 7.83301 81.501 23.5s48.167 37 67.5 64s34.666 58.167 45.999 93.5s17 73 17 113
c0 48 -5 95.167 -15 141.5s-25.833 88 -47.5 125s-49.167 66.833 -82.5 89.5s-73.333 34 -120 34zM311.001 993.003c0 10 4.16797 17.833 12.501 23.5s19.5 8.5 33.5 8.5s24.667 -2.83301 32 -8.5s12.333 -13.5 15 -23.5l40 -160c0 -6.66699 -2.83301 -12.167 -8.5 -16.5
s-11.834 -6.5 -18.501 -6.5c-12 0 -20.667 7.66699 -26 23z" />
    <glyph glyph-name="Oacute" unicode="&#xd3;" 
d="M776 324c0 -58.667 -9.33301 -112.331 -28 -160.998s-44.5 -90.5 -77.5 -125.5s-71.833 -62.167 -116.5 -81.5s-93 -29 -145 -29c-57.333 0 -108.833 10.667 -154.5 32s-84.334 50.166 -116.001 86.499s-56 78.5 -73 126.5s-25.5 98.667 -25.5 152
c0 58 9.5 111.833 28.5 161.5s45 92.667 78 129s72 64.666 117 84.999s93.5 30.5 145.5 30.5c56.667 0 107.834 -11.167 153.501 -33.5s84.167 -52.333 115.5 -90s55.5 -81 72.5 -130s25.5 -99.833 25.5 -152.5zM382 671.003c-29.333 0 -56.832 -8.33301 -82.499 -25
s-48.334 -39 -68.001 -67s-35.167 -60.167 -46.5 -96.5s-17 -73.833 -17 -112.5c0 -48 5 -94.833 15 -140.5s25.667 -86.5 47 -122.5s49 -65 83 -87s74.667 -33 122 -33c28.667 0 55.834 7.83301 81.501 23.5s48.167 37 67.5 64s34.666 58.167 45.999 93.5s17 73 17 113
c0 48 -5 95.167 -15 141.5s-25.833 88 -47.5 125s-49.167 66.833 -82.5 89.5s-73.333 34 -120 34zM434.001 833.003c-5.33301 -15.333 -13.999 -23 -25.999 -23c-6.66699 0 -12.834 2.16699 -18.501 6.5s-8.5 9.83301 -8.5 16.5l40 160c2.66699 10 7.66699 17.833 15 23.5
s18 8.5 32 8.5s25.167 -2.83301 33.5 -8.5s12.5 -13.5 12.5 -23.5z" />
    <glyph glyph-name="Ocircumflex" unicode="&#xd4;" 
d="M776 324c0 -58.667 -9.33301 -112.331 -28 -160.998s-44.5 -90.5 -77.5 -125.5s-71.833 -62.167 -116.5 -81.5s-93 -29 -145 -29c-57.333 0 -108.833 10.667 -154.5 32s-84.334 50.166 -116.001 86.499s-56 78.5 -73 126.5s-25.5 98.667 -25.5 152
c0 58 9.5 111.833 28.5 161.5s45 92.667 78 129s72 64.666 117 84.999s93.5 30.5 145.5 30.5c56.667 0 107.834 -11.167 153.501 -33.5s84.167 -52.333 115.5 -90s55.5 -81 72.5 -130s25.5 -99.833 25.5 -152.5zM382 671.003c-29.333 0 -56.832 -8.33301 -82.499 -25
s-48.334 -39 -68.001 -67s-35.167 -60.167 -46.5 -96.5s-17 -73.833 -17 -112.5c0 -48 5 -94.833 15 -140.5s25.667 -86.5 47 -122.5s49 -65 83 -87s74.667 -33 122 -33c28.667 0 55.834 7.83301 81.501 23.5s48.167 37 67.5 64s34.666 58.167 45.999 93.5s17 73 17 113
c0 48 -5 95.167 -15 141.5s-25.833 88 -47.5 125s-49.167 66.833 -82.5 89.5s-73.333 34 -120 34zM323.001 825.003c-4 -4 -8.49902 -7.50098 -13.499 -10.501s-10.167 -4.5 -15.5 -4.5c-4.66699 0 -8.33398 1.5 -11.001 4.5s-4 6.16699 -4 9.5c0 5.33301 0.5 9.5 1.5 12.5
s3.16699 6.5 6.5 10.5l94 139c2 2.66699 5.33301 5.33398 10 8.00098s9.33398 4 14.001 4c6 0 11.667 -2 17 -6s9.33301 -7.66699 12 -11l93 -133c4 -5.33301 6.5 -10 7.5 -14s1.5 -7 1.5 -9c0 -4 -1.66699 -7.5 -5 -10.5s-7 -4.5 -11 -4.5
c-3.33301 0 -7.33301 0.833008 -12 2.5s-9.33398 4.5 -14.001 8.5l-87 101z" />
    <glyph glyph-name="Otilde" unicode="&#xd5;" 
d="M776 324c0 -58.667 -9.33301 -112.331 -28 -160.998s-44.5 -90.5 -77.5 -125.5s-71.833 -62.167 -116.5 -81.5s-93 -29 -145 -29c-57.333 0 -108.833 10.667 -154.5 32s-84.334 50.166 -116.001 86.499s-56 78.5 -73 126.5s-25.5 98.667 -25.5 152
c0 58 9.5 111.833 28.5 161.5s45 92.667 78 129s72 64.666 117 84.999s93.5 30.5 145.5 30.5c56.667 0 107.834 -11.167 153.501 -33.5s84.167 -52.333 115.5 -90s55.5 -81 72.5 -130s25.5 -99.833 25.5 -152.5zM382 671.003c-29.333 0 -56.832 -8.33301 -82.499 -25
s-48.334 -39 -68.001 -67s-35.167 -60.167 -46.5 -96.5s-17 -73.833 -17 -112.5c0 -48 5 -94.833 15 -140.5s25.667 -86.5 47 -122.5s49 -65 83 -87s74.667 -33 122 -33c28.667 0 55.834 7.83301 81.501 23.5s48.167 37 67.5 64s34.666 58.167 45.999 93.5s17 73 17 113
c0 48 -5 95.167 -15 141.5s-25.833 88 -47.5 125s-49.167 66.833 -82.5 89.5s-73.333 34 -120 34zM339.001 878.003c-12.667 0 -23.165 -4.66895 -31.498 -14.002s-13.166 -22.666 -14.499 -39.999c-0.666992 -5.33301 -2.83398 -9 -6.50098 -11s-7.16699 -3 -10.5 -3
c-4 0 -7.66699 1.16699 -11 3.5s-5 5.83301 -5 10.5c0 12 2.16699 24.167 6.5 36.5s10.5 23.5 18.5 33.5s17.833 18 29.5 24s25.167 9 40.5 9c12 0 23.167 -3.5 33.5 -10.5s20.333 -14.5 30 -22.5l28 -22.5c9 -7 17.833 -10.5 26.5 -10.5c17.333 0 29.666 5.5 36.999 16.5
s11.666 23.5 12.999 37.5c0.666992 5.33301 2.66699 9 6 11s6.66602 3 9.99902 3c4.66699 0 8.66699 -1.16699 12 -3.5s5 -6.16602 5 -11.499c0 -10 -1.83301 -21 -5.5 -33s-9.5 -23.167 -17.5 -33.5s-17.833 -19 -29.5 -26s-25.5 -10.5 -41.5 -10.5
c-12 0 -23.5 3.5 -34.5 10.5s-21.5 14.667 -31.5 23s-19.667 16 -29 23s-18.666 10.5 -27.999 10.5z" />
    <glyph glyph-name="Odieresis" unicode="&#xd6;" 
d="M776 324c0 -58.667 -9.33301 -112.331 -28 -160.998s-44.5 -90.5 -77.5 -125.5s-71.833 -62.167 -116.5 -81.5s-93 -29 -145 -29c-57.333 0 -108.833 10.667 -154.5 32s-84.334 50.166 -116.001 86.499s-56 78.5 -73 126.5s-25.5 98.667 -25.5 152
c0 58 9.5 111.833 28.5 161.5s45 92.667 78 129s72 64.666 117 84.999s93.5 30.5 145.5 30.5c56.667 0 107.834 -11.167 153.501 -33.5s84.167 -52.333 115.5 -90s55.5 -81 72.5 -130s25.5 -99.833 25.5 -152.5zM382 671.003c-29.333 0 -56.832 -8.33301 -82.499 -25
s-48.334 -39 -68.001 -67s-35.167 -60.167 -46.5 -96.5s-17 -73.833 -17 -112.5c0 -48 5 -94.833 15 -140.5s25.667 -86.5 47 -122.5s49 -65 83 -87s74.667 -33 122 -33c28.667 0 55.834 7.83301 81.501 23.5s48.167 37 67.5 64s34.666 58.167 45.999 93.5s17 73 17 113
c0 48 -5 95.167 -15 141.5s-25.833 88 -47.5 125s-49.167 66.833 -82.5 89.5s-73.333 34 -120 34zM286.001 866.003c0 15.333 3.83301 28.666 11.5 39.999s19.167 17 34.5 17s27 -5.66699 35 -17s12 -24.666 12 -39.999s-4 -28.5 -12 -39.5s-19.667 -16.5 -35 -16.5
s-26.833 5.5 -34.5 16.5s-11.5 24.167 -11.5 39.5zM436.001 866.003c0 15.333 3.83301 28.666 11.5 39.999s19.167 17 34.5 17s27 -5.66699 35 -17s12 -24.666 12 -39.999s-4 -28.5 -12 -39.5s-19.667 -16.5 -35 -16.5s-26.833 5.5 -34.5 16.5s-11.5 24.167 -11.5 39.5z" />
    <glyph glyph-name="multiply" unicode="&#xd7;" horiz-adv-x="510" 
d="M255 290l150 150c6 6 13.667 9 23 9s17 -3.16699 23 -9.5s9 -14.5 9 -24.5c0 -8.66699 -2.66699 -15.667 -8 -21l-151 -151l150 -149c6 -6 9 -13.667 9 -23s-3.16699 -17 -9.5 -23s-14.5 -9 -24.5 -9c-8.66699 0 -15.667 2.66699 -21 8l-150 150l-149 -149
c-6 -6 -13.667 -9 -23 -9s-17 3.16699 -23 9.5s-9 14.5 -9 24.5c0 8.66699 2.66699 15.667 8 21l149 149l-149 150c-6 6 -9 13.667 -9 23s3.16699 17 9.5 23s14.5 9 24.5 9c8.66699 0 15.667 -2.66699 21 -8z" />
    <glyph glyph-name="Oslash" unicode="&#xd8;" 
d="M164 -55c-8 -11.333 -19.665 -17.001 -34.998 -17.001c-12.667 0 -22.167 4.16699 -28.5 12.5s-9.5 18.833 -9.5 31.5l551 742c3.33301 5.33301 8.16602 9.33301 14.499 12s12.166 4 17.499 4c14 0 24.167 -4.16699 30.5 -12.5s9.5 -18.166 9.5 -29.499zM776.002 323.999
c0 -58.667 -9.33301 -112.331 -28 -160.998s-44.5 -90.5 -77.5 -125.5s-71.833 -62.167 -116.5 -81.5s-93 -29 -145 -29c-57.333 0 -108.833 10.667 -154.5 32s-84.334 50.166 -116.001 86.499s-56 78.5 -73 126.5s-25.5 98.667 -25.5 152c0 58 9.5 111.833 28.5 161.5
s45 92.667 78 129s72 64.666 117 84.999s93.5 30.5 145.5 30.5c56.667 0 107.834 -11.167 153.501 -33.5s84.167 -52.333 115.5 -90s55.5 -81 72.5 -130s25.5 -99.833 25.5 -152.5zM382.002 671.002c-29.333 0 -56.832 -8.33301 -82.499 -25s-48.334 -39 -68.001 -67
s-35.167 -60.167 -46.5 -96.5s-17 -73.833 -17 -112.5c0 -48 5 -94.833 15 -140.5s25.667 -86.5 47 -122.5s49 -65 83 -87s74.667 -33 122 -33c28.667 0 55.834 7.83301 81.501 23.5s48.167 37 67.5 64s34.666 58.167 45.999 93.5s17 73 17 113c0 48 -5 95.167 -15 141.5
s-25.833 88 -47.5 125s-49.167 66.833 -82.5 89.5s-73.333 34 -120 34z" />
    <glyph glyph-name="Ugrave" unicode="&#xd9;" horiz-adv-x="766" 
d="M387 -73c-37.333 0 -73.999 4.33105 -109.999 12.998s-68.167 22 -96.5 40s-51.333 40.5 -69 67.5s-26.5 59.167 -26.5 96.5v432c0 8.66699 -3.83301 17 -11.5 25s-16.334 16.167 -26.001 24.5s-18.334 16.833 -26.001 25.5s-11.5 18 -11.5 28
c0 4.66699 5.16699 9.5 15.5 14.5s22.833 9.5 37.5 13.5s30 7.16699 46 9.5s30 3.5 42 3.5c17.333 0 30 -2.16699 38 -6.5s12 -12.166 12 -23.499v-510c0 -31.333 5 -58.666 15 -81.999s23.667 -42.666 41 -57.999s38.166 -27 62.499 -35s50.833 -12 79.5 -12
c25.333 0 50.5 4 75.5 12s47.333 19.667 67 35s35.667 34.666 48 57.999s18.5 50.666 18.5 81.999v396c0 7.33301 -4 15.333 -12 24s-16.667 17.5 -26 26.5s-18 17.833 -26 26.5s-12 17 -12 25c0 4 4.66699 8.5 14 13.5s20.5 9.5 33.5 13.5s26.333 7.5 40 10.5
s24.834 4.5 33.501 4.5c16.667 0 28.834 -2.16699 36.501 -6.5s11.5 -12.166 11.5 -23.499v-546c0 -37.333 -9.5 -69.5 -28.5 -96.5s-43.5 -49.5 -73.5 -67.5s-63.667 -31.333 -101 -40s-74.333 -13 -111 -13zM286.001 992.998c0 10 4.16797 17.833 12.501 23.5
s19.5 8.5 33.5 8.5s24.667 -2.83301 32 -8.5s12.333 -13.5 15 -23.5l40 -160c0 -6.66699 -2.83301 -12.167 -8.5 -16.5s-11.834 -6.5 -18.501 -6.5c-12 0 -20.667 7.66699 -26 23z" />
    <glyph glyph-name="Uacute" unicode="&#xda;" horiz-adv-x="766" 
d="M387 -73c-37.333 0 -73.999 4.33105 -109.999 12.998s-68.167 22 -96.5 40s-51.333 40.5 -69 67.5s-26.5 59.167 -26.5 96.5v432c0 8.66699 -3.83301 17 -11.5 25s-16.334 16.167 -26.001 24.5s-18.334 16.833 -26.001 25.5s-11.5 18 -11.5 28
c0 4.66699 5.16699 9.5 15.5 14.5s22.833 9.5 37.5 13.5s30 7.16699 46 9.5s30 3.5 42 3.5c17.333 0 30 -2.16699 38 -6.5s12 -12.166 12 -23.499v-510c0 -31.333 5 -58.666 15 -81.999s23.667 -42.666 41 -57.999s38.166 -27 62.499 -35s50.833 -12 79.5 -12
c25.333 0 50.5 4 75.5 12s47.333 19.667 67 35s35.667 34.666 48 57.999s18.5 50.666 18.5 81.999v396c0 7.33301 -4 15.333 -12 24s-16.667 17.5 -26 26.5s-18 17.833 -26 26.5s-12 17 -12 25c0 4 4.66699 8.5 14 13.5s20.5 9.5 33.5 13.5s26.333 7.5 40 10.5
s24.834 4.5 33.501 4.5c16.667 0 28.834 -2.16699 36.501 -6.5s11.5 -12.166 11.5 -23.499v-546c0 -37.333 -9.5 -69.5 -28.5 -96.5s-43.5 -49.5 -73.5 -67.5s-63.667 -31.333 -101 -40s-74.333 -13 -111 -13zM429.001 832.998c-5.33301 -15.333 -13.999 -23 -25.999 -23
c-6.66699 0 -12.834 2.16699 -18.501 6.5s-8.5 9.83301 -8.5 16.5l40 160c2.66699 10 7.66699 17.833 15 23.5s18 8.5 32 8.5s25.167 -2.83301 33.5 -8.5s12.5 -13.5 12.5 -23.5z" />
    <glyph glyph-name="Ucircumflex" unicode="&#xdb;" horiz-adv-x="766" 
d="M387 -73c-37.333 0 -73.999 4.33105 -109.999 12.998s-68.167 22 -96.5 40s-51.333 40.5 -69 67.5s-26.5 59.167 -26.5 96.5v432c0 8.66699 -3.83301 17 -11.5 25s-16.334 16.167 -26.001 24.5s-18.334 16.833 -26.001 25.5s-11.5 18 -11.5 28
c0 4.66699 5.16699 9.5 15.5 14.5s22.833 9.5 37.5 13.5s30 7.16699 46 9.5s30 3.5 42 3.5c17.333 0 30 -2.16699 38 -6.5s12 -12.166 12 -23.499v-510c0 -31.333 5 -58.666 15 -81.999s23.667 -42.666 41 -57.999s38.166 -27 62.499 -35s50.833 -12 79.5 -12
c25.333 0 50.5 4 75.5 12s47.333 19.667 67 35s35.667 34.666 48 57.999s18.5 50.666 18.5 81.999v396c0 7.33301 -4 15.333 -12 24s-16.667 17.5 -26 26.5s-18 17.833 -26 26.5s-12 17 -12 25c0 4 4.66699 8.5 14 13.5s20.5 9.5 33.5 13.5s26.333 7.5 40 10.5
s24.834 4.5 33.501 4.5c16.667 0 28.834 -2.16699 36.501 -6.5s11.5 -12.166 11.5 -23.499v-546c0 -37.333 -9.5 -69.5 -28.5 -96.5s-43.5 -49.5 -73.5 -67.5s-63.667 -31.333 -101 -40s-74.333 -13 -111 -13zM308.001 824.998c-4 -4 -8.49902 -7.50098 -13.499 -10.501
s-10.167 -4.5 -15.5 -4.5c-4.66699 0 -8.33398 1.5 -11.001 4.5s-4 6.16699 -4 9.5c0 5.33301 0.5 9.5 1.5 12.5s3.16699 6.5 6.5 10.5l94 139c2 2.66699 5.33301 5.33398 10 8.00098s9.33398 4 14.001 4c6 0 11.667 -2 17 -6s9.33301 -7.66699 12 -11l93 -133
c4 -5.33301 6.5 -10 7.5 -14s1.5 -7 1.5 -9c0 -4 -1.66699 -7.5 -5 -10.5s-7 -4.5 -11 -4.5c-3.33301 0 -7.33301 0.833008 -12 2.5s-9.33398 4.5 -14.001 8.5l-87 101z" />
    <glyph glyph-name="Udieresis" unicode="&#xdc;" horiz-adv-x="766" 
d="M387 -73c-37.333 0 -73.999 4.33105 -109.999 12.998s-68.167 22 -96.5 40s-51.333 40.5 -69 67.5s-26.5 59.167 -26.5 96.5v432c0 8.66699 -3.83301 17 -11.5 25s-16.334 16.167 -26.001 24.5s-18.334 16.833 -26.001 25.5s-11.5 18 -11.5 28
c0 4.66699 5.16699 9.5 15.5 14.5s22.833 9.5 37.5 13.5s30 7.16699 46 9.5s30 3.5 42 3.5c17.333 0 30 -2.16699 38 -6.5s12 -12.166 12 -23.499v-510c0 -31.333 5 -58.666 15 -81.999s23.667 -42.666 41 -57.999s38.166 -27 62.499 -35s50.833 -12 79.5 -12
c25.333 0 50.5 4 75.5 12s47.333 19.667 67 35s35.667 34.666 48 57.999s18.5 50.666 18.5 81.999v396c0 7.33301 -4 15.333 -12 24s-16.667 17.5 -26 26.5s-18 17.833 -26 26.5s-12 17 -12 25c0 4 4.66699 8.5 14 13.5s20.5 9.5 33.5 13.5s26.333 7.5 40 10.5
s24.834 4.5 33.501 4.5c16.667 0 28.834 -2.16699 36.501 -6.5s11.5 -12.166 11.5 -23.499v-546c0 -37.333 -9.5 -69.5 -28.5 -96.5s-43.5 -49.5 -73.5 -67.5s-63.667 -31.333 -101 -40s-74.333 -13 -111 -13zM281.001 865.998c0 15.333 3.83301 28.666 11.5 39.999
s19.167 17 34.5 17s27 -5.66699 35 -17s12 -24.666 12 -39.999s-4 -28.5 -12 -39.5s-19.667 -16.5 -35 -16.5s-26.833 5.5 -34.5 16.5s-11.5 24.167 -11.5 39.5zM431.001 865.998c0 15.333 3.83301 28.666 11.5 39.999s19.167 17 34.5 17s27 -5.66699 35 -17
s12 -24.666 12 -39.999s-4 -28.5 -12 -39.5s-19.667 -16.5 -35 -16.5s-26.833 5.5 -34.5 16.5s-11.5 24.167 -11.5 39.5z" />
    <glyph glyph-name="Yacute" unicode="&#xdd;" horiz-adv-x="673" 
d="M291 248l-202 367.001c-2 4 -7.16699 8.5 -15.5 13.5l-27 15.5c-9.66699 5.33301 -18.167 10.666 -25.5 15.999s-11 10.333 -11 15s3.5 9.66699 10.5 15s16 10.333 27 15s23.167 8.33398 36.5 11.001s26.666 4 39.999 4c12 0 24.833 -2.5 38.5 -7.5
s22.5 -11.5 26.5 -19.5l172 -368l166 302c-2 5.33301 -5.5 10.166 -10.5 14.499s-10.167 8.5 -15.5 12.5s-10.166 8.5 -14.499 13.5s-6.5 10.5 -6.5 16.5c0 4.66699 4.33301 9.33398 13 14.001s19.5 8.5 32.5 11.5s27.333 5.5 43 7.5s30.5 3 44.5 3
c10.667 0 20 -1.83301 28 -5.5s12 -10.167 12 -19.5c0 -4 -0.5 -10 -1.5 -18s-4.16699 -16.333 -9.5 -25l-236 -397v-172c0 -11.333 4 -22.333 12 -33s16.667 -20.667 26 -30l26 -27c8 -8.66699 12 -17 12 -25c0 -4 -5.16699 -8.33301 -15.5 -13s-23 -9.16699 -38 -13.5
s-30.5 -7.83301 -46.5 -10.5s-30 -4 -42 -4c-16.667 0 -29 2.16699 -37 6.5s-12 12.166 -12 23.499v291zM393 833.001c-5.33301 -15.333 -13.999 -23 -25.999 -23c-6.66699 0 -12.834 2.16699 -18.501 6.5s-8.5 9.83301 -8.5 16.5l40 160c2.66699 10 7.66699 17.833 15 23.5
s18 8.5 32 8.5s25.167 -2.83301 33.5 -8.5s12.5 -13.5 12.5 -23.5z" />
    <glyph glyph-name="Thorn" unicode="&#xde;" horiz-adv-x="633" 
d="M85 566c0 12 -3.83594 23.0049 -11.5029 33.0049s-16.334 19.667 -26.001 29s-18.334 18.166 -26.001 26.499s-11.5 16.5 -11.5 24.5c0 4 5.16699 8.33301 15.5 13s23.333 9.16699 39 13.5s32.667 7.83301 51 10.5s35.5 4 51.5 4c22.667 0 40.667 -2 54 -6s20 -10 20 -18
c0 -6.66699 -2.16699 -14.5 -6.5 -23.5s-9 -18.167 -14 -27.5s-9.66699 -18.5 -14 -27.5s-6.5 -16.5 -6.5 -22.5v-32c17.333 1.33301 36.833 2.5 58.5 3.5s40.834 1.5 57.501 1.5c42.667 0 81.667 -4.33301 117 -13s65.5 -21.334 90.5 -38.001s44.5 -37.167 58.5 -61.5
s21 -52.166 21 -83.499c0 -44 -8.16699 -82.5 -24.5 -115.5s-37.666 -60.333 -63.999 -82s-56.5 -38 -90.5 -49s-68.667 -16.5 -104 -16.5c-22 0 -43.167 0.666992 -63.5 2s-39.166 3.66602 -56.499 6.99902v-37c0 -8 3.83301 -17 11.5 -27s16.334 -20.167 26.001 -30.5
s18.334 -20.333 26.001 -30s11.5 -18.167 11.5 -25.5c0 -4 -4.5 -8.33301 -13.5 -13s-21 -9.16699 -36 -13.5s-31.833 -7.83301 -50.5 -10.5s-38 -4 -58 -4c-8 0 -16.167 0.333008 -24.5 1s-16 2 -23 4s-12.667 4.66699 -17 8s-6.5 7.66602 -6.5 12.999c0 7.33301 2 15 6 23
s8.5 16.167 13.5 24.5s9.5 16.666 13.5 24.999s6 17.166 6 26.499v514zM298.997 506.005c-16 0 -33 -0.666992 -51 -2s-34 -3 -48 -5v-313c16.667 -4.66699 35.834 -8.16699 57.501 -10.5s42.5 -3.5 62.5 -3.5s39.333 3.33301 58 10s35.167 16.5 49.5 29.5
s25.666 29.5 33.999 49.5s12.5 43.333 12.5 70c0 32.667 -5 60.167 -15 82.5s-23.167 40.333 -39.5 54s-35 23.5 -56 29.5s-42.5 9 -64.5 9z" />
    <glyph glyph-name="germandbls" unicode="&#xdf;" horiz-adv-x="461" 
d="M66 596c0 20 4.17188 38.666 12.5049 55.999s19.666 32.333 33.999 45s31.666 22.667 51.999 30s42.5 11 66.5 11c32.667 0 60.167 -5 82.5 -15s40.333 -23 54 -39s23.5 -33.833 29.5 -53.5s9 -39.167 9 -58.5c0 -24.667 -2.83301 -46.167 -8.5 -64.5
s-13.167 -34 -22.5 -47s-19.666 -23.333 -30.999 -31s-22.666 -12.834 -33.999 -15.501c14.667 -5.33301 29.667 -13.666 45 -24.999s29.333 -25.166 42 -41.499s23 -35.333 31 -57s12 -44.834 12 -69.501c0 -74 -17.167 -131 -51.5 -171s-80.5 -60 -138.5 -60
c-6.66699 0 -14.334 0.333008 -23.001 1s-17.334 1.83398 -26.001 3.50098s-17 4 -25 7s-14.667 6.5 -20 10.5v-189c0 -5.33301 2.16699 -10.833 6.5 -16.5s9.16602 -11.167 14.499 -16.5s10.166 -10.5 14.499 -15.5s6.5 -9.16699 6.5 -12.5
c0 -5.33301 -3 -11.666 -9 -18.999s-13.667 -14.333 -23 -21s-19.333 -12.334 -30 -17.001s-20.334 -7 -29.001 -7c-4 0 -8.33301 0.333008 -13 1s-9 2 -13 4s-7.5 4.66699 -10.5 8s-4.5 8 -4.5 14v871zM156.005 373.999l-0.000976562 -313.002
c11.333 -5.33301 22.666 -9.33301 33.999 -12s25 -4 41 -4c14 0 27.333 3.5 40 10.5s23.834 17.333 33.501 31s17.5 30.834 23.5 51.501s9 44.667 9 72c0 28 -3 52.167 -9 72.5s-13.833 37.333 -23.5 51s-20.667 23.834 -33 30.501s-25.166 10 -38.499 10h-77z
M231.004 682.997c-20 0 -37.5 -7.16797 -52.5 -21.501s-22.5 -36.166 -22.5 -65.499v-168h68c26 0 47.833 9.83301 65.5 29.5s26.5 48.5 26.5 86.5c0 47.333 -7.66699 82.333 -23 105s-36 34 -62 34z" />
    <glyph glyph-name="agrave" unicode="&#xe0;" horiz-adv-x="467" 
d="M148 382c-4.66699 0 -11.667 3.83203 -21 11.499s-18 16.667 -26 27s-15 21 -21 32s-9 20.167 -9 27.5c0 5.33301 6.33301 10 19 14s28.667 7.33301 48 10s41.333 4.83398 66 6.50098s49.334 2.5 74.001 2.5c34.667 0 66.334 -4.5 95.001 -13.5
s53.334 -22.167 74.001 -39.5s36.5 -39.166 47.5 -65.499s16.5 -56.5 16.5 -90.5v-267c0 -13.333 -2 -24.833 -6 -34.5s-11 -14.5 -21 -14.5c-12.667 0 -24.834 8.66699 -36.501 26s-19.834 40 -24.501 68c-12.667 -17.333 -27.5 -31.833 -44.5 -43.5s-35 -21.167 -54 -28.5
s-37.667 -12.833 -56 -16.5s-34.5 -5.5 -48.5 -5.5c-58 0 -103.333 12.667 -136 38s-49 59.333 -49 102c0 32 10.5 57.833 31.5 77.5s48.667 34.834 83 45.501s73 17.667 116 21s86.167 5 129.5 5v38c0 46 -11.333 80.667 -34 104s-49.334 35 -80.001 35
c-18 0 -33.333 -3.83301 -46 -11.5s-24 -15.834 -34 -24.501s-19 -16.834 -27 -24.501s-16.667 -11.5 -26 -11.5zM254 53.999c15.333 0 31.166 3.66699 47.499 11s31.5 17 45.5 29s25.333 26 34 42s13.334 32.667 14.001 50v39c-32.667 0 -63.5 -1.5 -92.5 -4.5
s-53.833 -8.33301 -74.5 -16s-36.667 -17.667 -48 -30s-17 -27.833 -17 -46.5c0 -20.667 7.83301 -38.167 23.5 -52.5s38.167 -21.5 67.5 -21.5zM97 712.999c0 10 4.16797 17.833 12.501 23.5s19.5 8.5 33.5 8.5s24.667 -2.83301 32 -8.5s12.333 -13.5 15 -23.5l40 -160
c0 -6.66699 -2.83301 -12.167 -8.5 -16.5s-11.834 -6.5 -18.501 -6.5c-12 0 -20.667 7.66699 -26 23z" />
    <glyph glyph-name="aacute" unicode="&#xe1;" horiz-adv-x="467" 
d="M148 382c-4.66699 0 -11.667 3.83203 -21 11.499s-18 16.667 -26 27s-15 21 -21 32s-9 20.167 -9 27.5c0 5.33301 6.33301 10 19 14s28.667 7.33301 48 10s41.333 4.83398 66 6.50098s49.334 2.5 74.001 2.5c34.667 0 66.334 -4.5 95.001 -13.5
s53.334 -22.167 74.001 -39.5s36.5 -39.166 47.5 -65.499s16.5 -56.5 16.5 -90.5v-267c0 -13.333 -2 -24.833 -6 -34.5s-11 -14.5 -21 -14.5c-12.667 0 -24.834 8.66699 -36.501 26s-19.834 40 -24.501 68c-12.667 -17.333 -27.5 -31.833 -44.5 -43.5s-35 -21.167 -54 -28.5
s-37.667 -12.833 -56 -16.5s-34.5 -5.5 -48.5 -5.5c-58 0 -103.333 12.667 -136 38s-49 59.333 -49 102c0 32 10.5 57.833 31.5 77.5s48.667 34.834 83 45.501s73 17.667 116 21s86.167 5 129.5 5v38c0 46 -11.333 80.667 -34 104s-49.334 35 -80.001 35
c-18 0 -33.333 -3.83301 -46 -11.5s-24 -15.834 -34 -24.501s-19 -16.834 -27 -24.501s-16.667 -11.5 -26 -11.5zM254 53.999c15.333 0 31.166 3.66699 47.499 11s31.5 17 45.5 29s25.333 26 34 42s13.334 32.667 14.001 50v39c-32.667 0 -63.5 -1.5 -92.5 -4.5
s-53.833 -8.33301 -74.5 -16s-36.667 -17.667 -48 -30s-17 -27.833 -17 -46.5c0 -20.667 7.83301 -38.167 23.5 -52.5s38.167 -21.5 67.5 -21.5zM230 552.999c-5.33301 -15.333 -13.999 -23 -25.999 -23c-6.66699 0 -12.834 2.16699 -18.501 6.5s-8.5 9.83301 -8.5 16.5
l40 160c2.66699 10 7.66699 17.833 15 23.5s18 8.5 32 8.5s25.167 -2.83301 33.5 -8.5s12.5 -13.5 12.5 -23.5z" />
    <glyph glyph-name="acircumflex" unicode="&#xe2;" horiz-adv-x="467" 
d="M148 382c-4.66699 0 -11.667 3.83203 -21 11.499s-18 16.667 -26 27s-15 21 -21 32s-9 20.167 -9 27.5c0 5.33301 6.33301 10 19 14s28.667 7.33301 48 10s41.333 4.83398 66 6.50098s49.334 2.5 74.001 2.5c34.667 0 66.334 -4.5 95.001 -13.5
s53.334 -22.167 74.001 -39.5s36.5 -39.166 47.5 -65.499s16.5 -56.5 16.5 -90.5v-267c0 -13.333 -2 -24.833 -6 -34.5s-11 -14.5 -21 -14.5c-12.667 0 -24.834 8.66699 -36.501 26s-19.834 40 -24.501 68c-12.667 -17.333 -27.5 -31.833 -44.5 -43.5s-35 -21.167 -54 -28.5
s-37.667 -12.833 -56 -16.5s-34.5 -5.5 -48.5 -5.5c-58 0 -103.333 12.667 -136 38s-49 59.333 -49 102c0 32 10.5 57.833 31.5 77.5s48.667 34.834 83 45.501s73 17.667 116 21s86.167 5 129.5 5v38c0 46 -11.333 80.667 -34 104s-49.334 35 -80.001 35
c-18 0 -33.333 -3.83301 -46 -11.5s-24 -15.834 -34 -24.501s-19 -16.834 -27 -24.501s-16.667 -11.5 -26 -11.5zM254 53.999c15.333 0 31.166 3.66699 47.499 11s31.5 17 45.5 29s25.333 26 34 42s13.334 32.667 14.001 50v39c-32.667 0 -63.5 -1.5 -92.5 -4.5
s-53.833 -8.33301 -74.5 -16s-36.667 -17.667 -48 -30s-17 -27.833 -17 -46.5c0 -20.667 7.83301 -38.167 23.5 -52.5s38.167 -21.5 67.5 -21.5zM139 544.999c-4 -4 -8.49902 -7.50098 -13.499 -10.501s-10.167 -4.5 -15.5 -4.5c-4.66699 0 -8.33398 1.5 -11.001 4.5
s-4 6.16699 -4 9.5c0 5.33301 0.5 9.5 1.5 12.5s3.16699 6.5 6.5 10.5l94 139c2 2.66699 5.33301 5.33398 10 8.00098s9.33398 4 14.001 4c6 0 11.667 -2 17 -6s9.33301 -7.66699 12 -11l93 -133c4 -5.33301 6.5 -10 7.5 -14s1.5 -7 1.5 -9c0 -4 -1.66699 -7.5 -5 -10.5
s-7 -4.5 -11 -4.5c-3.33301 0 -7.33301 0.833008 -12 2.5s-9.33398 4.5 -14.001 8.5l-87 101z" />
    <glyph glyph-name="atilde" unicode="&#xe3;" horiz-adv-x="467" 
d="M148 382c-4.66699 0 -11.667 3.83203 -21 11.499s-18 16.667 -26 27s-15 21 -21 32s-9 20.167 -9 27.5c0 5.33301 6.33301 10 19 14s28.667 7.33301 48 10s41.333 4.83398 66 6.50098s49.334 2.5 74.001 2.5c34.667 0 66.334 -4.5 95.001 -13.5
s53.334 -22.167 74.001 -39.5s36.5 -39.166 47.5 -65.499s16.5 -56.5 16.5 -90.5v-267c0 -13.333 -2 -24.833 -6 -34.5s-11 -14.5 -21 -14.5c-12.667 0 -24.834 8.66699 -36.501 26s-19.834 40 -24.501 68c-12.667 -17.333 -27.5 -31.833 -44.5 -43.5s-35 -21.167 -54 -28.5
s-37.667 -12.833 -56 -16.5s-34.5 -5.5 -48.5 -5.5c-58 0 -103.333 12.667 -136 38s-49 59.333 -49 102c0 32 10.5 57.833 31.5 77.5s48.667 34.834 83 45.501s73 17.667 116 21s86.167 5 129.5 5v38c0 46 -11.333 80.667 -34 104s-49.334 35 -80.001 35
c-18 0 -33.333 -3.83301 -46 -11.5s-24 -15.834 -34 -24.501s-19 -16.834 -27 -24.501s-16.667 -11.5 -26 -11.5zM254 53.999c15.333 0 31.166 3.66699 47.499 11s31.5 17 45.5 29s25.333 26 34 42s13.334 32.667 14.001 50v39c-32.667 0 -63.5 -1.5 -92.5 -4.5
s-53.833 -8.33301 -74.5 -16s-36.667 -17.667 -48 -30s-17 -27.833 -17 -46.5c0 -20.667 7.83301 -38.167 23.5 -52.5s38.167 -21.5 67.5 -21.5zM143 597.999c-12.667 0 -23.165 -4.66895 -31.498 -14.002s-13.166 -22.666 -14.499 -39.999
c-0.666992 -5.33301 -2.83398 -9 -6.50098 -11s-7.16699 -3 -10.5 -3c-4 0 -7.66699 1.16699 -11 3.5s-5 5.83301 -5 10.5c0 12 2.16699 24.167 6.5 36.5s10.5 23.5 18.5 33.5s17.833 18 29.5 24s25.167 9 40.5 9c12 0 23.167 -3.5 33.5 -10.5s20.333 -14.5 30 -22.5
l28 -22.5c9 -7 17.833 -10.5 26.5 -10.5c17.333 0 29.666 5.5 36.999 16.5s11.666 23.5 12.999 37.5c0.666992 5.33301 2.66699 9 6 11s6.66602 3 9.99902 3c4.66699 0 8.66699 -1.16699 12 -3.5s5 -6.16602 5 -11.499c0 -10 -1.83301 -21 -5.5 -33
s-9.5 -23.167 -17.5 -33.5s-17.833 -19 -29.5 -26s-25.5 -10.5 -41.5 -10.5c-12 0 -23.5 3.5 -34.5 10.5s-21.5 14.667 -31.5 23s-19.667 16 -29 23s-18.666 10.5 -27.999 10.5z" />
    <glyph glyph-name="adieresis" unicode="&#xe4;" horiz-adv-x="467" 
d="M148 382c-4.66699 0 -11.667 3.83203 -21 11.499s-18 16.667 -26 27s-15 21 -21 32s-9 20.167 -9 27.5c0 5.33301 6.33301 10 19 14s28.667 7.33301 48 10s41.333 4.83398 66 6.50098s49.334 2.5 74.001 2.5c34.667 0 66.334 -4.5 95.001 -13.5
s53.334 -22.167 74.001 -39.5s36.5 -39.166 47.5 -65.499s16.5 -56.5 16.5 -90.5v-267c0 -13.333 -2 -24.833 -6 -34.5s-11 -14.5 -21 -14.5c-12.667 0 -24.834 8.66699 -36.501 26s-19.834 40 -24.501 68c-12.667 -17.333 -27.5 -31.833 -44.5 -43.5s-35 -21.167 -54 -28.5
s-37.667 -12.833 -56 -16.5s-34.5 -5.5 -48.5 -5.5c-58 0 -103.333 12.667 -136 38s-49 59.333 -49 102c0 32 10.5 57.833 31.5 77.5s48.667 34.834 83 45.501s73 17.667 116 21s86.167 5 129.5 5v38c0 46 -11.333 80.667 -34 104s-49.334 35 -80.001 35
c-18 0 -33.333 -3.83301 -46 -11.5s-24 -15.834 -34 -24.501s-19 -16.834 -27 -24.501s-16.667 -11.5 -26 -11.5zM254 53.999c15.333 0 31.166 3.66699 47.499 11s31.5 17 45.5 29s25.333 26 34 42s13.334 32.667 14.001 50v39c-32.667 0 -63.5 -1.5 -92.5 -4.5
s-53.833 -8.33301 -74.5 -16s-36.667 -17.667 -48 -30s-17 -27.833 -17 -46.5c0 -20.667 7.83301 -38.167 23.5 -52.5s38.167 -21.5 67.5 -21.5zM94 595.999c0 15.333 3.83301 28.666 11.5 39.999s19.167 17 34.5 17s27 -5.66699 35 -17s12 -24.666 12 -39.999
s-4 -28.5 -12 -39.5s-19.667 -16.5 -35 -16.5s-26.833 5.5 -34.5 16.5s-11.5 24.167 -11.5 39.5zM244 595.999c0 15.333 3.83301 28.666 11.5 39.999s19.167 17 34.5 17s27 -5.66699 35 -17s12 -24.666 12 -39.999s-4 -28.5 -12 -39.5s-19.667 -16.5 -35 -16.5
s-26.833 5.5 -34.5 16.5s-11.5 24.167 -11.5 39.5z" />
    <glyph glyph-name="aring" unicode="&#xe5;" horiz-adv-x="467" 
d="M148 382c-4.66699 0 -11.667 3.83203 -21 11.499s-18 16.667 -26 27s-15 21 -21 32s-9 20.167 -9 27.5c0 5.33301 6.33301 10 19 14s28.667 7.33301 48 10s41.333 4.83398 66 6.50098s49.334 2.5 74.001 2.5c34.667 0 66.334 -4.5 95.001 -13.5
s53.334 -22.167 74.001 -39.5s36.5 -39.166 47.5 -65.499s16.5 -56.5 16.5 -90.5v-267c0 -13.333 -2 -24.833 -6 -34.5s-11 -14.5 -21 -14.5c-12.667 0 -24.834 8.66699 -36.501 26s-19.834 40 -24.501 68c-12.667 -17.333 -27.5 -31.833 -44.5 -43.5s-35 -21.167 -54 -28.5
s-37.667 -12.833 -56 -16.5s-34.5 -5.5 -48.5 -5.5c-58 0 -103.333 12.667 -136 38s-49 59.333 -49 102c0 32 10.5 57.833 31.5 77.5s48.667 34.834 83 45.501s73 17.667 116 21s86.167 5 129.5 5v38c0 46 -11.333 80.667 -34 104s-49.334 35 -80.001 35
c-18 0 -33.333 -3.83301 -46 -11.5s-24 -15.834 -34 -24.501s-19 -16.834 -27 -24.501s-16.667 -11.5 -26 -11.5zM254 53.999c15.333 0 31.166 3.66699 47.499 11s31.5 17 45.5 29s25.333 26 34 42s13.334 32.667 14.001 50v39c-32.667 0 -63.5 -1.5 -92.5 -4.5
s-53.833 -8.33301 -74.5 -16s-36.667 -17.667 -48 -30s-17 -27.833 -17 -46.5c0 -20.667 7.83301 -38.167 23.5 -52.5s38.167 -21.5 67.5 -21.5zM131 618.999c0 24.667 8.66699 45.667 26 63s38.333 26 63 26s45.667 -8.66699 63 -26s26 -38.333 26 -63
s-8.66699 -45.667 -26 -63s-38.333 -26 -63 -26s-45.667 8.66699 -63 26s-26 38.333 -26 63zM180 618.999c0 -11.333 3.83301 -20.833 11.5 -28.5s17.167 -11.5 28.5 -11.5s21 3.83301 29 11.5s12 17.167 12 28.5s-4 21 -12 29s-17.667 12 -29 12s-20.833 -4 -28.5 -12
s-11.5 -17.667 -11.5 -29z" />
    <glyph glyph-name="ae" unicode="&#xe6;" horiz-adv-x="836" 
d="M799 128c0 -12 -4.16992 -25.832 -12.5029 -41.499s-20.833 -30.667 -37.5 -45s-37.5 -26.833 -62.5 -37.5s-54.833 -16 -89.5 -16c-42 0 -81.167 8.16699 -117.5 24.5s-65.833 41.166 -88.5 74.499c-20.667 -28.667 -45.334 -52.334 -74.001 -71.001s-66 -28 -112 -28
c-52 0 -92.5 12.667 -121.5 38s-43.5 59.333 -43.5 102c0 32 9.33301 57.833 28 77.5s43.334 34.834 74.001 45.501s65.167 17.667 103.5 21s77.166 5 116.499 5v38c0 46 -10.167 80.667 -30.5 104s-44.5 35 -72.5 35c-16 0 -29.667 -3.83301 -41 -11.5
s-21.5 -15.834 -30.5 -24.501l-24.5 -24.5c-7.33301 -7.66699 -14.666 -11.5 -21.999 -11.5c-4.66699 0 -11 3.83301 -19 11.5s-15.667 16.667 -23 27s-13.666 21 -18.999 32s-8 20.167 -8 27.5c0 5.33301 5.5 10 16.5 14s25.333 7.33301 43 10s37.5 4.83398 59.5 6.50098
s44 2.5 66 2.5c37.333 0 70.833 -6.5 100.5 -19.5s53.5 -32.833 71.5 -59.5c22.667 24 48.834 43.167 78.501 57.5s63.167 21.5 100.5 21.5c50.667 0 91.834 -12.833 123.501 -38.5s47.5 -59.167 47.5 -100.5c0 -39.333 -10.167 -70.5 -30.5 -93.5
s-45.666 -40.167 -75.999 -51.5s-63.5 -18.833 -99.5 -22.5s-69.333 -5.5 -100 -5.5c13.333 -41.333 31.666 -72.833 54.999 -94.5s53.333 -32.5 90 -32.5c25.333 0 48 3.16699 68 9.5s36.833 13.5 50.5 21.5s25 15.333 34 22s15.167 10 18.5 10c6.66699 0 10 -3 10 -9z
M584.997 455.001c-16.667 0 -32.333 -4.16797 -47 -12.501s-27.667 -19.833 -39 -34.5s-20.333 -31.167 -27 -49.5s-10 -37.166 -10 -56.499c0 -16 1 -30.667 3 -44c30 0.666992 57.5 2.16699 82.5 4.5s46.5 6.83301 64.5 13.5s32 16.5 42 29.5s15 30.167 15 51.5
c0 65.333 -28 98 -84 98zM234.998 54c14 0 28.501 3.66699 43.501 11s28.5 17 40.5 29s22.167 26 30.5 42s12.5 32.667 12.5 50v39c-30 0 -57.833 -1.5 -83.5 -4.5s-47.834 -8.33301 -66.501 -16s-33.167 -17.667 -43.5 -30s-15.5 -27.833 -15.5 -46.5
c0 -20.667 7.16699 -38.167 21.5 -52.5s34.5 -21.5 60.5 -21.5z" />
    <glyph glyph-name="ccedilla" unicode="&#xe7;" horiz-adv-x="437" 
d="M531 128c0 -14.667 -5.16406 -30.3301 -15.4971 -46.9971s-25.333 -31.834 -45 -45.501s-43.667 -25 -72 -34s-60.5 -13.5 -96.5 -13.5c-37.333 0 -72.5 4.66699 -105.5 14s-61.333 23.833 -85 43.5s-42.667 44.667 -57 75s-21.5 66.166 -21.5 107.499
c0 38.667 6.33301 75.334 19 110.001s31.5 65 56.5 91s55.833 46.5 92.5 61.5s78.334 22.5 125.001 22.5c23.333 0 45.666 -1.33301 66.999 -4s40.166 -6.5 56.499 -11.5s29.333 -11 39 -18s14.5 -14.5 14.5 -22.5c0 -8.66699 -3 -18.334 -9 -29.001
s-13.333 -20.834 -22 -30.501s-17.667 -17.834 -27 -24.501s-17.333 -10 -24 -10c-7.33301 0 -14.333 4.66699 -21 14s-14.667 19.333 -24 30s-19.5 20.667 -30.5 30s-23.5 14 -37.5 14c-18 0 -35.667 -2.66699 -53 -8s-33 -15 -47 -29s-25.167 -33.167 -33.5 -57.5
s-12.5 -56.166 -12.5 -95.499c0 -34 4.5 -63 13.5 -87s21.833 -43.5 38.5 -58.5s35.834 -26 57.501 -33s45.167 -10.5 70.5 -10.5c29.333 0 54.166 3.33301 74.499 10s37.666 14 51.999 22s25.666 15.5 33.999 22.5s14.5 10.5 18.5 10.5c6.66699 0 10 -3 10 -9z
M253.003 -39.9961c8 -5.33301 16 -10.334 24 -15.001s15.5 -9.5 22.5 -14.5s12.667 -11 17 -18s6.5 -15.5 6.5 -25.5c0 -19.333 -8.16699 -35.333 -24.5 -48s-43.5 -19 -81.5 -19c-16 0 -30.333 1.83301 -43 5.5s-23.5 8 -32.5 13s-15.833 10.333 -20.5 16
s-7 10.834 -7 15.501s1 10.167 3 16.5s4.66699 12.333 8 18s7.16602 10.5 11.499 14.5s8.83301 6 13.5 6c4 0 7 -2 9 -6s4 -8.83301 6 -14.5s3.83301 -11.667 5.5 -18s4.16699 -11.833 7.5 -16.5c4.66699 -7.33301 10.334 -12 17.001 -14s13.667 -3 21 -3
c10 0 19.167 2.83301 27.5 8.5s12.5 13.5 12.5 23.5c0 6.66699 -1.16699 12 -3.5 16s-5.66602 7.66699 -9.99902 11s-9.33301 6.5 -15 9.5s-11.834 7.16699 -18.501 12.5c-7.33301 5.33301 -11.5 15 -12.5 29s-1.5 30 -1.5 48h44c0 -13.333 0.833008 -24 2.5 -32
s5.5 -14.333 11.5 -19z" />
    <glyph glyph-name="egrave" unicode="&#xe8;" horiz-adv-x="447" 
d="M530 128c0 -12 -4.33496 -25.835 -13.002 -41.502s-22.667 -30.667 -42 -45s-42.833 -26.833 -70.5 -37.5s-60.834 -16 -99.501 -16c-36 0 -70.5 5 -103.5 15s-62.167 24.833 -87.5 44.5s-45.333 44.5 -60 74.5s-22 65.333 -22 106c0 40 7.16699 77.333 21.5 112
s33.833 64.834 58.5 90.501s54.667 45.834 90 60.501s73.333 22 114 22c56.667 0 102.834 -12.833 138.501 -38.5s53.5 -59.167 53.5 -100.5c0 -39.333 -11.333 -70.5 -34 -93.5s-51 -40.167 -85 -51.5s-71.167 -18.833 -111.5 -22.5s-77.833 -5.5 -112.5 -5.5
c14.667 -41.333 35.334 -72.833 62.001 -94.5s60.334 -32.5 101.001 -32.5c28 0 53.333 3.16699 76 9.5s41.667 13.5 57 21.5s28 15.333 38 22s17 10 21 10c6.66699 0 10 -3 10 -9zM290.998 454.998c-18.667 0 -36.166 -4.16797 -52.499 -12.501
s-30.833 -19.833 -43.5 -34.5s-22.834 -31.167 -30.501 -49.5s-11.5 -37.166 -11.5 -56.499c0 -16 1 -30.667 3 -44c34 0.666992 65 2.16699 93 4.5s52.167 6.83301 72.5 13.5s36 16.5 47 29.5s16.5 30.167 16.5 51.5c0 65.333 -31.333 98 -94 98zM106.999 712.997
c0 10 4.16797 17.833 12.501 23.5s19.5 8.5 33.5 8.5s24.667 -2.83301 32 -8.5s12.333 -13.5 15 -23.5l40 -160c0 -6.66699 -2.83301 -12.167 -8.5 -16.5s-11.834 -6.5 -18.501 -6.5c-12 0 -20.667 7.66699 -26 23z" />
    <glyph glyph-name="eacute" unicode="&#xe9;" horiz-adv-x="447" 
d="M530 128c0 -12 -4.33496 -25.835 -13.002 -41.502s-22.667 -30.667 -42 -45s-42.833 -26.833 -70.5 -37.5s-60.834 -16 -99.501 -16c-36 0 -70.5 5 -103.5 15s-62.167 24.833 -87.5 44.5s-45.333 44.5 -60 74.5s-22 65.333 -22 106c0 40 7.16699 77.333 21.5 112
s33.833 64.834 58.5 90.501s54.667 45.834 90 60.501s73.333 22 114 22c56.667 0 102.834 -12.833 138.501 -38.5s53.5 -59.167 53.5 -100.5c0 -39.333 -11.333 -70.5 -34 -93.5s-51 -40.167 -85 -51.5s-71.167 -18.833 -111.5 -22.5s-77.833 -5.5 -112.5 -5.5
c14.667 -41.333 35.334 -72.833 62.001 -94.5s60.334 -32.5 101.001 -32.5c28 0 53.333 3.16699 76 9.5s41.667 13.5 57 21.5s28 15.333 38 22s17 10 21 10c6.66699 0 10 -3 10 -9zM290.998 454.998c-18.667 0 -36.166 -4.16797 -52.499 -12.501
s-30.833 -19.833 -43.5 -34.5s-22.834 -31.167 -30.501 -49.5s-11.5 -37.166 -11.5 -56.499c0 -16 1 -30.667 3 -44c34 0.666992 65 2.16699 93 4.5s52.167 6.83301 72.5 13.5s36 16.5 47 29.5s16.5 30.167 16.5 51.5c0 65.333 -31.333 98 -94 98zM259.999 552.997
c-5.33301 -15.333 -13.999 -23 -25.999 -23c-6.66699 0 -12.834 2.16699 -18.501 6.5s-8.5 9.83301 -8.5 16.5l40 160c2.66699 10 7.66699 17.833 15 23.5s18 8.5 32 8.5s25.167 -2.83301 33.5 -8.5s12.5 -13.5 12.5 -23.5z" />
    <glyph glyph-name="ecircumflex" unicode="&#xea;" horiz-adv-x="447" 
d="M530 128c0 -12 -4.33496 -25.835 -13.002 -41.502s-22.667 -30.667 -42 -45s-42.833 -26.833 -70.5 -37.5s-60.834 -16 -99.501 -16c-36 0 -70.5 5 -103.5 15s-62.167 24.833 -87.5 44.5s-45.333 44.5 -60 74.5s-22 65.333 -22 106c0 40 7.16699 77.333 21.5 112
s33.833 64.834 58.5 90.501s54.667 45.834 90 60.501s73.333 22 114 22c56.667 0 102.834 -12.833 138.501 -38.5s53.5 -59.167 53.5 -100.5c0 -39.333 -11.333 -70.5 -34 -93.5s-51 -40.167 -85 -51.5s-71.167 -18.833 -111.5 -22.5s-77.833 -5.5 -112.5 -5.5
c14.667 -41.333 35.334 -72.833 62.001 -94.5s60.334 -32.5 101.001 -32.5c28 0 53.333 3.16699 76 9.5s41.667 13.5 57 21.5s28 15.333 38 22s17 10 21 10c6.66699 0 10 -3 10 -9zM290.998 454.998c-18.667 0 -36.166 -4.16797 -52.499 -12.501
s-30.833 -19.833 -43.5 -34.5s-22.834 -31.167 -30.501 -49.5s-11.5 -37.166 -11.5 -56.499c0 -16 1 -30.667 3 -44c34 0.666992 65 2.16699 93 4.5s52.167 6.83301 72.5 13.5s36 16.5 47 29.5s16.5 30.167 16.5 51.5c0 65.333 -31.333 98 -94 98zM138.999 544.997
c-4 -4 -8.49902 -7.50098 -13.499 -10.501s-10.167 -4.5 -15.5 -4.5c-4.66699 0 -8.33398 1.5 -11.001 4.5s-4 6.16699 -4 9.5c0 5.33301 0.5 9.5 1.5 12.5s3.16699 6.5 6.5 10.5l94 139c2 2.66699 5.33301 5.33398 10 8.00098s9.33398 4 14.001 4c6 0 11.667 -2 17 -6
s9.33301 -7.66699 12 -11l93 -133c4 -5.33301 6.5 -10 7.5 -14s1.5 -7 1.5 -9c0 -4 -1.66699 -7.5 -5 -10.5s-7 -4.5 -11 -4.5c-3.33301 0 -7.33301 0.833008 -12 2.5s-9.33398 4.5 -14.001 8.5l-87 101z" />
    <glyph glyph-name="edieresis" unicode="&#xeb;" horiz-adv-x="447" 
d="M530 128c0 -12 -4.33496 -25.835 -13.002 -41.502s-22.667 -30.667 -42 -45s-42.833 -26.833 -70.5 -37.5s-60.834 -16 -99.501 -16c-36 0 -70.5 5 -103.5 15s-62.167 24.833 -87.5 44.5s-45.333 44.5 -60 74.5s-22 65.333 -22 106c0 40 7.16699 77.333 21.5 112
s33.833 64.834 58.5 90.501s54.667 45.834 90 60.501s73.333 22 114 22c56.667 0 102.834 -12.833 138.501 -38.5s53.5 -59.167 53.5 -100.5c0 -39.333 -11.333 -70.5 -34 -93.5s-51 -40.167 -85 -51.5s-71.167 -18.833 -111.5 -22.5s-77.833 -5.5 -112.5 -5.5
c14.667 -41.333 35.334 -72.833 62.001 -94.5s60.334 -32.5 101.001 -32.5c28 0 53.333 3.16699 76 9.5s41.667 13.5 57 21.5s28 15.333 38 22s17 10 21 10c6.66699 0 10 -3 10 -9zM290.998 454.998c-18.667 0 -36.166 -4.16797 -52.499 -12.501
s-30.833 -19.833 -43.5 -34.5s-22.834 -31.167 -30.501 -49.5s-11.5 -37.166 -11.5 -56.499c0 -16 1 -30.667 3 -44c34 0.666992 65 2.16699 93 4.5s52.167 6.83301 72.5 13.5s36 16.5 47 29.5s16.5 30.167 16.5 51.5c0 65.333 -31.333 98 -94 98zM101.999 595.997
c0 15.333 3.83301 28.666 11.5 39.999s19.167 17 34.5 17s27 -5.66699 35 -17s12 -24.666 12 -39.999s-4 -28.5 -12 -39.5s-19.667 -16.5 -35 -16.5s-26.833 5.5 -34.5 16.5s-11.5 24.167 -11.5 39.5zM251.999 595.997c0 15.333 3.83301 28.666 11.5 39.999
s19.167 17 34.5 17s27 -5.66699 35 -17s12 -24.666 12 -39.999s-4 -28.5 -12 -39.5s-19.667 -16.5 -35 -16.5s-26.833 5.5 -34.5 16.5s-11.5 24.167 -11.5 39.5z" />
    <glyph glyph-name="igrave" unicode="&#xec;" horiz-adv-x="224" 
d="M157 115c0 -6 2.49902 -11.998 7.49902 -17.998s10.333 -12 16 -18l16 -16.5c5 -5 7.5 -9.5 7.5 -13.5c0 -5.33301 -2.83301 -11.333 -8.5 -18s-13.167 -13 -22.5 -19s-19.666 -11.167 -30.999 -15.5s-23 -6.5 -35 -6.5c-14 0 -24.167 4.33301 -30.5 13
s-9.5 18.667 -9.5 30v264c0 7.33301 -2.5 14.666 -7.5 21.999s-10.333 14.5 -16 21.5l-16 20c-5 6.33301 -7.5 12.166 -7.5 17.499c0 4.66699 3 11 9 19s13.667 15.5 23 22.5s19.5 13.167 30.5 18.5s21.833 8 32.5 8c14 0 24.5 -2.5 31.5 -7.5s10.5 -15.167 10.5 -30.5v-293
zM-3.00098 713.002c0 10 4.16797 17.833 12.501 23.5s19.5 8.5 33.5 8.5s24.667 -2.83301 32 -8.5s12.333 -13.5 15 -23.5l40 -160c0 -6.66699 -2.83301 -12.167 -8.5 -16.5s-11.834 -6.5 -18.501 -6.5c-12 0 -20.667 7.66699 -26 23z" />
    <glyph glyph-name="iacute" unicode="&#xed;" horiz-adv-x="224" 
d="M157 115c0 -6 2.49902 -11.998 7.49902 -17.998s10.333 -12 16 -18l16 -16.5c5 -5 7.5 -9.5 7.5 -13.5c0 -5.33301 -2.83301 -11.333 -8.5 -18s-13.167 -13 -22.5 -19s-19.666 -11.167 -30.999 -15.5s-23 -6.5 -35 -6.5c-14 0 -24.167 4.33301 -30.5 13
s-9.5 18.667 -9.5 30v264c0 7.33301 -2.5 14.666 -7.5 21.999s-10.333 14.5 -16 21.5l-16 20c-5 6.33301 -7.5 12.166 -7.5 17.499c0 4.66699 3 11 9 19s13.667 15.5 23 22.5s19.5 13.167 30.5 18.5s21.833 8 32.5 8c14 0 24.5 -2.5 31.5 -7.5s10.5 -15.167 10.5 -30.5v-293
zM137.999 553.002c-5.33301 -15.333 -13.999 -23 -25.999 -23c-6.66699 0 -12.834 2.16699 -18.501 6.5s-8.5 9.83301 -8.5 16.5l40 160c2.66699 10 7.66699 17.833 15 23.5s18 8.5 32 8.5s25.167 -2.83301 33.5 -8.5s12.5 -13.5 12.5 -23.5z" />
    <glyph glyph-name="icircumflex" unicode="&#xee;" horiz-adv-x="224" 
d="M157 115c0 -6 2.49902 -11.998 7.49902 -17.998s10.333 -12 16 -18l16 -16.5c5 -5 7.5 -9.5 7.5 -13.5c0 -5.33301 -2.83301 -11.333 -8.5 -18s-13.167 -13 -22.5 -19s-19.666 -11.167 -30.999 -15.5s-23 -6.5 -35 -6.5c-14 0 -24.167 4.33301 -30.5 13
s-9.5 18.667 -9.5 30v264c0 7.33301 -2.5 14.666 -7.5 21.999s-10.333 14.5 -16 21.5l-16 20c-5 6.33301 -7.5 12.166 -7.5 17.499c0 4.66699 3 11 9 19s13.667 15.5 23 22.5s19.5 13.167 30.5 18.5s21.833 8 32.5 8c14 0 24.5 -2.5 31.5 -7.5s10.5 -15.167 10.5 -30.5v-293
zM29.999 545.002c-4 -4 -8.49902 -7.50098 -13.499 -10.501s-10.167 -4.5 -15.5 -4.5c-4.66699 0 -8.33398 1.5 -11.001 4.5s-4 6.16699 -4 9.5c0 5.33301 0.5 9.5 1.5 12.5s3.16699 6.5 6.5 10.5l94 139c2 2.66699 5.33301 5.33398 10 8.00098s9.33398 4 14.001 4
c6 0 11.667 -2 17 -6s9.33301 -7.66699 12 -11l93 -133c4 -5.33301 6.5 -10 7.5 -14s1.5 -7 1.5 -9c0 -4 -1.66699 -7.5 -5 -10.5s-7 -4.5 -11 -4.5c-3.33301 0 -7.33301 0.833008 -12 2.5s-9.33398 4.5 -14.001 8.5l-87 101z" />
    <glyph glyph-name="idieresis" unicode="&#xef;" horiz-adv-x="224" 
d="M157 115c0 -6 2.49902 -11.998 7.49902 -17.998s10.333 -12 16 -18l16 -16.5c5 -5 7.5 -9.5 7.5 -13.5c0 -5.33301 -2.83301 -11.333 -8.5 -18s-13.167 -13 -22.5 -19s-19.666 -11.167 -30.999 -15.5s-23 -6.5 -35 -6.5c-14 0 -24.167 4.33301 -30.5 13
s-9.5 18.667 -9.5 30v264c0 7.33301 -2.5 14.666 -7.5 21.999s-10.333 14.5 -16 21.5l-16 20c-5 6.33301 -7.5 12.166 -7.5 17.499c0 4.66699 3 11 9 19s13.667 15.5 23 22.5s19.5 13.167 30.5 18.5s21.833 8 32.5 8c14 0 24.5 -2.5 31.5 -7.5s10.5 -15.167 10.5 -30.5v-293
zM-7.00098 596.002c0 15.333 3.83301 28.666 11.5 39.999s19.167 17 34.5 17s27 -5.66699 35 -17s12 -24.666 12 -39.999s-4 -28.5 -12 -39.5s-19.667 -16.5 -35 -16.5s-26.833 5.5 -34.5 16.5s-11.5 24.167 -11.5 39.5zM142.999 596.002
c0 15.333 3.83301 28.666 11.5 39.999s19.167 17 34.5 17s27 -5.66699 35 -17s12 -24.666 12 -39.999s-4 -28.5 -12 -39.5s-19.667 -16.5 -35 -16.5s-26.833 5.5 -34.5 16.5s-11.5 24.167 -11.5 39.5z" />
    <glyph glyph-name="eth" unicode="&#xf0;" horiz-adv-x="590" 
d="M563 322c0 -50 -5.66406 -95.5 -16.9971 -136.5s-28.333 -76 -51 -105s-50.667 -51.667 -84 -68s-72.333 -24.5 -117 -24.5c-38 0 -73.333 6.16699 -106 18.5s-61.334 30 -86.001 53s-43.834 51 -57.501 84s-20.5 70.167 -20.5 111.5c0 39.333 6.16699 75.333 18.5 108
s28.833 60.834 49.5 84.501s44.834 42.167 72.501 55.5s57.167 20 88.5 20c38 0 70.833 -4.33301 98.5 -13s51.5 -23 71.5 -43c-5.33301 40 -16.666 77.333 -33.999 112s-38.333 65.167 -63 91.5s-52.334 46.666 -83.001 60.999s-62.334 21.5 -95.001 21.5
c-11.333 0 -19.666 3.66699 -24.999 11s-8 14.333 -8 21c0 7.33301 2.66699 14.5 8 21.5s13.666 10.5 24.999 10.5c66 0 124.833 -14.333 176.5 -43s95.167 -66.167 130.5 -112.5s62.166 -99 80.499 -158s27.5 -119.5 27.5 -181.5zM160.003 244
c0 -34 3.33398 -62.6689 10.001 -86.002s16.167 -42.333 28.5 -57s26.666 -25.167 42.999 -31.5s33.5 -9.5 51.5 -9.5c37.333 0 69.166 17.667 95.499 53s39.5 85.333 39.5 150c0 35.333 -3.5 65.166 -10.5 89.499s-16.667 44 -29 59s-26.666 25.667 -42.999 32
s-33.833 9.5 -52.5 9.5c-18 0 -35.333 -5.66699 -52 -17s-31 -26.666 -43 -45.999s-21.333 -41.666 -28 -66.999s-10 -51.666 -10 -78.999zM224.004 633.998c-5.33301 -8 -12.667 -12 -22 -12c-10.667 0 -20 3.83301 -28 11.5s-12 16.167 -12 25.5c0 4.66699 1 9 3 13
l130 197c4 6.66699 10.667 10 20 10c10.667 0 20.667 -3.66699 30 -11s14 -16 14 -26c0 -4.66699 -1.33301 -8.66699 -4 -12z" />
    <glyph glyph-name="ntilde" unicode="&#xf1;" horiz-adv-x="497" 
d="M193 30c0 -13.333 -6.66602 -23.665 -19.999 -30.998s-30.333 -11 -51 -11c-10 0 -18 3.66699 -24 11s-9 17.666 -9 30.999v312c0 8 -2.83301 16.333 -8.5 25s-11.834 17 -18.501 25l-18.5 23c-5.66699 7.33301 -8.5 14 -8.5 20c0 5.33301 3.5 12.5 10.5 21.5
s15.833 17.667 26.5 26s22.334 15.5 35.001 21.5s25 9 37 9c16 0 28.167 -2.83301 36.5 -8.5s12.5 -17.5 12.5 -35.5v-69c15.333 30 38.5 56.333 69.5 79s71.167 34 120.5 34c36.667 0 66.5 -12.333 89.5 -37s34.5 -55.334 34.5 -92.001v-240
c0 -7.33301 2.83301 -15 8.5 -23s11.667 -15.833 18 -23.5l18.5 -22.5c6 -7.33301 9 -13 9 -17c0 -6.66699 -3.33301 -13.834 -10 -21.501s-15.334 -15.167 -26.001 -22.5s-22.5 -13.5 -35.5 -18.5s-25.833 -7.5 -38.5 -7.5c-14.667 0 -26.334 3.16699 -35.001 9.5
s-13 15.833 -13 28.5v327c0 10.667 -1 21.334 -3 32.001s-5 20.334 -9 29.001s-9.66699 15.5 -17 20.5s-16 7.5 -26 7.5c-19.333 0 -38.166 -6 -56.499 -18s-34.833 -26.833 -49.5 -44.5s-26.5 -36.334 -35.5 -56.001s-13.5 -36.5 -13.5 -50.5v-243zM179.001 598.001
c-12.667 0 -23.165 -4.66895 -31.498 -14.002s-13.166 -22.666 -14.499 -39.999c-0.666992 -5.33301 -2.83398 -9 -6.50098 -11s-7.16699 -3 -10.5 -3c-4 0 -7.66699 1.16699 -11 3.5s-5 5.83301 -5 10.5c0 12 2.16699 24.167 6.5 36.5s10.5 23.5 18.5 33.5
s17.833 18 29.5 24s25.167 9 40.5 9c12 0 23.167 -3.5 33.5 -10.5s20.333 -14.5 30 -22.5l28 -22.5c9 -7 17.833 -10.5 26.5 -10.5c17.333 0 29.666 5.5 36.999 16.5s11.666 23.5 12.999 37.5c0.666992 5.33301 2.66699 9 6 11s6.66602 3 9.99902 3
c4.66699 0 8.66699 -1.16699 12 -3.5s5 -6.16602 5 -11.499c0 -10 -1.83301 -21 -5.5 -33s-9.5 -23.167 -17.5 -33.5s-17.833 -19 -29.5 -26s-25.5 -10.5 -41.5 -10.5c-12 0 -23.5 3.5 -34.5 10.5s-21.5 14.667 -31.5 23s-19.667 16 -29 23s-18.666 10.5 -27.999 10.5z" />
    </font>
</defs>
</svg>
